<svg xmlns="http://www.w3.org/2000/svg" width="3000" height="700" fill="none" viewBox="0 0 3000 700"><g clip-path="url(#a)"><path fill="#3A9139" d="M0 0h3000v700H0V0Z"/><path fill="#3A8C38" d="m809 209-1 49-2 181v44l1 217h16l-1-224v-38l-1-197v-34l6 2c26 7 54 6 65 6-4-14-39-28-47-30 16-13 41-39 47-56-32-2-56 18-70 37 4-20 5-45-6-59-3 4-6 13-9 23l-5 27c-7-9-16-18-27-25s-24-11-37-11c2 7 4 13 8 19l14 20c-14-3-27-4-37 2 6 5 29 18 51 25-20 1-43 7-52 20 7 3 30 4 52 1-16 8-32 19-36 34 12-1 54-14 71-33ZM1893 8c-22 1-37 14-33 23 3 6 44 1 50-10l-36 679h7l41-678c1 17 51 17 55 13 18-15-29-27-40-28 3 0 30 1 40-7h-122c6 7 24 8 38 8ZM0 370v330h133a1277 1277 0 0 0 71-115c31-58 57-119 75-182l1-5 1-5h12a387 387 0 0 0 225-88c15-15 32-80 49-167 8-42 16-89 23-138h-53c-10 48-20 92-31 130-12 44-27 80-42 101-12 15-36 28-62 37-30 10-63 16-83 15-7 0-12-1-16-3 8-33 19-93 29-154L351 0H160c-11 60-23 115-36 161-14 48-29 87-45 110-19 26-46 60-79 99Zm2411-216c8 10 30 10 50 8-41 6-50 34-45 42 6 9 18 11 27 5 10-6 25-25 39-34-13 10-50 64-25 72 22 7 45-59 53-76v529h10V177c4 26 17 83 46 67 34-19-11-53-19-62 23 10 37 37 57 13 23-28-48-37-65-39 5 0 57-2 66-20 2-3 2-7 0-12-13-28-61 2-78 16l-2 2 2-2c13-17 38-72 11-79-28-8-32 46-33 65 1-27-23-72-43-58s18 62 29 75v2l-1-2c-26-14-78-27-81-1-1 5 0 9 2 12ZM988 700h71c4-7 6-13 4-16-3-5-23 0-33 9v-13c15 10 39-26 34-33-4-4-24 0-34 10v-14c15 10 39-25 34-32-3-5-23 0-34 9l1-14c15 11 40-25 35-32-3-5-24 0-35 10l1-15c15 12 41-25 36-32-3-5-24 1-35 10l1-15c14 13 42-24 37-31-3-5-25 0-36 10l1-16c14 15 43-24 39-31-4-5-27 1-38 12l2-19c13 18 44-22 40-29-4-6-29 1-39 13v-21l-5 20c-8-10-30-15-35-10-6 8 15 44 33 28l-3 17c-9-9-30-14-34-8-6 7 15 42 32 29l-2 15c-8-8-25-12-31-9l-3 1c-2 3 0 8 3 14 6 12 18 24 29 16l-1 14c-8-7-21-10-28-9-3 0-4 1-5 2-3 3 0 11 4 18 7 10 18 18 27 12v13c-8-6-19-9-27-9l-6 2c-3 4 0 13 6 21 7 8 17 15 25 10v13c-7-6-17-9-25-9-4 0-7 0-8 2-3 4 1 14 8 22s16 13 24 9v12c-7-5-15-8-24-9-4 0-8 1-9 3-3 3 2 13 9 21s16 14 24 10v12c-8-5-16-8-24-9l-9 2c-2 3 0 8 3 14Zm553-503-3 137v125l-1 124v117h20l1-263V331l-2-136c22 23 74 40 89 41-5-19-25-33-45-43 27 6 54 8 63 5-9-28-36-39-63-41 21-17 39-40 46-61-40-3-70 23-88 47 5-25 7-57-8-74-5 8-14 36-17 63-18-24-45-47-81-46 3 15 14 33 28 50-18-4-35-5-47 1 7 7 36 23 65 32-27 2-55 9-67 26 9 3 38 4 66 1-20 10-40 24-45 43 15-1 68-18 89-42Zm663 503h76l1-28 2-43 19-362 4-73 2-23 4-56 8-115h-44l-18 178-5 44-8 76-2 24-30 296-5 44-1 7a29705 29705 0 0 0-3 31Zm-255-3v3h74l5-140a6218 6218 0 0 0 2-67l9-185 2-50v-3l4-73 5-79 7-103h-45l-14 148-3 29-2 20-7 68-4 40-17 165c-11-6-20-9-26-14-7 4-9 9-10 18 7 16 32 36 32 41-3 25-5 58-7 94l-1 6a3853 3853 0 0 0-2 43v6l-2 33ZM3000 0h-331c27 32 50 51 60 56l7 85 15 162 14 153a4542 4542 0 0 0 4 43l18 176 3 25h210V0ZM1605 700h103c12-106 48-324 89-553l25-134 2-13h-99l-21 133-75 451-24 116Zm-477-530-2 530h223a3339 3339 0 0 1 38-460l-32-31c-6 14-25 54-45 72l-6-145-5-136h-171v170Z" opacity=".5"/><path fill="#3A8C38" d="M2059 506c-6-5-15-8-24-7-4-66-45-102-99-120 51 17 59 5 59 3 9-19-51-48-47-37 3 9 27 15 21 20-5 4-26-6-71-3-73 5-132 71-137 137-10 0-19 2-25 8-16 15-9 44 2 61 9 12 23 22 37 27 6 17 33 39 67 53-9 12-13 25-13 38v1l-1 2v6l2 7c1 3 4 6 7 7a10 10 0 0 0 12-16 10 10 0 0 0-2-10c1-10 5-19 9-25-3 12-4 19-4 27 0 12 6 23 15 32l-2 14-10 2a10 10 0 0 0-7 8 10 10 0 0 0 3 7 10 10 0 0 0 10 4c8-3 17-2 21 0h3a10 10 0 0 0 7-16v-8a41 41 0 0 0 11 0v8a10 10 0 0 0 4 15l6 1c4-2 14-3 21 0h3a10 10 0 0 0 3-19l-10-2-2-14 3-4a44 44 0 0 0 10 1c4 0 8-1 10-3l2-1h1l4-1c6-2 8-9 9-14a16 16 0 0 0-2-10v-1c1-6 0-13-2-19l7-7c8-5 14-6 18-5s8 2 11 5a17 17 0 0 1 5 20c0 2-2 5-5 6-5 2-12-3-12-3a4 4 0 0 0-2-1 4 4 0 0 0-3 2 4 4 0 0 0 1 4c1 1 6 6 13 6l5-1c5-2 8-6 10-11s2-9 1-14-5-10-9-14c-4-3-9-5-14-6-4-1-8 0-12 1s-8 3-11 6l-6 5-6-10c32-13 57-34 66-52 14-5 29-15 38-29 10-17 17-46 1-61Zm-121 201h-2c4-7 7-14 7-22 0-9-1-18-3-26a39 39 0 0 1 7 25 10 10 0 0 0-1 9 10 10 0 0 0 0 13c-2 1-4 2-8 1Z"/><path fill="#3D8A38" d="M241 467c-8-7-18-10-29-9-4-79-54-123-119-144 62 20 71 6 71 4 11-23-61-58-56-45 4 11 32 18 25 24-6 5-31-7-86-3-87 6-158 84-164 164-12 0-22 2-30 10-19 18-10 53 3 73 10 15 27 27 43 32 8 21 40 48 81 63a81 81 0 0 0-15 47l-1 3v8l2 8c2 4 5 7 9 8a12 12 0 0 0 16-7 12 12 0 0 0-2-12 12 12 0 0 0-3-12c1-12 7-23 12-30-4 14-6 23-6 32 0 14 7 28 18 38l-2 18-11 2a12 12 0 1 0 6 22c9-3 21-1 25 0a12 12 0 0 0 12-19v-1l1-8a51 51 0 0 0 13 0 97 97 0 0 1 0 9 12 12 0 0 0 12 19c5-1 16-2 26 0l3 1a12 12 0 0 0 3-23l-11-2-3-18 4-4a56 56 0 0 0 11 2c6 0 10-2 13-4l1-2h2l5-1c7-3 10-11 11-17l-1-7-2-5v-1c1-7 0-15-2-22l8-9c9-6 17-7 22-6 4 1 9 3 12 6a21 21 0 0 1 7 24c0 2-2 6-6 7-7 3-14-3-14-4a4 4 0 1 0-6 7c1 1 8 6 17 6l6-1c5-2 9-6 12-13 1-5 2-11 0-16-1-7-5-13-10-17s-11-6-17-7c-5-1-10-1-15 1a55 55 0 0 0-20 13l-7-12c38-15 69-40 79-63 17-5 35-18 45-34 13-20 21-56 2-73ZM96 708l-2-1c5-7 8-16 8-26s-1-21-4-31a47 47 0 0 1 9 30 12 12 0 0 0-2 11 12 12 0 0 0 1 16l-10 1Z"/><path fill="#3A8C38" d="M903 506c-6-5-15-8-24-7-4-66-45-102-99-120 51 17 58 5 59 3 9-19-51-48-47-37 3 9 27 15 21 20-5 4-26-6-71-3-73 5-132 71-137 137-10 0-19 2-25 8-16 15-9 44 2 61 9 12 23 22 36 27 7 17 34 39 68 53-9 12-13 25-13 38v1l-1 2v6l2 7c1 3 4 6 7 7a10 10 0 0 0 12-16 10 10 0 0 0-2-10c1-10 5-19 9-25-3 12-4 19-4 27 0 12 6 23 15 32l-2 14-10 2a10 10 0 1 0 6 18c8-2 17-1 21 0a10 10 0 0 0 10-15v-8a41 41 0 0 0 11 0l1 7v1a10 10 0 0 0 10 15c4-1 13-2 21 0l2 1a10 10 0 0 0 3-19l-10-2-2-15 4-3a44 44 0 0 0 9 1c4 0 8-1 10-3l2-1h1l4-1c6-2 8-9 9-14a16 16 0 0 0-2-10v-1c1-6 0-13-2-19l7-7c8-5 14-6 18-5s7 2 11 5c3 2 5 6 6 10 1 3 0 6-1 10 0 2-2 5-5 6-5 2-12-3-12-3a4 4 0 0 0-4 5c1 1 6 6 13 6l5-1c5-2 8-6 10-11s2-9 1-14-5-10-9-14c-4-3-9-5-14-6-4-1-8 0-12 1s-8 3-11 6l-6 5-6-10c32-13 57-34 66-52 14-5 29-15 38-29 10-17 17-46 1-61ZM782 707h-2c4-7 7-14 7-22 0-9-1-18-3-26a40 40 0 0 1 7 25 10 10 0 0 0-1 9 10 10 0 0 0 0 13c-2 1-4 2-8 1Z"/><path fill="#3B8535" d="M638 449c-9-9-22-12-36-11-5-98-66-151-146-177 76 25 87 7 88 5 13-28-75-71-70-55 5 13 40 22 31 29-7 7-38-9-105-4a228 228 0 0 0-202 202c-14-1-27 3-37 12-23 22-12 65 4 89 12 19 33 34 53 41 10 25 49 58 100 77a99 99 0 0 0-19 56v2l-1 3-1 10 3 10c3 5 6 8 11 10a15 15 0 0 0 17-24 15 15 0 0 0-3-15c1-15 8-28 14-37-5 18-6 29-6 40 0 17 8 35 22 47l-3 21-14 3a14 14 0 0 0 8 27c11-3 25-2 31 0a14 14 0 0 0 14-23v-2l1-9a61 61 0 0 0 15 0 115 115 0 0 1 2 11 14 14 0 0 0 14 23c6-2 20-3 31 0a14 14 0 0 0 14-3 14 14 0 0 0-6-24l-14-3-3-21 5-6a67 67 0 0 0 14 3c6 0 11-2 15-5l2-3 2 1 6-1c8-4 12-14 13-21v-9l-3-6v-1c1-9 0-19-3-28l11-10c11-8 20-9 26-8s11 4 16 7c3 3 8 8 9 15 1 5 1 10-1 15-1 3-3 8-8 9-8 3-17-5-17-5a5 5 0 1 0-7 8c2 1 10 8 21 8l7-1c7-2 12-8 14-16 2-7 3-14 1-21-2-8-6-15-13-20a40 40 0 0 0-39-8l-15 9c-4 2-7 4-9 7l-9-15c47-18 85-49 97-76 21-7 43-23 56-42 16-25 25-69 2-90ZM459 745l-2-1c6-9 10-20 10-32 0-13-2-26-4-38a58 58 0 0 1 10 36v1a15 15 0 0 0-2 14 15 15 0 0 0 1 18c-3 2-7 3-13 2Z"/><path fill="#3D8A38" d="M1268 467c-8-7-18-10-29-9-5-79-54-123-119-144 62 20 70 6 71 4 11-23-61-58-57-45 4 11 33 18 25 24-6 5-30-7-85-3-87 6-158 84-165 164-11 0-22 2-29 10-19 18-11 53 3 73 10 15 26 27 43 32 8 21 40 48 81 63a81 81 0 0 0-15 47l-1 3-1 8 3 8c2 4 5 7 8 8a12 12 0 0 0 15-19 12 12 0 0 0-3-12c1-12 6-23 11-30-4 14-5 23-5 32 0 14 7 28 18 38l-2 18-12 2a12 12 0 0 0 7 22c9-2 20-1 25 0a12 12 0 0 0 12-19v-1l1-7a51 51 0 0 0 12-1 98 98 0 0 1 1 9 12 12 0 0 0 12 19c5-1 16-2 25 0l4 1a12 12 0 0 0 3-23l-12-2-2-18 4-4a56 56 0 0 0 11 2c5 0 9-2 12-4l2-2h2l4-1c7-3 11-11 11-17v-7l-2-5v-1c1-7 0-15-3-22l9-9c9-6 17-7 21-6 5 1 9 3 13 6s7 7 8 11c1 5 0 9-1 13-1 2-3 6-6 7-7 3-14-3-14-4a4 4 0 0 0-7 4l1 3c1 1 8 7 17 7l6-1c5-2 9-7 11-14 2-5 2-11 1-16-1-7-5-13-10-17s-11-6-17-7c-5-1-10-1-15 1-5 1-9 4-13 7-3 1-5 4-7 6l-7-12c38-15 69-40 78-63 18-5 36-18 46-34 13-20 21-56 2-73Zm-146 241-2-1c5-7 8-16 8-26s-1-21-3-31c6 10 10 20 9 28v2h-1a12 12 0 0 0-1 11 12 12 0 0 0 0 16l-10 1Zm2031-243c-8-7-19-10-30-9-4-79-53-123-118-144 62 20 70 6 71 4 11-23-61-58-57-45 4 11 33 18 25 24-6 5-30-7-85-3-87 6-158 84-165 164-11 0-22 2-29 10-19 18-11 53 2 73 11 15 27 27 44 32 8 21 40 48 81 63a81 81 0 0 0-16 47l-1 3v8c0 3 1 5 3 8 2 4 5 7 8 8a12 12 0 0 0 14-19 12 12 0 0 0-2-12c1-12 6-23 11-30-4 14-5 23-5 32 0 14 7 28 18 38l-2 18-12 2a12 12 0 0 0 7 22c9-3 20-1 25 0a12 12 0 0 0 12-19v-8a51 51 0 0 0 13-1 98 98 0 0 1 1 9 12 12 0 0 0 12 19c5-1 16-2 25 0a12 12 0 0 0 7-22l-12-2-3-18 5-4a56 56 0 0 0 11 2c5 0 9-2 12-4l2-2h2l4-1c7-3 11-11 11-17v-7l-2-5v-1c1-7 0-15-3-22l9-9c9-6 17-7 21-6 5 1 9 3 13 6s6 7 8 11l-1 13c-1 2-3 6-6 7-7 3-14-3-14-4a4 4 0 0 0-7 4l1 3c1 1 8 6 16 6 2 1 4 0 6-1 6-2 10-6 12-13a29 29 0 0 0-10-33c-4-4-10-6-16-7-5-1-10-1-15 1-5 1-9 4-13 7-3 1-5 4-7 6l-7-12c38-15 68-40 78-63 18-5 36-18 46-34 13-20 20-56 2-73Zm-146 241-2-1c5-7 8-16 8-26s-1-21-3-31a47 47 0 0 1 9 30h-1a12 12 0 0 0-1 11 12 12 0 0 0 0 16l-10 1Zm-636-241c-7-7-18-10-29-9-4-79-54-123-119-144 62 20 71 6 72 4 11-23-61-58-57-45 4 11 32 18 25 24-6 5-31-7-85-3-87 6-158 84-165 164-11 0-22 2-30 10-18 18-10 53 3 73 10 15 27 27 44 32 7 21 39 48 80 63a81 81 0 0 0-15 47l-1 3v8l2 8c3 4 5 7 9 8a12 12 0 0 0 14-19 12 12 0 0 0-2-12c0-12 6-23 11-30-4 14-5 23-5 32 0 14 7 28 18 38l-3 18-11 2a12 12 0 0 0 6 22c10-3 21-1 26 0a12 12 0 0 0 12-19v-8a51 51 0 0 0 13-1 97 97 0 0 1 1 9 12 12 0 0 0 12 19c4-1 16-2 25 0l3 1a12 12 0 0 0 3-23l-11-2-3-18 4-4a56 56 0 0 0 12 2c5 0 9-2 12-4l2-2h1l5-1c7-3 10-11 11-17l-1-7-2-5 1-1c0-7-1-15-3-22l9-9c9-6 16-7 21-6s9 3 13 6 6 7 7 11v13c-1 2-3 6-7 7-6 3-14-3-14-4a4 4 0 0 0-7 4l2 3c1 1 8 6 16 6 2 1 4 0 6-1 6-2 10-6 12-13 2-5 2-11 1-16-2-7-6-13-11-17s-11-6-17-7c-5-1-10-1-14 1-5 1-10 4-13 6l-8 7c-2-4-4-9-7-12 38-15 69-40 79-63 17-5 35-18 46-34 13-20 20-56 1-73Zm-145 241-2-1c5-7 8-16 8-26s-1-21-3-31a47 47 0 0 1 8 30 12 12 0 0 0-2 11 12 12 0 0 0 1 16l-10 1Z"/><path fill="#3B8535" d="M1794 367a59 59 0 0 0-44-14c-7-120-82-187-181-219 94 31 107 9 109 7 16-35-93-88-86-68 6 16 49 27 38 36-9 8-47-11-130-5a282 282 0 0 0-250 249c-17 0-33 4-45 15-28 27-15 80 5 111 15 23 40 41 66 49 11 31 60 72 122 96a123 123 0 0 0-23 71l-2 5v11l4 12c3 7 8 11 13 13a19 19 0 0 0 22-29 19 19 0 0 0-4-19c1-18 9-34 17-45-7 21-8 35-8 49 0 21 10 43 27 58l-4 26-17 4a17 17 0 0 0-12 21 17 17 0 0 0 15 13l7-1c14-4 31-2 38 0a18 18 0 0 0 18-29l1-1v-12a77 77 0 0 0 19 0 145 145 0 0 1 2 14 17 17 0 0 0 18 28c7-2 24-4 38 0a18 18 0 0 0 10-33l-18-4c0-9-2-18-4-27l7-6a82 82 0 0 0 17 3c8 0 14-2 19-7l2-2h3l7-1c10-4 15-16 16-26v-11l-3-7v-1c1-11 0-23-4-35l13-13c14-10 25-10 33-9 7 1 13 4 19 9a32 32 0 0 1 10 36c-1 4-4 10-9 12-10 3-21-6-22-6a6 6 0 0 0-9 0 7 7 0 0 0-1 7l2 2c1 2 12 10 25 10l9-1c8-3 15-10 18-20 2-9 3-17 1-25-2-10-8-19-16-26-7-5-16-9-25-11-8-1-16 0-23 2s-14 6-20 10l-11 10-10-19c57-22 104-60 119-94 27-8 54-28 70-52 19-31 31-85 2-111Zm-221 365h-3c8-12 12-26 12-40 0-16-1-32-5-48a72 72 0 0 1 14 46 19 19 0 0 0-3 17 19 19 0 0 0 1 23c-4 3-9 3-16 2Zm1264-323a56 56 0 0 0-42-13c-6-114-77-176-170-207 88 29 101 9 102 6 16-33-88-83-81-64 5 16 46 26 36 34-9 8-45-10-123-5a267 267 0 0 0-236 236c-16 0-32 4-43 14-26 26-15 76 4 105 15 22 39 39 63 47 11 29 57 67 116 90a117 117 0 0 0-22 68l-2 4v10l3 12c3 6 8 10 13 12a18 18 0 0 0 20-27 18 18 0 0 0-4-18c2-17 9-33 17-43-6 20-8 33-8 47 0 20 10 40 26 54-2 8-3 17-3 25l-17 3a17 17 0 0 0 9 32c14-4 30-2 37 0a17 17 0 0 0 17-27v-2l1-11a75 75 0 0 0 18 0l1 12v1a17 17 0 0 0 17 27c7-2 23-4 36 0a17 17 0 1 0 10-32l-17-3-4-25 6-6a79 79 0 0 0 17 2c7 0 13-2 17-6l3-2a18 18 0 0 0 9-1c10-4 14-16 15-24v-11l-3-6v-2c1-10 0-21-4-32 4-5 8-9 13-12 13-10 24-11 30-9 7 1 13 3 19 8 4 3 9 8 10 16 2 6 1 12 0 18-2 4-4 9-10 11-9 3-20-5-20-6a6 6 0 0 0-8 10c2 1 12 9 24 9l8-1c8-3 14-10 17-19a45 45 0 0 0-14-48c-7-5-15-9-24-11-7-1-14 0-21 2s-13 5-19 10l-10 9-10-18c55-21 99-57 113-89 25-8 51-26 66-49 18-29 29-80 2-105Zm-209 345h-3c8-12 12-25 12-38 0-15-2-30-5-45 9 15 14 29 13 41v2l-1 1a18 18 0 0 0-2 16 18 18 0 0 0 1 22c-3 2-8 2-15 1Z"/></g><defs><clipPath id="a"><path fill="#fff" d="M0 0h3000v700H0z"/></clipPath></defs></svg>