<?xml version="1.0" encoding="UTF-8"?>
<!DOCTYPE svg PUBLIC "-//W3C//DTD SVG 1.1//EN" "http://www.w3.org/Graphics/SVG/1.1/DTD/svg11.dtd">
<svg xmlns="http://www.w3.org/2000/svg" version="1.1" width="1732px" height="500px" style="shape-rendering:geometricPrecision; text-rendering:geometricPrecision; image-rendering:optimizeQuality; fill-rule:evenodd; clip-rule:evenodd" xmlns:xlink="http://www.w3.org/1999/xlink">
<g><path style="opacity:0.975" fill="#010101" d="M 169.5,24.5 C 178.167,24.5 186.833,24.5 195.5,24.5C 195.5,28.5 195.5,32.5 195.5,36.5C 186.983,36.1739 178.65,36.5073 170.5,37.5C 170.5,50.1667 170.5,62.8333 170.5,75.5C 170.167,75.5 169.833,75.5 169.5,75.5C 165.233,75.203 161.066,75.5363 157,76.5C 156.5,84.8267 156.334,93.16 156.5,101.5C 152.167,101.5 147.833,101.5 143.5,101.5C 143.5,105.833 143.5,110.167 143.5,114.5C 148.167,114.5 152.833,114.5 157.5,114.5C 165.833,114.5 174.167,114.5 182.5,114.5C 182.5,118.833 182.5,123.167 182.5,127.5C 169.5,127.5 156.5,127.5 143.5,127.5C 143.5,140.167 143.5,152.833 143.5,165.5C 156.5,165.5 169.5,165.5 182.5,165.5C 182.5,169.833 182.5,174.167 182.5,178.5C 173.833,178.5 165.167,178.5 156.5,178.5C 152.167,178.5 147.833,178.5 143.5,178.5C 143.5,174.5 143.5,170.5 143.5,166.5C 139.167,166.5 134.833,166.5 130.5,166.5C 130.5,170.5 130.5,174.5 130.5,178.5C 134.97,179.486 139.637,179.819 144.5,179.5C 144.5,183.5 144.5,187.5 144.5,191.5C 143.515,195.634 143.182,199.968 143.5,204.5C 139.167,204.5 134.833,204.5 130.5,204.5C 130.5,221.5 130.5,238.5 130.5,255.5C 134.833,255.5 139.167,255.5 143.5,255.5C 143.5,268.5 143.5,281.5 143.5,294.5C 147.833,294.5 152.167,294.5 156.5,294.5C 156.5,303.167 156.5,311.833 156.5,320.5C 160.833,320.5 165.167,320.5 169.5,320.5C 169.5,324.833 169.5,329.167 169.5,333.5C 173.833,333.5 178.167,333.5 182.5,333.5C 182.334,337.514 182.501,341.514 183,345.5C 187.333,346.833 191.667,346.833 196,345.5C 196.499,341.514 196.666,337.514 196.5,333.5C 205.167,333.5 213.833,333.5 222.5,333.5C 222.5,299.167 222.5,264.833 222.5,230.5C 217.833,230.5 213.167,230.5 208.5,230.5C 208.5,230.167 208.5,229.833 208.5,229.5C 208.5,225.5 208.5,221.5 208.5,217.5C 212.846,217.666 217.179,217.499 221.5,217C 222.821,213.066 222.821,209.233 221.5,205.5C 200.006,204.503 178.34,204.169 156.5,204.5C 156.5,200.167 156.5,195.833 156.5,191.5C 178.5,191.5 200.5,191.5 222.5,191.5C 222.797,187.233 222.464,183.066 221.5,179C 213.173,178.5 204.84,178.334 196.5,178.5C 196.5,174.167 196.5,169.833 196.5,165.5C 209.5,165.5 222.5,165.5 235.5,165.5C 235.5,152.833 235.5,140.167 235.5,127.5C 222.5,127.5 209.5,127.5 196.5,127.5C 196.5,123.167 196.5,118.833 196.5,114.5C 200.5,114.5 204.5,114.5 208.5,114.5C 208.5,105.833 208.5,97.1667 208.5,88.5C 204.5,88.5 200.5,88.5 196.5,88.5C 196.5,71.1667 196.5,53.8333 196.5,36.5C 200.833,36.5 205.167,36.5 209.5,36.5C 209.5,49.5 209.5,62.5 209.5,75.5C 213.833,75.5 218.167,75.5 222.5,75.5C 222.333,88.1711 222.5,100.838 223,113.5C 227.066,114.464 231.233,114.797 235.5,114.5C 235.5,118.5 235.5,122.5 235.5,126.5C 239.5,126.5 243.5,126.5 247.5,126.5C 247.5,139.833 247.5,153.167 247.5,166.5C 243.5,166.5 239.5,166.5 235.5,166.5C 235.169,191.672 235.502,216.672 236.5,241.5C 239.087,242.816 242.087,243.483 245.5,243.5C 248.5,243.167 251.5,242.833 254.5,242.5C 254.376,241.893 254.043,241.56 253.5,241.5C 253.333,212.165 253.5,182.831 254,153.5C 255.665,143.998 260.831,137.164 269.5,133C 293.542,126.471 318.042,123.638 343,124.5C 365.312,123.768 387.145,126.601 408.5,133C 439.025,147.213 451.192,171.047 445,204.5C 443.735,212.898 441.235,220.898 437.5,228.5C 441.679,232.857 444.845,237.857 447,243.5C 457.667,210.167 468.333,176.833 479,143.5C 481.425,139.866 484.592,137.032 488.5,135C 498.607,131.845 508.941,129.845 519.5,129C 535.478,127.582 551.478,127.248 567.5,128C 577.195,128.782 585.695,132.282 593,138.5C 595.194,141.554 596.861,144.888 598,148.5C 606.511,177.546 615.178,206.546 624,235.5C 624.333,210.5 624.667,185.5 625,160.5C 626.46,151.086 631.293,143.919 639.5,139C 659.179,129.798 679.845,126.131 701.5,128C 713.292,129.476 722.126,135.309 728,145.5C 732.771,140.864 738.271,137.364 744.5,135C 766.555,126.418 788.888,125.418 811.5,132C 820.875,137.9 826.375,146.4 828,157.5C 828.333,182.5 828.667,207.5 829,232.5C 838.202,203.894 847.202,175.228 856,146.5C 858.443,140.182 862.943,136.015 869.5,134C 896.556,127.688 923.889,126.021 951.5,129C 961.95,130.302 969.783,135.468 975,144.5C 984,174.5 993,204.5 1002,234.5C 1002.33,207.833 1002.67,181.167 1003,154.5C 1003.96,145.23 1008.46,138.397 1016.5,134C 1023.65,131.379 1030.98,129.379 1038.5,128C 1071.84,123.466 1105.17,123.466 1138.5,128C 1156.84,130.669 1172.17,138.835 1184.5,152.5C 1186.61,143.11 1191.94,136.277 1200.5,132C 1205.75,130.353 1211.09,129.02 1216.5,128C 1256.17,127.333 1295.83,127.333 1335.5,128C 1340.4,128.869 1344.9,130.703 1349,133.5C 1352.61,130.514 1356.78,128.681 1361.5,128C 1409.83,127.333 1458.17,127.333 1506.5,128C 1511.96,128.259 1516.46,130.426 1520,134.5C 1523.11,139.171 1525.44,144.171 1527,149.5C 1539.27,137.112 1554.11,129.612 1571.5,127C 1604.73,122.593 1637.39,125.26 1669.5,135C 1682.91,139.722 1690.24,149.056 1691.5,163C 1690.05,178.294 1685.89,192.794 1679,206.5C 1676.19,211.143 1672.69,215.143 1668.5,218.5C 1690.47,237.702 1698.64,261.702 1693,290.5C 1687.25,316.25 1671.75,333.083 1646.5,341C 1603.66,351.59 1561.66,348.923 1520.5,333C 1509.47,327.139 1504.14,317.972 1504.5,305.5C 1505.44,293.285 1507.61,281.285 1511,269.5C 1513.66,259.169 1519.82,251.836 1529.5,247.5C 1523.15,240.118 1517.82,232.118 1513.5,223.5C 1510.33,226.051 1506.66,227.551 1502.5,228C 1496.84,228.499 1491.18,228.666 1485.5,228.5C 1485.67,260.168 1485.5,291.835 1485,323.5C 1483.96,329.75 1480.79,334.583 1475.5,338C 1471.32,339.796 1466.98,341.129 1462.5,342C 1439.12,346.293 1415.79,346.293 1392.5,342C 1384.97,338.472 1380.47,332.639 1379,324.5C 1378.5,292.502 1378.33,260.502 1378.5,228.5C 1369.02,229.06 1359.68,228.227 1350.5,226C 1349.67,225.167 1348.83,224.333 1348,223.5C 1348.09,234.32 1346.93,244.986 1344.5,255.5C 1347.14,258.927 1349.97,262.26 1353,265.5C 1356.95,274.401 1358.78,283.734 1358.5,293.5C 1358.92,308.228 1356.09,322.228 1350,335.5C 1345.77,340.864 1340.27,344.03 1333.5,345C 1291.8,345.96 1250.14,345.627 1208.5,344C 1195.27,342.486 1187.1,335.319 1184,322.5C 1170.09,334.365 1153.92,341.198 1135.5,343C 1128.2,344.02 1120.87,344.687 1113.5,345C 1087.17,345.667 1060.83,345.667 1034.5,345C 1026.43,344.61 1018.93,342.443 1012,338.5C 984.283,347.437 956.45,347.604 928.5,339C 923.42,336.549 919.253,333.049 916,328.5C 912.786,333.382 908.619,337.215 903.5,340C 874.964,348.007 846.798,346.84 819,336.5C 811.536,339.797 803.702,341.964 795.5,343C 781.216,344.864 766.882,345.53 752.5,345C 742.167,344.678 733.167,341.178 725.5,334.5C 722.963,336.267 720.297,337.767 717.5,339C 692.016,345.845 666.35,346.845 640.5,342C 638.064,341.07 635.731,339.903 633.5,338.5C 621.33,343.4 608.663,345.734 595.5,345.5C 581.245,345.52 567.245,343.686 553.5,340C 546.861,337.767 541.361,333.934 537,328.5C 533.542,334.163 528.708,338.329 522.5,341C 493.801,348.366 465.801,346.366 438.5,335C 435.114,332.737 432.281,329.903 430,326.5C 424.532,331.153 418.366,334.653 411.5,337C 401.03,340.227 390.363,342.561 379.5,344C 347.85,345.541 316.184,345.875 284.5,345C 271.756,345.445 262.256,340.279 256,329.5C 255.333,326.833 254.667,324.167 254,321.5C 253.5,299.836 253.333,278.169 253.5,256.5C 247.5,256.5 241.5,256.5 235.5,256.5C 235.168,294.67 235.501,332.67 236.5,370.5C 240.029,372.423 244.029,373.089 248.5,372.5C 248.5,380.833 248.5,389.167 248.5,397.5C 261.167,398.833 273.833,398.833 286.5,397.5C 286.833,397.5 287.167,397.5 287.5,397.5C 287.5,401.833 287.5,406.167 287.5,410.5C 274.323,410.171 261.323,410.505 248.5,411.5C 248.5,415.5 248.5,419.5 248.5,423.5C 244.366,424.485 240.032,424.818 235.5,424.5C 235.5,428.167 235.5,431.833 235.5,435.5C 235.5,435.833 235.5,436.167 235.5,436.5C 230.833,436.5 226.167,436.5 221.5,436.5C 222.411,427.874 222.745,419.208 222.5,410.5C 226.702,410.817 230.702,410.483 234.5,409.5C 234.5,401.5 234.5,393.5 234.5,385.5C 230.5,385.5 226.5,385.5 222.5,385.5C 222.666,377.16 222.5,368.827 222,360.5C 221.617,361.056 221.117,361.389 220.5,361.5C 204.008,360.503 187.342,360.17 170.5,360.5C 170.5,368.833 170.5,377.167 170.5,385.5C 165.968,385.182 161.634,385.515 157.5,386.5C 156.508,394.316 156.174,402.316 156.5,410.5C 143.5,410.5 130.5,410.5 117.5,410.5C 117.5,406.167 117.5,401.833 117.5,397.5C 125.984,396.507 134.651,396.174 143.5,396.5C 143.5,388.5 143.5,380.5 143.5,372.5C 147.767,372.797 151.934,372.464 156,371.5C 156.827,358.993 156.66,346.66 155.5,334.5C 151.5,334.5 147.5,334.5 143.5,334.5C 143.826,325.983 143.493,317.65 142.5,309.5C 138.971,307.577 134.971,306.911 130.5,307.5C 130.829,294.989 130.495,282.655 129.5,270.5C 125.298,270.817 121.298,270.483 117.5,269.5C 117.817,265.298 117.483,261.298 116.5,257.5C 103.677,256.505 90.6774,256.171 77.5,256.5C 77.5,252.5 77.5,248.5 77.5,244.5C 73.7016,243.517 69.7016,243.183 65.5,243.5C 65.815,239.629 65.4816,235.962 64.5,232.5C 60.7016,231.517 56.7016,231.183 52.5,231.5C 51.6561,227.901 51.3227,224.234 51.5,220.5C 51.5,220.167 51.5,219.833 51.5,219.5C 38.8763,217.519 25.8763,216.852 12.5,217.5C 12.8168,213.298 12.4834,209.298 11.5,205.5C 11.5,204.833 11.8333,204.5 12.5,204.5C 12.8333,204.5 13.1667,204.5 13.5,204.5C 21.8333,204.5 30.1667,204.5 38.5,204.5C 38.5,200.167 38.5,195.833 38.5,191.5C 43.1667,191.5 47.8333,191.5 52.5,191.5C 52.5,187.167 52.5,182.833 52.5,178.5C 47.8333,178.5 43.1667,178.5 38.5,178.5C 38.5,174.5 38.5,170.5 38.5,166.5C 30.0161,165.507 21.3494,165.174 12.5,165.5C 12.5,161.5 12.5,157.5 12.5,153.5C 21.5,153.5 30.5,153.5 39.5,153.5C 39.5,157.5 39.5,161.5 39.5,165.5C 48.1667,165.5 56.8333,165.5 65.5,165.5C 64.5146,182.756 64.1813,200.09 64.5,217.5C 69.5,217.5 74.5,217.5 79.5,217.5C 79.5,221.5 79.5,225.5 79.5,229.5C 83.5,229.5 87.5,229.5 91.5,229.5C 91.2,234.099 91.5333,238.599 92.5,243C 100.677,243.823 108.677,243.656 116.5,242.5C 117.499,204.004 117.832,165.337 117.5,126.5C 121.5,126.5 125.5,126.5 129.5,126.5C 130.495,114.011 130.829,101.344 130.5,88.5C 134.702,88.8168 138.702,88.4834 142.5,87.5C 143.493,79.0161 143.826,70.3494 143.5,61.5C 147.5,61.5 151.5,61.5 155.5,61.5C 155.5,53.1667 155.5,44.8333 155.5,36.5C 160.167,36.5 164.833,36.5 169.5,36.5C 169.5,32.5 169.5,28.5 169.5,24.5 Z"/></g>
<g><path style="opacity:1" fill="#9f9e1e" d="M 170.5,37.5 C 178.833,37.5 187.167,37.5 195.5,37.5C 195.5,45.8333 195.5,54.1667 195.5,62.5C 191.5,62.5 187.5,62.5 183.5,62.5C 183.5,66.8333 183.5,71.1667 183.5,75.5C 179.167,75.5 174.833,75.5 170.5,75.5C 170.5,62.8333 170.5,50.1667 170.5,37.5 Z"/></g>
<g><path style="opacity:1" fill="#7c7310" d="M 169.5,24.5 C 178.324,23.3427 187.324,23.176 196.5,24C 197.803,28.166 197.803,32.3326 196.5,36.5C 196.5,53.8333 196.5,71.1667 196.5,88.5C 195.515,84.3656 195.182,80.0323 195.5,75.5C 195.5,71.1667 195.5,66.8333 195.5,62.5C 195.5,54.1667 195.5,45.8333 195.5,37.5C 187.167,37.5 178.833,37.5 170.5,37.5C 178.65,36.5073 186.983,36.1739 195.5,36.5C 195.5,32.5 195.5,28.5 195.5,24.5C 186.833,24.5 178.167,24.5 169.5,24.5 Z"/></g>
<g><path style="opacity:1" fill="#d3d12b" d="M 195.5,62.5 C 195.5,66.8333 195.5,71.1667 195.5,75.5C 191.5,75.5 187.5,75.5 183.5,75.5C 183.5,71.1667 183.5,66.8333 183.5,62.5C 187.5,62.5 191.5,62.5 195.5,62.5 Z"/></g>
<g><path style="opacity:0.083" fill="#8c7b08" d="M 222.5,75.5 C 223.495,87.6554 223.829,99.9887 223.5,112.5C 227.971,111.911 231.971,112.577 235.5,114.5C 231.233,114.797 227.066,114.464 223,113.5C 222.5,100.838 222.333,88.1711 222.5,75.5 Z"/></g>
<g><path style="opacity:1" fill="#d2d02b" d="M 169.5,75.5 C 169.5,84.1667 169.5,92.8333 169.5,101.5C 165.167,101.5 160.833,101.5 156.5,101.5C 156.334,93.16 156.5,84.8267 157,76.5C 161.066,75.5363 165.233,75.203 169.5,75.5 Z"/></g>
<g><path style="opacity:1" fill="#fdfb37" d="M 169.5,75.5 C 169.833,75.5 170.167,75.5 170.5,75.5C 174.833,75.5 179.167,75.5 183.5,75.5C 187.5,75.5 191.5,75.5 195.5,75.5C 195.182,80.0323 195.515,84.3656 196.5,88.5C 200.5,88.5 204.5,88.5 208.5,88.5C 208.5,97.1667 208.5,105.833 208.5,114.5C 204.5,114.5 200.5,114.5 196.5,114.5C 195.517,118.298 195.183,122.298 195.5,126.5C 191.5,126.5 187.5,126.5 183.5,126.5C 183.817,122.298 183.483,118.298 182.5,114.5C 174.167,114.5 165.833,114.5 157.5,114.5C 156.564,110.265 156.231,105.931 156.5,101.5C 160.833,101.5 165.167,101.5 169.5,101.5C 169.5,92.8333 169.5,84.1667 169.5,75.5 Z"/></g>
<g><path style="opacity:0.161" fill="#554b05" d="M 142.5,87.5 C 138.702,88.4834 134.702,88.8168 130.5,88.5C 130.829,101.344 130.495,114.011 129.5,126.5C 129.5,113.5 129.5,100.5 129.5,87.5C 133.833,87.5 138.167,87.5 142.5,87.5 Z"/></g>
<g><path style="opacity:1" fill="#cbc829" d="M 156.5,101.5 C 156.231,105.931 156.564,110.265 157.5,114.5C 152.833,114.5 148.167,114.5 143.5,114.5C 143.5,110.167 143.5,105.833 143.5,101.5C 147.833,101.5 152.167,101.5 156.5,101.5 Z"/></g>
<g><path style="opacity:1" fill="#a6a11f" d="M 182.5,114.5 C 183.483,118.298 183.817,122.298 183.5,126.5C 187.5,126.5 191.5,126.5 195.5,126.5C 195.183,122.298 195.517,118.298 196.5,114.5C 196.5,118.833 196.5,123.167 196.5,127.5C 196.167,127.5 195.833,127.5 195.5,127.5C 191.5,127.5 187.5,127.5 183.5,127.5C 183.167,127.5 182.833,127.5 182.5,127.5C 182.5,123.167 182.5,118.833 182.5,114.5 Z"/></g>
<g><path style="opacity:1" fill="#f8f8f5" d="M 182.5,127.5 C 182.833,127.5 183.167,127.5 183.5,127.5C 183.5,140.167 183.5,152.833 183.5,165.5C 183.167,165.5 182.833,165.5 182.5,165.5C 169.5,165.5 156.5,165.5 143.5,165.5C 143.5,152.833 143.5,140.167 143.5,127.5C 156.5,127.5 169.5,127.5 182.5,127.5 Z"/></g>
<g><path style="opacity:1" fill="#020201" d="M 183.5,127.5 C 187.5,127.5 191.5,127.5 195.5,127.5C 195.5,140.167 195.5,152.833 195.5,165.5C 191.5,165.5 187.5,165.5 183.5,165.5C 183.5,152.833 183.5,140.167 183.5,127.5 Z"/></g>
<g><path style="opacity:1" fill="#faf9f6" d="M 195.5,127.5 C 195.833,127.5 196.167,127.5 196.5,127.5C 209.5,127.5 222.5,127.5 235.5,127.5C 235.5,140.167 235.5,152.833 235.5,165.5C 222.5,165.5 209.5,165.5 196.5,165.5C 196.167,165.5 195.833,165.5 195.5,165.5C 195.5,152.833 195.5,140.167 195.5,127.5 Z"/></g>
<g><path style="opacity:0.332" fill="#4e4405" d="M 247.5,126.5 C 248.83,132.798 249.497,139.465 249.5,146.5C 249.497,153.535 248.83,160.202 247.5,166.5C 247.5,153.167 247.5,139.833 247.5,126.5 Z"/></g>
<g><path style="opacity:0.008" fill="#b49f0c" d="M 117.5,126.5 C 117.832,165.337 117.499,204.004 116.5,242.5C 116.5,242.167 116.5,241.833 116.5,241.5C 115.34,203.571 115.173,165.571 116,127.5C 116.383,126.944 116.883,126.611 117.5,126.5 Z"/></g>
<g><path style="opacity:1" fill="#13120e" d="M 221.5,140.5 C 222.645,144.311 222.812,148.311 222,152.5C 217.733,153.822 213.566,153.822 209.5,152.5C 209.5,148.5 209.5,144.5 209.5,140.5C 213.5,140.5 217.5,140.5 221.5,140.5 Z"/></g>
<g><path style="opacity:1" fill="#666459" d="M 221.5,140.5 C 217.5,140.5 213.5,140.5 209.5,140.5C 209.5,144.5 209.5,148.5 209.5,152.5C 208.515,148.366 208.182,144.032 208.5,139.5C 213.032,139.182 217.366,139.515 221.5,140.5 Z"/></g>
<g><path style="opacity:1" fill="#fefefe" d="M 308.5,142.5 C 330.169,142.333 351.836,142.5 373.5,143C 387.123,143.57 399.79,147.237 411.5,154C 420.625,160.131 426.125,168.631 428,179.5C 428.786,189.207 428.453,198.874 427,208.5C 424.105,219.045 417.939,226.878 408.5,232C 422.551,236.05 431.051,245.216 434,259.5C 434.667,269.167 434.667,278.833 434,288.5C 429.706,305.462 419.206,316.629 402.5,322C 394.292,324.202 385.959,325.869 377.5,327C 344.5,327.667 311.5,327.667 278.5,327C 275.966,326.484 273.8,325.317 272,323.5C 271.333,266.5 271.333,209.5 272,152.5C 275.418,149.018 279.585,146.852 284.5,146C 292.626,144.673 300.626,143.506 308.5,142.5 Z"/></g>
<g><path style="opacity:1" fill="#fefefe" d="M 1057.5,142.5 C 1079.17,142.333 1100.84,142.5 1122.5,143C 1138.01,143.425 1152.01,148.091 1164.5,157C 1171.12,162.75 1175.29,169.917 1177,178.5C 1177.76,188.536 1177.42,198.536 1176,208.5C 1173.43,218.317 1167.93,225.984 1159.5,231.5C 1174.75,237.601 1182.91,248.934 1184,265.5C 1188.2,293.237 1177.37,312.071 1151.5,322C 1143.34,324.432 1135.01,326.099 1126.5,327C 1093.5,327.667 1060.5,327.667 1027.5,327C 1025.13,326.464 1023.13,325.297 1021.5,323.5C 1020.34,266.541 1020.17,209.541 1021,152.5C 1023.63,149.769 1026.79,147.936 1030.5,147C 1039.56,144.971 1048.56,143.471 1057.5,142.5 Z"/></g>
<g><path style="opacity:1" fill="#fdfdfd" d="M 1578.5,142.5 C 1606.28,140.555 1633.62,143.055 1660.5,150C 1665.38,151.355 1669.55,153.855 1673,157.5C 1674.21,172.557 1670.87,186.557 1663,199.5C 1661.17,201.333 1659.33,203.167 1657.5,205C 1656.17,205.667 1654.83,205.667 1653.5,205C 1638.69,197.037 1623.03,194.371 1606.5,197C 1599.83,201.333 1599.83,205.667 1606.5,210C 1615.45,213.154 1624.45,216.154 1633.5,219C 1645.22,223.608 1655.72,230.108 1665,238.5C 1678.09,255.825 1681.09,274.825 1674,295.5C 1665.85,312.832 1652.35,323.332 1633.5,327C 1601.46,332.58 1569.79,330.914 1538.5,322C 1531.86,320.107 1526.36,316.607 1522,311.5C 1521.51,298.133 1523.51,285.133 1528,272.5C 1529.12,269.751 1530.62,267.251 1532.5,265C 1534.83,264.333 1537.17,264.333 1539.5,265C 1552.86,270.01 1566.53,274.01 1580.5,277C 1586.5,277.667 1592.5,277.667 1598.5,277C 1604.76,272.833 1605.09,268.167 1599.5,263C 1588.1,258.866 1576.77,254.533 1565.5,250C 1535.46,237.751 1523.29,215.584 1529,183.5C 1533.96,164.537 1545.8,152.037 1564.5,146C 1569.3,144.801 1573.96,143.634 1578.5,142.5 Z"/></g>
<g><path style="opacity:1" fill="#fdfdfd" d="M 536.5,144.5 C 546.506,144.334 556.506,144.5 566.5,145C 572.169,145.42 577.002,147.587 581,151.5C 597.778,206.166 613.945,260.999 629.5,316C 629.481,319.033 628.148,321.367 625.5,323C 621.685,324.909 617.685,326.242 613.5,327C 597.801,327.862 582.134,327.529 566.5,326C 561.006,325.174 556.172,323.007 552,319.5C 550.79,313.244 549.956,306.911 549.5,300.5C 541.167,300.5 532.833,300.5 524.5,300.5C 524.861,306.593 524.361,312.593 523,318.5C 521.01,322.49 517.843,324.99 513.5,326C 496.833,328 480.167,328 463.5,326C 456.468,324.899 450.302,322.065 445,317.5C 444.833,316.5 444.667,315.5 444.5,314.5C 459.894,260.153 476.394,206.153 494,152.5C 497.336,149.831 501.169,148.331 505.5,148C 515.956,146.561 526.289,145.394 536.5,144.5 Z"/></g>
<g><path style="opacity:1" fill="#fefefe" d="M 679.5,144.5 C 686.508,144.334 693.508,144.5 700.5,145C 705.012,145.508 708.512,147.675 711,151.5C 720.393,175.011 729.393,198.677 738,222.5C 738.333,201.5 738.667,180.5 739,159.5C 744.482,153.503 751.315,149.67 759.5,148C 774.581,143.559 789.581,143.559 804.5,148C 806,149.5 807.5,151 809,152.5C 810.155,181.107 810.655,209.774 810.5,238.5C 810.498,266.404 810.165,294.238 809.5,322C 808.167,322.667 806.833,323.333 805.5,324C 785.976,327.322 766.309,328.322 746.5,327C 744.392,326.64 742.392,325.973 740.5,325C 731.593,303.349 723.093,281.515 715,259.5C 714.827,280.406 714.327,301.24 713.5,322C 710.637,323.399 707.637,324.399 704.5,325C 686.244,327.391 667.911,328.058 649.5,327C 646.966,326.484 644.8,325.317 643,323.5C 642.333,268.5 642.333,213.5 643,158.5C 646.236,155.129 650.069,152.629 654.5,151C 662.693,147.736 671.027,145.569 679.5,144.5 Z"/></g>
<g><path style="opacity:1" fill="#fdfdfd" d="M 914.5,144.5 C 926.547,144.135 938.547,144.635 950.5,146C 953.561,146.849 956.228,148.349 958.5,150.5C 975.861,205.776 992.528,261.276 1008.5,317C 1008.01,318.982 1007.01,320.649 1005.5,322C 1001.03,324.266 996.368,325.933 991.5,327C 974.409,328.126 957.409,327.459 940.5,325C 936.938,324.261 933.772,322.761 931,320.5C 928.926,314.014 927.759,307.347 927.5,300.5C 919.5,300.5 911.5,300.5 903.5,300.5C 903.431,306.964 902.597,313.297 901,319.5C 897.227,323.881 892.394,326.381 886.5,327C 870.07,328.138 853.737,327.471 837.5,325C 833.223,323.91 829.223,322.243 825.5,320C 823.955,318.178 823.288,316.011 823.5,313.5C 825.611,302.33 828.444,291.33 832,280.5C 845.337,237.822 858.671,195.156 872,152.5C 875.336,149.831 879.169,148.331 883.5,148C 893.956,146.561 904.289,145.394 914.5,144.5 Z"/></g>
<g><path style="opacity:1" fill="#fdfdfd" d="M 1274.5,196.5 C 1273.51,201.975 1273.18,207.642 1273.5,213.5C 1275.1,213.768 1276.43,213.434 1277.5,212.5C 1293.5,211.77 1309.5,211.604 1325.5,212C 1327.89,213.952 1329.39,216.452 1330,219.5C 1331.26,231.391 1330.26,243.058 1327,254.5C 1326.12,257.102 1324.62,259.269 1322.5,261C 1306.5,261.064 1290.5,260.898 1274.5,260.5C 1273.51,265.64 1273.18,270.974 1273.5,276.5C 1275.41,276.784 1277.08,276.451 1278.5,275.5C 1297.8,273.816 1317.14,272.983 1336.5,273C 1338.05,274.214 1339.22,275.714 1340,277.5C 1341.04,291.93 1340.37,306.264 1338,320.5C 1337.48,323.034 1336.32,325.2 1334.5,327C 1292.5,327.667 1250.5,327.667 1208.5,327C 1205.8,326.31 1203.64,324.81 1202,322.5C 1201.01,265.417 1201.34,208.417 1203,151.5C 1207.18,147.154 1212.34,144.987 1218.5,145C 1257.17,144.333 1295.83,144.333 1334.5,145C 1336.32,146.8 1337.48,148.966 1338,151.5C 1339.09,165.268 1338.42,178.935 1336,192.5C 1334.96,194.746 1333.79,196.913 1332.5,199C 1313.09,199.739 1293.75,198.906 1274.5,196.5 Z"/></g>
<g><path style="opacity:1" fill="#fcfcfc" d="M 1362.5,144.5 C 1410.17,144.333 1457.83,144.5 1505.5,145C 1507.05,146.214 1508.22,147.714 1509,149.5C 1510.91,164.151 1510.91,178.818 1509,193.5C 1508.37,200.209 1505.87,206.043 1501.5,211C 1490.51,211.5 1479.51,211.667 1468.5,211.5C 1468.83,248.506 1468.5,285.506 1467.5,322.5C 1453.16,326.765 1438.5,328.431 1423.5,327.5C 1416.17,327.333 1408.83,327.167 1401.5,327C 1399.41,326.208 1397.58,325.041 1396,323.5C 1395.5,286.168 1395.33,248.835 1395.5,211.5C 1383.5,211.667 1371.5,211.5 1359.5,211C 1356.13,207.557 1354.29,203.39 1354,198.5C 1353.33,187.833 1353.33,177.167 1354,166.5C 1354.6,158.189 1357.43,150.855 1362.5,144.5 Z"/></g>
<g><path style="opacity:0.365" fill="#675c07" d="M 39.5,153.5 C 30.5,153.5 21.5,153.5 12.5,153.5C 16.6139,152.174 21.1139,151.507 26,151.5C 30.8861,151.507 35.3861,152.174 39.5,153.5 Z"/></g>
<g><path style="opacity:1" fill="#403e2e" d="M 169.5,140.5 C 170.485,144.634 170.818,148.968 170.5,153.5C 165.833,153.5 161.167,153.5 156.5,153.5C 156.5,148.833 156.5,144.167 156.5,139.5C 161.032,139.182 165.366,139.515 169.5,140.5 Z"/></g>
<g><path style="opacity:1" fill="#000000" d="M 169.5,140.5 C 169.5,144.5 169.5,148.5 169.5,152.5C 165.5,152.5 161.5,152.5 157.5,152.5C 157.5,148.5 157.5,144.5 157.5,140.5C 161.5,140.5 165.5,140.5 169.5,140.5 Z"/></g>
<g><path style="opacity:0.466" fill="#554c07" d="M -0.5,165.5 C -0.166667,165.5 0.166667,165.5 0.5,165.5C 0.5,178.167 0.5,190.833 0.5,203.5C 4.5,203.5 8.5,203.5 12.5,203.5C 12.5,203.833 12.5,204.167 12.5,204.5C 11.8333,204.5 11.5,204.833 11.5,205.5C 7.5,205.5 3.5,205.5 -0.5,205.5C -0.5,192.167 -0.5,178.833 -0.5,165.5 Z"/></g>
<g><path style="opacity:0.986" fill="#040300" d="M 0.5,165.5 C 4.5,165.5 8.5,165.5 12.5,165.5C 12.5,178.167 12.5,190.833 12.5,203.5C 8.5,203.5 4.5,203.5 0.5,203.5C 0.5,190.833 0.5,178.167 0.5,165.5 Z"/></g>
<g><path style="opacity:1" fill="#938f1f" d="M 182.5,165.5 C 182.833,165.5 183.167,165.5 183.5,165.5C 187.5,165.5 191.5,165.5 195.5,165.5C 195.833,165.5 196.167,165.5 196.5,165.5C 196.5,169.833 196.5,174.167 196.5,178.5C 195.517,174.702 195.183,170.702 195.5,166.5C 191.5,166.5 187.5,166.5 183.5,166.5C 183.817,170.702 183.483,174.702 182.5,178.5C 182.5,174.167 182.5,169.833 182.5,165.5 Z"/></g>
<g><path style="opacity:1" fill="#fdfdfb" d="M 38.5,166.5 C 38.5,170.5 38.5,174.5 38.5,178.5C 43.1667,178.5 47.8333,178.5 52.5,178.5C 52.5,182.833 52.5,187.167 52.5,191.5C 47.8333,191.5 43.1667,191.5 38.5,191.5C 38.5,195.833 38.5,200.167 38.5,204.5C 30.1667,204.5 21.8333,204.5 13.5,204.5C 13.5,191.833 13.5,179.167 13.5,166.5C 21.8333,166.5 30.1667,166.5 38.5,166.5 Z"/></g>
<g><path style="opacity:0.808" fill="#4d450f" d="M 65.5,165.5 C 66.8306,182.236 66.8306,199.069 65.5,216C 70.3514,216.174 75.0181,216.674 79.5,217.5C 74.5,217.5 69.5,217.5 64.5,217.5C 64.1813,200.09 64.5146,182.756 65.5,165.5 Z"/></g>
<g><path style="opacity:0.999" fill="#7e7d7d" d="M 12.5,165.5 C 21.3494,165.174 30.0161,165.507 38.5,166.5C 30.1667,166.5 21.8333,166.5 13.5,166.5C 13.5,179.167 13.5,191.833 13.5,204.5C 13.1667,204.5 12.8333,204.5 12.5,204.5C 12.5,204.167 12.5,203.833 12.5,203.5C 12.5,190.833 12.5,178.167 12.5,165.5 Z"/></g>
<g><path style="opacity:1" fill="#faf836" d="M 196.5,178.5 C 204.84,178.334 213.173,178.5 221.5,179C 222.464,183.066 222.797,187.233 222.5,191.5C 200.5,191.5 178.5,191.5 156.5,191.5C 156.5,187.167 156.5,182.833 156.5,178.5C 165.167,178.5 173.833,178.5 182.5,178.5C 183.483,174.702 183.817,170.702 183.5,166.5C 187.5,166.5 191.5,166.5 195.5,166.5C 195.183,170.702 195.517,174.702 196.5,178.5 Z"/></g>
<g><path style="opacity:1" fill="#d8d52b" d="M 143.5,178.5 C 139.167,178.5 134.833,178.5 130.5,178.5C 130.5,174.5 130.5,170.5 130.5,166.5C 134.833,166.5 139.167,166.5 143.5,166.5C 143.5,170.5 143.5,174.5 143.5,178.5 Z"/></g>
<g><path style="opacity:1" fill="#c0c0c0" d="M 343.5,181.5 C 343.5,192.5 343.5,203.5 343.5,214.5C 346.5,214.5 349.5,214.5 352.5,214.5C 349.375,215.479 346.042,215.813 342.5,215.5C 342.172,203.988 342.505,192.654 343.5,181.5 Z"/></g>
<g><path style="opacity:1" fill="#010101" d="M 343.5,181.5 C 356.179,179.679 362.513,185.179 362.5,198C 362.579,203.637 360.912,208.637 357.5,213C 355.975,214.009 354.308,214.509 352.5,214.5C 349.5,214.5 346.5,214.5 343.5,214.5C 343.5,203.5 343.5,192.5 343.5,181.5 Z"/></g>
<g><path style="opacity:1" fill="#030303" d="M 1092.5,181.5 C 1105.46,179.288 1111.79,184.788 1111.5,198C 1112.03,211.306 1105.69,217.139 1092.5,215.5C 1092.5,204.167 1092.5,192.833 1092.5,181.5 Z"/></g>
<g><path style="opacity:1" fill="#9e9c1d" d="M 130.5,178.5 C 134.833,178.5 139.167,178.5 143.5,178.5C 147.833,178.5 152.167,178.5 156.5,178.5C 156.5,182.833 156.5,187.167 156.5,191.5C 152.5,191.5 148.5,191.5 144.5,191.5C 144.5,187.5 144.5,183.5 144.5,179.5C 139.637,179.819 134.97,179.486 130.5,178.5 Z"/></g>
<g><path style="opacity:1" fill="#696969" d="M 1274.5,196.5 C 1274.5,201.833 1274.5,207.167 1274.5,212.5C 1275.5,212.5 1276.5,212.5 1277.5,212.5C 1276.43,213.434 1275.1,213.768 1273.5,213.5C 1273.18,207.642 1273.51,201.975 1274.5,196.5 Z"/></g>
<g><path style="opacity:1" fill="#bb2913" d="M 144.5,191.5 C 148.5,191.5 152.5,191.5 156.5,191.5C 156.5,195.833 156.5,200.167 156.5,204.5C 152.5,204.5 148.5,204.5 144.5,204.5C 144.167,204.5 143.833,204.5 143.5,204.5C 143.182,199.968 143.515,195.634 144.5,191.5 Z"/></g>
<g><path style="opacity:1" fill="#fc0c1b" d="M 144.5,192.5 C 148.167,192.5 151.833,192.5 155.5,192.5C 155.5,196.167 155.5,199.833 155.5,203.5C 151.833,203.5 148.167,203.5 144.5,203.5C 144.5,199.833 144.5,196.167 144.5,192.5 Z"/></g>
<g><path style="opacity:1" fill="#b12211" d="M 156.5,204.5 C 178.34,204.169 200.006,204.503 221.5,205.5C 200.167,205.5 178.833,205.5 157.5,205.5C 157.5,209.167 157.5,212.833 157.5,216.5C 161.702,216.183 165.702,216.517 169.5,217.5C 165.5,217.5 161.5,217.5 157.5,217.5C 157.167,217.5 156.833,217.5 156.5,217.5C 156.5,217.167 156.5,216.833 156.5,216.5C 156.5,212.5 156.5,208.5 156.5,204.5 Z"/></g>
<g><path style="opacity:1" fill="#0c0500" d="M 144.5,204.5 C 148.5,204.5 152.5,204.5 156.5,204.5C 156.5,208.5 156.5,212.5 156.5,216.5C 152.5,216.5 148.5,216.5 144.5,216.5C 144.5,212.5 144.5,208.5 144.5,204.5 Z"/></g>
<g><path style="opacity:1" fill="#030303" d="M 535.5,205.5 C 537.144,205.286 538.644,205.62 540,206.5C 541.278,221.163 542.444,235.83 543.5,250.5C 539.154,250.666 534.821,250.499 530.5,250C 532.254,235.215 533.921,220.382 535.5,205.5 Z"/></g>
<g><path style="opacity:1" fill="#090909" d="M 921.5,245.5 C 921.5,247.167 921.5,248.833 921.5,250.5C 917.5,250.5 913.5,250.5 909.5,250.5C 909.5,249.5 909.5,248.5 909.5,247.5C 910.585,233.466 911.918,219.466 913.5,205.5C 915.167,205.5 916.833,205.5 918.5,205.5C 919.941,218.794 920.941,232.127 921.5,245.5 Z"/></g>
<g><path style="opacity:1" fill="#d1ce2a" d="M 143.5,204.5 C 143.5,208.833 143.5,213.167 143.5,217.5C 143.5,226.167 143.5,234.833 143.5,243.5C 147.833,243.5 152.167,243.5 156.5,243.5C 156.5,256.5 156.5,269.5 156.5,282.5C 160.833,282.5 165.167,282.5 169.5,282.5C 169.5,291.167 169.5,299.833 169.5,308.5C 173.833,308.5 178.167,308.5 182.5,308.5C 182.5,312.5 182.5,316.5 182.5,320.5C 186.833,320.5 191.167,320.5 195.5,320.5C 195.182,325.032 195.515,329.366 196.5,333.5C 196.666,337.514 196.499,341.514 196,345.5C 191.667,346.833 187.333,346.833 183,345.5C 182.501,341.514 182.334,337.514 182.5,333.5C 178.167,333.5 173.833,333.5 169.5,333.5C 169.5,329.167 169.5,324.833 169.5,320.5C 165.167,320.5 160.833,320.5 156.5,320.5C 156.5,311.833 156.5,303.167 156.5,294.5C 152.167,294.5 147.833,294.5 143.5,294.5C 143.5,281.5 143.5,268.5 143.5,255.5C 139.167,255.5 134.833,255.5 130.5,255.5C 130.5,238.5 130.5,221.5 130.5,204.5C 134.833,204.5 139.167,204.5 143.5,204.5 Z"/></g>
<g><path style="opacity:1" fill="#fa0f1a" d="M 221.5,205.5 C 222.821,209.233 222.821,213.066 221.5,217C 217.179,217.499 212.846,217.666 208.5,217.5C 208.5,221.5 208.5,225.5 208.5,229.5C 195.833,229.5 183.167,229.5 170.5,229.5C 170.817,225.298 170.483,221.298 169.5,217.5C 165.702,216.517 161.702,216.183 157.5,216.5C 157.5,212.833 157.5,209.167 157.5,205.5C 178.833,205.5 200.167,205.5 221.5,205.5 Z"/></g>
<g><path style="opacity:1" fill="#656112" d="M 143.5,204.5 C 143.833,204.5 144.167,204.5 144.5,204.5C 144.5,208.5 144.5,212.5 144.5,216.5C 148.5,216.5 152.5,216.5 156.5,216.5C 156.5,216.833 156.5,217.167 156.5,217.5C 152.167,217.5 147.833,217.5 143.5,217.5C 143.5,213.167 143.5,208.833 143.5,204.5 Z"/></g>
<g><path style="opacity:0.004" fill="#b59f0c" d="M 12.5,217.5 C 25.8763,216.852 38.8763,217.519 51.5,219.5C 38.8289,219.667 26.1623,219.5 13.5,219C 12.944,218.617 12.6107,218.117 12.5,217.5 Z"/></g>
<g><path style="opacity:1" fill="#040400" d="M 157.5,217.5 C 161.5,217.5 165.5,217.5 169.5,217.5C 169.5,221.5 169.5,225.5 169.5,229.5C 165.5,229.5 161.5,229.5 157.5,229.5C 157.5,225.5 157.5,221.5 157.5,217.5 Z"/></g>
<g><path style="opacity:0.008" fill="#b7a10c" d="M 51.5,220.5 C 51.3227,224.234 51.6561,227.901 52.5,231.5C 51.8826,231.389 51.3826,231.056 51,230.5C 50.1925,226.973 50.3592,223.64 51.5,220.5 Z"/></g>
<g><path style="opacity:1" fill="#fdfa37" d="M 143.5,217.5 C 147.833,217.5 152.167,217.5 156.5,217.5C 156.5,221.833 156.5,226.167 156.5,230.5C 160.833,230.5 165.167,230.5 169.5,230.5C 169.5,234.833 169.5,239.167 169.5,243.5C 182.677,243.829 195.677,243.495 208.5,242.5C 208.5,238.5 208.5,234.5 208.5,230.5C 213.167,230.5 217.833,230.5 222.5,230.5C 222.5,264.833 222.5,299.167 222.5,333.5C 213.833,333.5 205.167,333.5 196.5,333.5C 195.515,329.366 195.182,325.032 195.5,320.5C 191.167,320.5 186.833,320.5 182.5,320.5C 182.5,316.5 182.5,312.5 182.5,308.5C 178.167,308.5 173.833,308.5 169.5,308.5C 169.5,299.833 169.5,291.167 169.5,282.5C 165.167,282.5 160.833,282.5 156.5,282.5C 156.5,269.5 156.5,256.5 156.5,243.5C 152.167,243.5 147.833,243.5 143.5,243.5C 143.5,234.833 143.5,226.167 143.5,217.5 Z"/></g>
<g><path style="opacity:1" fill="#696512" d="M 156.5,217.5 C 156.833,217.5 157.167,217.5 157.5,217.5C 157.5,221.5 157.5,225.5 157.5,229.5C 161.5,229.5 165.5,229.5 169.5,229.5C 169.5,229.833 169.5,230.167 169.5,230.5C 165.167,230.5 160.833,230.5 156.5,230.5C 156.5,226.167 156.5,221.833 156.5,217.5 Z"/></g>
<g><path style="opacity:1" fill="#bb1c12" d="M 169.5,217.5 C 170.483,221.298 170.817,225.298 170.5,229.5C 183.167,229.5 195.833,229.5 208.5,229.5C 208.5,229.833 208.5,230.167 208.5,230.5C 195.833,230.5 183.167,230.5 170.5,230.5C 170.167,230.5 169.833,230.5 169.5,230.5C 169.5,230.167 169.5,229.833 169.5,229.5C 169.5,225.5 169.5,221.5 169.5,217.5 Z"/></g>
<g><path style="opacity:1" fill="#020100" d="M 170.5,230.5 C 183.167,230.5 195.833,230.5 208.5,230.5C 208.5,234.5 208.5,238.5 208.5,242.5C 195.833,242.5 183.167,242.5 170.5,242.5C 170.5,238.5 170.5,234.5 170.5,230.5 Z"/></g>
<g><path style="opacity:0.024" fill="#827308" d="M 91.5,229.5 C 92.4834,233.298 92.8168,237.298 92.5,241.5C 100.5,241.5 108.5,241.5 116.5,241.5C 116.5,241.833 116.5,242.167 116.5,242.5C 108.677,243.656 100.677,243.823 92.5,243C 91.5333,238.599 91.2,234.099 91.5,229.5 Z"/></g>
<g><path style="opacity:1" fill="#948d18" d="M 169.5,230.5 C 169.833,230.5 170.167,230.5 170.5,230.5C 170.5,234.5 170.5,238.5 170.5,242.5C 183.167,242.5 195.833,242.5 208.5,242.5C 195.677,243.495 182.677,243.829 169.5,243.5C 169.5,239.167 169.5,234.833 169.5,230.5 Z"/></g>
<g><path style="opacity:0.263" fill="#847408" d="M 236.5,241.5 C 242.167,241.5 247.833,241.5 253.5,241.5C 254.043,241.56 254.376,241.893 254.5,242.5C 251.5,242.833 248.5,243.167 245.5,243.5C 242.087,243.483 239.087,242.816 236.5,241.5 Z"/></g>
<g><path style="opacity:0.102" fill="#7b6c08" d="M 64.5,232.5 C 65.4816,235.962 65.815,239.629 65.5,243.5C 69.7016,243.183 73.7016,243.517 77.5,244.5C 73.1667,244.5 68.8333,244.5 64.5,244.5C 64.5,240.5 64.5,236.5 64.5,232.5 Z"/></g>
<g><path style="opacity:1" fill="#9d9d9d" d="M 921.5,245.5 C 922.461,247.265 922.795,249.265 922.5,251.5C 917.833,251.5 913.167,251.5 908.5,251.5C 908.232,249.901 908.566,248.568 909.5,247.5C 909.5,248.5 909.5,249.5 909.5,250.5C 913.5,250.5 917.5,250.5 921.5,250.5C 921.5,248.833 921.5,247.167 921.5,245.5 Z"/></g>
<g><path style="opacity:1" fill="#040404" d="M 343.5,254.5 C 356.669,252.834 363.002,258.667 362.5,272C 362.513,284.821 356.179,290.321 343.5,288.5C 343.5,277.167 343.5,265.833 343.5,254.5 Z"/></g>
<g><path style="opacity:1" fill="#030303" d="M 1092.5,254.5 C 1105.67,252.839 1112.01,258.673 1111.5,272C 1112.08,285.385 1105.75,290.885 1092.5,288.5C 1092.5,277.167 1092.5,265.833 1092.5,254.5 Z"/></g>
<g><path style="opacity:0.008" fill="#b7a10c" d="M 116.5,257.5 C 117.483,261.298 117.817,265.298 117.5,269.5C 116.206,267.952 115.539,265.952 115.5,263.5C 115.505,261.304 115.838,259.304 116.5,257.5 Z"/></g>
<g><path style="opacity:1" fill="#727272" d="M 1274.5,260.5 C 1274.5,265.5 1274.5,270.5 1274.5,275.5C 1275.83,275.5 1277.17,275.5 1278.5,275.5C 1277.08,276.451 1275.41,276.784 1273.5,276.5C 1273.18,270.974 1273.51,265.64 1274.5,260.5 Z"/></g>
<g><path style="opacity:0.16" fill="#605406" d="M 129.5,270.5 C 130.495,282.655 130.829,294.989 130.5,307.5C 134.971,306.911 138.971,307.577 142.5,309.5C 138.167,309.5 133.833,309.5 129.5,309.5C 129.5,296.5 129.5,283.5 129.5,270.5 Z"/></g>
<g><path style="opacity:0.109" fill="#857508" d="M 155.5,334.5 C 156.66,346.66 156.827,358.993 156,371.5C 151.934,372.464 147.767,372.797 143.5,372.5C 147.029,370.577 151.029,369.911 155.5,370.5C 155.5,358.5 155.5,346.5 155.5,334.5 Z"/></g>
<g><path style="opacity:0.309" fill="#827208" d="M 222.5,385.5 C 220.533,377.903 219.866,369.903 220.5,361.5C 221.117,361.389 221.617,361.056 222,360.5C 222.5,368.827 222.666,377.16 222.5,385.5 Z"/></g>
<g><path style="opacity:0.114" fill="#655806" d="M 236.5,370.5 C 240.833,370.5 245.167,370.5 249.5,370.5C 249.5,379.5 249.5,388.5 249.5,397.5C 249.167,397.5 248.833,397.5 248.5,397.5C 248.5,389.167 248.5,380.833 248.5,372.5C 244.029,373.089 240.029,372.423 236.5,370.5 Z"/></g>
<g><path style="opacity:0.024" fill="#817208" d="M 157.5,386.5 C 158.812,394.068 158.812,401.735 157.5,409.5C 157.5,410.167 157.167,410.5 156.5,410.5C 156.174,402.316 156.508,394.316 157.5,386.5 Z"/></g>
<g><path style="opacity:0.607" fill="#574d0b" d="M 286.5,397.5 C 273.833,398.833 261.167,398.833 248.5,397.5C 248.833,397.5 249.167,397.5 249.5,397.5C 261.931,396.18 274.265,396.18 286.5,397.5 Z"/></g>
<g><path style="opacity:0.064" fill="#baa30c" d="M 117.5,397.5 C 117.5,401.833 117.5,406.167 117.5,410.5C 116.833,410.5 116.5,410.167 116.5,409.5C 115.411,405.922 115.245,402.255 116,398.5C 116.383,397.944 116.883,397.611 117.5,397.5 Z"/></g>
<g><path style="opacity:0.463" fill="#4f4505" d="M 92.5,409.5 C 100.5,409.5 108.5,409.5 116.5,409.5C 116.5,410.167 116.833,410.5 117.5,410.5C 117.5,410.833 117.5,411.167 117.5,411.5C 109.167,411.5 100.833,411.5 92.5,411.5C 92.5,410.833 92.5,410.167 92.5,409.5 Z"/></g>
<g><path style="opacity:0.463" fill="#534b17" d="M 157.5,409.5 C 166.167,409.5 174.833,409.5 183.5,409.5C 183.5,418.5 183.5,427.5 183.5,436.5C 178.833,436.5 174.167,436.5 169.5,436.5C 169.5,436.167 169.5,435.833 169.5,435.5C 169.833,435.5 170.167,435.5 170.5,435.5C 174.5,435.5 178.5,435.5 182.5,435.5C 182.815,427.58 182.482,419.747 181.5,412C 173.507,411.5 165.507,411.334 157.5,411.5C 157.5,415.5 157.5,419.5 157.5,423.5C 157.167,423.5 156.833,423.5 156.5,423.5C 156.5,419.5 156.5,415.5 156.5,411.5C 143.5,411.5 130.5,411.5 117.5,411.5C 117.5,411.167 117.5,410.833 117.5,410.5C 130.5,410.5 143.5,410.5 156.5,410.5C 157.167,410.5 157.5,410.167 157.5,409.5 Z"/></g>
<g><path style="opacity:1" fill="#dedbc5" d="M 117.5,411.5 C 130.5,411.5 143.5,411.5 156.5,411.5C 156.5,415.5 156.5,419.5 156.5,423.5C 155.518,420.038 155.185,416.371 155.5,412.5C 143.167,412.5 130.833,412.5 118.5,412.5C 118.815,416.371 118.482,420.038 117.5,423.5C 117.5,419.5 117.5,415.5 117.5,411.5 Z"/></g>
<g><path style="opacity:1" fill="#e5e2cc" d="M 248.5,411.5 C 261.5,411.5 274.5,411.5 287.5,411.5C 287.5,415.5 287.5,419.5 287.5,423.5C 286.518,420.038 286.185,416.371 286.5,412.5C 274.167,412.5 261.833,412.5 249.5,412.5C 249.815,416.371 249.482,420.038 248.5,423.5C 248.5,419.5 248.5,415.5 248.5,411.5 Z"/></g>
<g><path style="opacity:0.985" fill="#070501" d="M 92.5,411.5 C 100.833,411.5 109.167,411.5 117.5,411.5C 117.5,415.5 117.5,419.5 117.5,423.5C 113.167,423.5 108.833,423.5 104.5,423.5C 104.5,427.833 104.5,432.167 104.5,436.5C 126.167,436.5 147.833,436.5 169.5,436.5C 169.328,437.492 169.662,438.158 170.5,438.5C 170.5,442.167 170.5,445.833 170.5,449.5C 144.5,449.5 118.5,449.5 92.5,449.5C 92.5,436.833 92.5,424.167 92.5,411.5 Z"/></g>
<g><path style="opacity:1" fill="#fefefe" d="M 156.5,423.5 C 160.634,424.485 164.968,424.818 169.5,424.5C 169.5,428.167 169.5,431.833 169.5,435.5C 148.167,435.5 126.833,435.5 105.5,435.5C 105.5,431.833 105.5,428.167 105.5,424.5C 109.702,424.817 113.702,424.483 117.5,423.5C 118.482,420.038 118.815,416.371 118.5,412.5C 130.833,412.5 143.167,412.5 155.5,412.5C 155.185,416.371 155.518,420.038 156.5,423.5 Z"/></g>
<g><path style="opacity:1" fill="#060400" d="M 170.5,435.5 C 170.5,431.5 170.5,427.5 170.5,423.5C 166.167,423.5 161.833,423.5 157.5,423.5C 157.5,419.5 157.5,415.5 157.5,411.5C 165.507,411.334 173.507,411.5 181.5,412C 182.482,419.747 182.815,427.58 182.5,435.5C 178.5,435.5 174.5,435.5 170.5,435.5 Z"/></g>
<g><path style="opacity:1" fill="#fefefe" d="M 287.5,423.5 C 291.298,424.483 295.298,424.817 299.5,424.5C 299.5,428.167 299.5,431.833 299.5,435.5C 278.167,435.5 256.833,435.5 235.5,435.5C 235.5,431.833 235.5,428.167 235.5,424.5C 240.032,424.818 244.366,424.485 248.5,423.5C 249.482,420.038 249.815,416.371 249.5,412.5C 261.833,412.5 274.167,412.5 286.5,412.5C 286.185,416.371 286.518,420.038 287.5,423.5 Z"/></g>
<g><path style="opacity:0.991" fill="#010100" d="M 312.5,449.5 C 286.5,449.5 260.5,449.5 234.5,449.5C 234.5,445.833 234.5,442.167 234.5,438.5C 256.598,437.844 278.598,437.177 300.5,436.5C 300.5,432.167 300.5,427.833 300.5,423.5C 296.702,422.517 292.702,422.183 288.5,422.5C 288.5,418.833 288.5,415.167 288.5,411.5C 296.5,411.5 304.5,411.5 312.5,411.5C 312.5,424.167 312.5,436.833 312.5,449.5 Z"/></g>
<g><path style="opacity:0.197" fill="#746607" d="M 92.5,409.5 C 92.5,410.167 92.5,410.833 92.5,411.5C 92.5,424.167 92.5,436.833 92.5,449.5C 91.1699,443.202 90.5032,436.535 90.5,429.5C 90.5032,422.465 91.1699,415.798 92.5,409.5 Z"/></g>
<g><path style="opacity:0.047" fill="#837523" d="M 234.5,409.5 C 230.702,410.483 226.702,410.817 222.5,410.5C 222.745,419.208 222.411,427.874 221.5,436.5C 226.167,436.5 230.833,436.5 235.5,436.5C 257.167,436.5 278.833,436.5 300.5,436.5C 278.598,437.177 256.598,437.844 234.5,438.5C 230.098,438.772 225.765,438.439 221.5,437.5C 220.502,428.19 220.168,418.857 220.5,409.5C 225.167,409.5 229.833,409.5 234.5,409.5 Z"/></g>
<g><path style="opacity:0.189" fill="#5e5414" d="M 287.5,397.5 C 288.483,401.298 288.817,405.298 288.5,409.5C 297.167,409.5 305.833,409.5 314.5,409.5C 315.148,423.209 314.481,436.542 312.5,449.5C 312.5,436.833 312.5,424.167 312.5,411.5C 304.5,411.5 296.5,411.5 288.5,411.5C 288.5,415.167 288.5,418.833 288.5,422.5C 292.702,422.183 296.702,422.517 300.5,423.5C 296.167,423.5 291.833,423.5 287.5,423.5C 287.5,419.5 287.5,415.5 287.5,411.5C 274.5,411.5 261.5,411.5 248.5,411.5C 261.323,410.505 274.323,410.171 287.5,410.5C 287.5,406.167 287.5,401.833 287.5,397.5 Z"/></g>
<g><path style="opacity:1" fill="#6e6b5b" d="M 156.5,423.5 C 156.833,423.5 157.167,423.5 157.5,423.5C 161.833,423.5 166.167,423.5 170.5,423.5C 170.5,427.5 170.5,431.5 170.5,435.5C 170.167,435.5 169.833,435.5 169.5,435.5C 169.5,431.833 169.5,428.167 169.5,424.5C 164.968,424.818 160.634,424.485 156.5,423.5 Z"/></g>
<g><path style="opacity:1" fill="#c4c0a7" d="M 117.5,423.5 C 113.702,424.483 109.702,424.817 105.5,424.5C 105.5,428.167 105.5,431.833 105.5,435.5C 126.833,435.5 148.167,435.5 169.5,435.5C 169.5,435.833 169.5,436.167 169.5,436.5C 147.833,436.5 126.167,436.5 104.5,436.5C 104.5,432.167 104.5,427.833 104.5,423.5C 108.833,423.5 113.167,423.5 117.5,423.5 Z"/></g>
<g><path style="opacity:1" fill="#ddd9c3" d="M 287.5,423.5 C 291.833,423.5 296.167,423.5 300.5,423.5C 300.5,427.833 300.5,432.167 300.5,436.5C 278.833,436.5 257.167,436.5 235.5,436.5C 235.5,436.167 235.5,435.833 235.5,435.5C 256.833,435.5 278.167,435.5 299.5,435.5C 299.5,431.833 299.5,428.167 299.5,424.5C 295.298,424.817 291.298,424.483 287.5,423.5 Z"/></g>
<g><path style="opacity:0.012" fill="#9c8a0b" d="M 169.5,436.5 C 174.167,436.5 178.833,436.5 183.5,436.5C 179.627,438.43 175.294,439.097 170.5,438.5C 169.662,438.158 169.328,437.492 169.5,436.5 Z"/></g>
</svg>
