<?xml version="1.0" encoding="UTF-8"?>
<!DOCTYPE svg PUBLIC "-//W3C//DTD SVG 1.1//EN" "http://www.w3.org/Graphics/SVG/1.1/DTD/svg11.dtd">
<svg xmlns="http://www.w3.org/2000/svg" version="1.1" width="1732px" height="500px" style="shape-rendering:geometricPrecision; text-rendering:geometricPrecision; image-rendering:optimizeQuality; fill-rule:evenodd; clip-rule:evenodd" xmlns:xlink="http://www.w3.org/1999/xlink">
<g><path style="opacity:1" fill="#010100" d="M 177.5,83.5 C 183.833,83.5 190.167,83.5 196.5,83.5C 196.5,86.5 196.5,89.5 196.5,92.5C 190.167,92.5 183.833,92.5 177.5,92.5C 177.5,89.5 177.5,86.5 177.5,83.5 Z"/></g>
<g><path style="opacity:0.96" fill="#010101" d="M 177.5,92.5 C 177.5,101.833 177.5,111.167 177.5,120.5C 177.5,120.833 177.5,121.167 177.5,121.5C 174.167,121.5 170.833,121.5 167.5,121.5C 167.5,127.833 167.5,134.167 167.5,140.5C 164.5,140.5 161.5,140.5 158.5,140.5C 158.5,143.833 158.5,147.167 158.5,150.5C 167.833,150.5 177.167,150.5 186.5,150.5C 186.5,153.5 186.5,156.5 186.5,159.5C 177.167,159.5 167.833,159.5 158.5,159.5C 158.5,169.167 158.5,178.833 158.5,188.5C 155.167,188.5 151.833,188.5 148.5,188.5C 148.5,191.833 148.5,195.167 148.5,198.5C 151.833,198.5 155.167,198.5 158.5,198.5C 158.5,201.5 158.5,204.5 158.5,207.5C 158.5,210.5 158.5,213.5 158.5,216.5C 155.167,216.5 151.833,216.5 148.5,216.5C 148.5,229.5 148.5,242.5 148.5,255.5C 151.287,256.477 154.287,256.81 157.5,256.5C 157.173,266.015 157.506,275.348 158.5,284.5C 161.5,284.5 164.5,284.5 167.5,284.5C 167.5,290.833 167.5,297.167 167.5,303.5C 170.833,303.5 174.167,303.5 177.5,303.5C 177.5,306.833 177.5,310.167 177.5,313.5C 180.5,313.5 183.5,313.5 186.5,313.5C 184.341,323.16 187.841,326.16 197,322.5C 197.498,319.518 197.665,316.518 197.5,313.5C 203.833,313.5 210.167,313.5 216.5,313.5C 216.831,287.661 216.498,261.995 215.5,236.5C 212.5,236.5 209.5,236.5 206.5,236.5C 206.5,233.167 206.5,229.833 206.5,226.5C 209.5,226.5 212.5,226.5 215.5,226.5C 215.5,223.5 215.5,220.5 215.5,217.5C 200.009,216.504 184.342,216.17 168.5,216.5C 168.5,213.833 168.5,211.167 168.5,208.5C 184.342,208.83 200.009,208.496 215.5,207.5C 216.479,204.375 216.813,201.042 216.5,197.5C 210.167,197.5 203.833,197.5 197.5,197.5C 197.5,194.5 197.5,191.5 197.5,188.5C 206.833,188.5 216.167,188.5 225.5,188.5C 225.5,207.5 225.5,226.5 225.5,245.5C 231.833,245.5 238.167,245.5 244.5,245.5C 244.028,220.102 244.528,194.769 246,169.5C 247.833,166.333 250.333,163.833 253.5,162C 263.522,158.425 273.856,156.425 284.5,156C 304.528,155.118 324.528,155.452 344.5,157C 385.793,165.059 399.626,189.226 386,229.5C 385.208,231.587 384.041,233.421 382.5,235C 389.883,241.457 394.05,249.624 395,259.5C 404.333,229.5 413.667,199.5 423,169.5C 424.046,167.91 425.213,166.41 426.5,165C 437.002,160.45 448.002,158.117 459.5,158C 470.5,157.333 481.5,157.333 492.5,158C 500.567,158.339 506.734,161.839 511,168.5C 520.822,200.788 530.489,233.121 540,265.5C 540.023,235.106 540.69,204.772 542,174.5C 544.946,169.555 549.112,166.055 554.5,164C 571.116,157.194 588.116,155.861 605.5,160C 611.911,163.306 616.078,168.472 618,175.5C 620.5,171.667 623.667,168.5 627.5,166C 646.711,156.524 666.378,155.191 686.5,162C 690.734,165.639 693.568,170.139 695,175.5C 695.333,204.167 695.667,232.833 696,261.5C 705.465,230.772 715.131,200.105 725,169.5C 726.122,167.376 727.622,165.543 729.5,164C 739.83,160.333 750.497,158.333 761.5,158C 772.5,157.333 783.5,157.333 794.5,158C 803.037,158.234 809.203,162.067 813,169.5C 822.488,200.454 831.822,231.454 841,262.5C 841.333,233.5 841.667,204.5 842,175.5C 842.844,169.296 846.01,164.796 851.5,162C 861.518,158.386 871.851,156.386 882.5,156C 899.5,155.333 916.5,155.333 933.5,156C 948.105,156.646 961.438,160.98 973.5,169C 979.711,174.207 983.878,180.707 986,188.5C 983.284,171.036 990.451,160.87 1007.5,158C 1039.83,157.333 1072.17,157.333 1104.5,158C 1108.84,159.01 1112.01,161.51 1114,165.5C 1116.12,161.687 1119.29,159.187 1123.5,158C 1162.83,157.333 1202.17,157.333 1241.5,158C 1245.19,159.089 1248.02,161.255 1250,164.5C 1252.22,169.942 1253.56,175.608 1254,181.5C 1259.61,172.232 1267.44,165.398 1277.5,161C 1289.8,156.672 1302.47,154.839 1315.5,155.5C 1333.58,155.154 1351.24,157.654 1368.5,163C 1378.08,166.074 1383.41,172.574 1384.5,182.5C 1383.02,195.779 1378.85,208.112 1372,219.5C 1369.44,222.531 1366.27,224.698 1362.5,226C 1378.09,236.632 1386.59,251.465 1388,270.5C 1402.83,261.765 1417.99,261.265 1433.5,269C 1435.33,270.833 1437.17,272.667 1439,274.5C 1439.33,242.167 1439.67,209.833 1440,177.5C 1440.96,173.532 1443.13,170.365 1446.5,168C 1466,156.908 1486.33,154.574 1507.5,161C 1511.39,163.222 1514.22,166.388 1516,170.5C 1517.21,179.106 1517.88,187.773 1518,196.5C 1525.23,180.941 1536.73,169.775 1552.5,163C 1579.71,153.361 1607.04,153.028 1634.5,162C 1658.04,172.553 1671.21,190.72 1674,216.5C 1683.07,296.092 1647.91,331.925 1568.5,324C 1545.42,320.232 1528.58,308.065 1518,287.5C 1517.88,296.56 1517.22,305.56 1516,314.5C 1514.5,316 1513,317.5 1511.5,319C 1492.11,324.158 1472.44,325.492 1452.5,323C 1446.18,321.941 1442.01,318.441 1440,312.5C 1437.5,316.333 1434.33,319.5 1430.5,322C 1421.42,325.85 1412.09,326.85 1402.5,325C 1388.46,322.294 1380.63,313.794 1379,299.5C 1369.42,313.883 1355.92,322.05 1338.5,324C 1313.18,327.596 1288.18,325.929 1263.5,319C 1243.13,313.425 1236.63,300.591 1244,280.5C 1245.26,273.128 1247.59,266.128 1251,259.5C 1255.59,253.75 1261.42,251.583 1268.5,253C 1257.55,245.608 1250.72,235.442 1248,222.5C 1246.08,226.085 1243.25,228.585 1239.5,230C 1233.24,231.317 1226.91,231.817 1220.5,231.5C 1220.67,257.169 1220.5,282.835 1220,308.5C 1217.9,316.914 1212.4,321.414 1203.5,322C 1189.56,323.996 1175.56,324.662 1161.5,324C 1151.78,324.57 1145.28,320.403 1142,311.5C 1141.5,284.835 1141.33,258.169 1141.5,231.5C 1133,232.066 1124.67,231.233 1116.5,229C 1113.12,225.731 1110.62,221.897 1109,217.5C 1108.13,218.108 1107.63,218.941 1107.5,220C 1109.2,225.025 1110.2,230.191 1110.5,235.5C 1110.04,243.991 1108.71,252.325 1106.5,260.5C 1112.48,261.653 1115.98,265.319 1117,271.5C 1119.61,286.408 1118.61,301.075 1114,315.5C 1111.45,320.714 1107.29,323.547 1101.5,324C 1068.13,324.957 1034.8,324.624 1001.5,323C 993.722,322.201 988.889,318.035 987,310.5C 986.667,306.833 986.333,303.167 986,299.5C 981.722,307.111 975.555,312.611 967.5,316C 954.641,320.972 941.308,323.638 927.5,324C 905.833,324.667 884.167,324.667 862.5,324C 856.136,323.874 850.636,321.708 846,317.5C 839.393,321.28 832.226,323.447 824.5,324C 809.168,325.14 794.168,323.473 779.5,319C 772.79,315.609 769.29,310.109 769,302.5C 768.005,311.357 763.505,317.524 755.5,321C 733.648,326.548 712.314,325.048 691.5,316.5C 686.929,319.397 681.929,321.23 676.5,322C 663.883,323.791 651.216,324.458 638.5,324C 633.284,323.446 628.284,322.113 623.5,320C 620.865,318.039 619.031,315.539 618,312.5C 616.437,315.728 613.937,317.895 610.5,319C 594.445,323.255 578.112,324.922 561.5,324C 554.875,323.794 549.041,321.627 544,317.5C 541.228,319.761 538.062,321.261 534.5,322C 515.247,325.764 496.247,324.764 477.5,319C 470.849,315.536 467.349,310.036 467,302.5C 465.513,314.653 458.68,321.487 446.5,323C 431.372,325.267 416.372,324.6 401.5,321C 392.536,319.616 386.37,314.782 383,306.5C 373.592,315.285 362.425,320.452 349.5,322C 332.398,323.971 315.231,324.804 298,324.5C 287.167,324.333 276.333,324.167 265.5,324C 258.886,323.729 253.053,321.563 248,317.5C 246.249,315.51 245.249,313.177 245,310.5C 244.5,292.17 244.333,273.836 244.5,255.5C 238.242,255.19 232.076,255.524 226,256.5C 225.5,284.831 225.333,313.165 225.5,341.5C 228.287,342.477 231.287,342.81 234.5,342.5C 234.5,348.833 234.5,355.167 234.5,361.5C 244.167,361.5 253.833,361.5 263.5,361.5C 263.5,364.5 263.5,367.5 263.5,370.5C 253.985,370.173 244.652,370.506 235.5,371.5C 235.5,374.5 235.5,377.5 235.5,380.5C 232.167,380.5 228.833,380.5 225.5,380.5C 225.5,383.5 225.5,386.5 225.5,389.5C 222.5,389.5 219.5,389.5 216.5,389.5C 216.5,383.5 216.5,377.5 216.5,371.5C 219.713,371.81 222.713,371.477 225.5,370.5C 225.5,364.167 225.5,357.833 225.5,351.5C 222.167,351.5 218.833,351.5 215.5,351.5C 215.5,345.167 215.5,338.833 215.5,332.5C 202.833,332.5 190.167,332.5 177.5,332.5C 177.5,338.833 177.5,345.167 177.5,351.5C 174.5,351.5 171.5,351.5 168.5,351.5C 167.51,357.645 167.177,363.978 167.5,370.5C 158.167,370.5 148.833,370.5 139.5,370.5C 139.5,367.5 139.5,364.5 139.5,361.5C 145.645,360.51 151.978,360.177 158.5,360.5C 158.5,354.5 158.5,348.5 158.5,342.5C 161.833,342.5 165.167,342.5 168.5,342.5C 168.827,332.652 168.494,322.986 167.5,313.5C 164.5,313.5 161.5,313.5 158.5,313.5C 158.5,307.167 158.5,300.833 158.5,294.5C 155.713,293.523 152.713,293.19 149.5,293.5C 149.827,283.985 149.494,274.652 148.5,265.5C 145.167,265.5 141.833,265.5 138.5,265.5C 138.5,262.167 138.5,258.833 138.5,255.5C 129.167,255.5 119.833,255.5 110.5,255.5C 110.5,252.5 110.5,249.5 110.5,246.5C 107.713,245.523 104.713,245.19 101.5,245.5C 101.81,242.287 101.477,239.287 100.5,236.5C 97.5,236.5 94.5,236.5 91.5,236.5C 91.5,233.167 91.5,229.833 91.5,226.5C 81.8333,226.5 72.1667,226.5 62.5,226.5C 62.5,223.5 62.5,220.5 62.5,217.5C 68.8333,217.5 75.1667,217.5 81.5,217.5C 81.5,214.167 81.5,210.833 81.5,207.5C 84.8333,207.5 88.1667,207.5 91.5,207.5C 91.5,204.167 91.5,200.833 91.5,197.5C 88.1667,197.5 84.8333,197.5 81.5,197.5C 81.5,194.5 81.5,191.5 81.5,188.5C 88.1667,188.5 94.8333,188.5 101.5,188.5C 101.5,201.167 101.5,213.833 101.5,226.5C 104.5,226.5 107.5,226.5 110.5,226.5C 110.5,229.833 110.5,233.167 110.5,236.5C 113.5,236.5 116.5,236.5 119.5,236.5C 119.5,239.833 119.5,243.167 119.5,246.5C 126.167,246.5 132.833,246.5 139.5,246.5C 139.5,217.5 139.5,188.5 139.5,159.5C 142.5,159.5 145.5,159.5 148.5,159.5C 149.494,150.348 149.827,141.015 149.5,131.5C 152.713,131.81 155.713,131.477 158.5,130.5C 158.5,124.167 158.5,117.833 158.5,111.5C 161.5,111.5 164.5,111.5 167.5,111.5C 167.5,105.167 167.5,98.8333 167.5,92.5C 170.833,92.5 174.167,92.5 177.5,92.5 Z M 1592.5,214.5 C 1594.99,231.655 1595.16,248.988 1593,266.5C 1589.84,249.196 1589.67,231.863 1592.5,214.5 Z M 985.5,222.5 C 986.653,228.653 986.82,234.986 986,241.5C 984.357,239.023 982.524,236.69 980.5,234.5C 983.272,230.957 984.939,226.957 985.5,222.5 Z"/></g>
<g><path style="opacity:1" fill="#9d9c1d" d="M 177.5,92.5 C 183.833,92.5 190.167,92.5 196.5,92.5C 196.5,98.8333 196.5,105.167 196.5,111.5C 193.167,111.5 189.833,111.5 186.5,111.5C 186.5,114.5 186.5,117.5 186.5,120.5C 183.5,120.5 180.5,120.5 177.5,120.5C 177.5,111.167 177.5,101.833 177.5,92.5 Z"/></g>
<g><path style="opacity:0.972" fill="#73690c" d="M 177.5,83.5 C 183.979,82.5093 190.646,82.176 197.5,82.5C 197.5,85.8333 197.5,89.1667 197.5,92.5C 197.5,105.167 197.5,117.833 197.5,130.5C 196.523,127.713 196.19,124.713 196.5,121.5C 196.5,118.167 196.5,114.833 196.5,111.5C 196.5,105.167 196.5,98.8333 196.5,92.5C 196.5,89.5 196.5,86.5 196.5,83.5C 190.167,83.5 183.833,83.5 177.5,83.5 Z"/></g>
<g><path style="opacity:0.997" fill="#040300" d="M 197.5,92.5 C 200.5,92.5 203.5,92.5 206.5,92.5C 206.5,101.833 206.5,111.167 206.5,120.5C 209.713,120.19 212.713,120.523 215.5,121.5C 215.5,131.167 215.5,140.833 215.5,150.5C 218.833,150.5 222.167,150.5 225.5,150.5C 225.5,153.5 225.5,156.5 225.5,159.5C 216.167,159.5 206.833,159.5 197.5,159.5C 197.5,156.5 197.5,153.5 197.5,150.5C 200.5,150.5 203.5,150.5 206.5,150.5C 206.5,143.833 206.5,137.167 206.5,130.5C 203.5,130.5 200.5,130.5 197.5,130.5C 197.5,117.833 197.5,105.167 197.5,92.5 Z"/></g>
<g><path style="opacity:1" fill="#d1ce29" d="M 196.5,111.5 C 196.5,114.833 196.5,118.167 196.5,121.5C 190.167,121.5 183.833,121.5 177.5,121.5C 177.5,121.167 177.5,120.833 177.5,120.5C 180.5,120.5 183.5,120.5 186.5,120.5C 186.5,117.5 186.5,114.5 186.5,111.5C 189.833,111.5 193.167,111.5 196.5,111.5 Z"/></g>
<g><path style="opacity:1" fill="#cfcd2a" d="M 177.5,121.5 C 177.5,127.833 177.5,134.167 177.5,140.5C 174.167,140.5 170.833,140.5 167.5,140.5C 167.5,134.167 167.5,127.833 167.5,121.5C 170.833,121.5 174.167,121.5 177.5,121.5 Z"/></g>
<g><path style="opacity:1" fill="#fefb37" d="M 177.5,121.5 C 183.833,121.5 190.167,121.5 196.5,121.5C 196.19,124.713 196.523,127.713 197.5,130.5C 200.5,130.5 203.5,130.5 206.5,130.5C 206.5,137.167 206.5,143.833 206.5,150.5C 203.5,150.5 200.5,150.5 197.5,150.5C 196.523,153.287 196.19,156.287 196.5,159.5C 193.5,159.5 190.5,159.5 187.5,159.5C 187.5,156.167 187.5,152.833 187.5,149.5C 180.833,149.5 174.167,149.5 167.5,149.5C 167.5,146.5 167.5,143.5 167.5,140.5C 170.833,140.5 174.167,140.5 177.5,140.5C 177.5,134.167 177.5,127.833 177.5,121.5 Z"/></g>
<g><path style="opacity:0.369" fill="#807108" d="M 215.5,121.5 C 216.494,130.652 216.827,139.985 216.5,149.5C 219.713,149.19 222.713,149.523 225.5,150.5C 222.167,150.5 218.833,150.5 215.5,150.5C 215.5,140.833 215.5,131.167 215.5,121.5 Z"/></g>
<g><path style="opacity:0.569" fill="#504705" d="M 158.5,130.5 C 155.713,131.477 152.713,131.81 149.5,131.5C 149.827,141.015 149.494,150.348 148.5,159.5C 148.5,149.833 148.5,140.167 148.5,130.5C 151.833,130.5 155.167,130.5 158.5,130.5 Z"/></g>
<g><path style="opacity:1" fill="#cfcb29" d="M 167.5,140.5 C 167.5,143.5 167.5,146.5 167.5,149.5C 174.167,149.5 180.833,149.5 187.5,149.5C 187.5,152.833 187.5,156.167 187.5,159.5C 187.167,159.5 186.833,159.5 186.5,159.5C 186.5,156.5 186.5,153.5 186.5,150.5C 177.167,150.5 167.833,150.5 158.5,150.5C 158.5,147.167 158.5,143.833 158.5,140.5C 161.5,140.5 164.5,140.5 167.5,140.5 Z"/></g>
<g><path style="opacity:0.173" fill="#a4900b" d="M 139.5,159.5 C 139.5,188.5 139.5,217.5 139.5,246.5C 132.833,246.5 126.167,246.5 119.5,246.5C 119.5,243.167 119.5,239.833 119.5,236.5C 120.477,239.287 120.81,242.287 120.5,245.5C 126.5,245.5 132.5,245.5 138.5,245.5C 138.169,216.662 138.502,187.995 139.5,159.5 Z"/></g>
<g><path style="opacity:1" fill="#fcfcf8" d="M 186.5,159.5 C 186.833,159.5 187.167,159.5 187.5,159.5C 187.5,159.833 187.5,160.167 187.5,160.5C 187.5,169.833 187.5,179.167 187.5,188.5C 187.167,188.5 186.833,188.5 186.5,188.5C 177.167,188.5 167.833,188.5 158.5,188.5C 158.5,178.833 158.5,169.167 158.5,159.5C 167.833,159.5 177.167,159.5 186.5,159.5 Z"/></g>
<g><path style="opacity:1" fill="#000000" d="M 187.5,160.5 C 190.5,160.5 193.5,160.5 196.5,160.5C 196.5,169.833 196.5,179.167 196.5,188.5C 193.5,188.5 190.5,188.5 187.5,188.5C 187.5,179.167 187.5,169.833 187.5,160.5 Z"/></g>
<g><path style="opacity:1" fill="#c5bd8d" d="M 197.5,150.5 C 197.5,153.5 197.5,156.5 197.5,159.5C 206.833,159.5 216.167,159.5 225.5,159.5C 225.5,159.833 225.5,160.167 225.5,160.5C 216.167,160.5 206.833,160.5 197.5,160.5C 197.5,169.833 197.5,179.167 197.5,188.5C 197.167,188.5 196.833,188.5 196.5,188.5C 196.5,179.167 196.5,169.833 196.5,160.5C 193.5,160.5 190.5,160.5 187.5,160.5C 187.5,160.167 187.5,159.833 187.5,159.5C 190.5,159.5 193.5,159.5 196.5,159.5C 196.19,156.287 196.523,153.287 197.5,150.5 Z"/></g>
<g><path style="opacity:1" fill="#fefefe" d="M 225.5,160.5 C 225.5,169.833 225.5,179.167 225.5,188.5C 216.167,188.5 206.833,188.5 197.5,188.5C 197.5,179.167 197.5,169.833 197.5,160.5C 206.833,160.5 216.167,160.5 225.5,160.5 Z"/></g>
<g><path style="opacity:0.99" fill="#393414" d="M 225.5,159.5 C 228.833,159.5 232.167,159.5 235.5,159.5C 235.827,169.348 235.494,179.014 234.5,188.5C 234.5,179.167 234.5,169.833 234.5,160.5C 231.833,160.5 229.167,160.5 226.5,160.5C 226.5,169.833 226.5,179.167 226.5,188.5C 226.167,188.5 225.833,188.5 225.5,188.5C 225.5,179.167 225.5,169.833 225.5,160.5C 225.5,160.167 225.5,159.833 225.5,159.5 Z"/></g>
<g><path style="opacity:0.995" fill="#000000" d="M 234.5,188.5 C 231.833,188.5 229.167,188.5 226.5,188.5C 226.5,179.167 226.5,169.833 226.5,160.5C 229.167,160.5 231.833,160.5 234.5,160.5C 234.5,169.833 234.5,179.167 234.5,188.5 Z"/></g>
<g><path style="opacity:1" fill="#fcfcfc" d="M 288.5,165.5 C 310.283,164.726 331.95,165.893 353.5,169C 375.541,176.227 384.375,191.393 380,214.5C 378.895,224.898 373.729,232.398 364.5,237C 380.184,242.503 387.184,253.67 385.5,270.5C 386.195,292.93 375.529,306.43 353.5,311C 349.469,311.481 345.469,312.147 341.5,313C 314.167,313.667 286.833,313.667 259.5,313C 257.714,312.215 256.214,311.049 255,309.5C 254.333,264.5 254.333,219.5 255,174.5C 257.346,171.372 260.513,169.539 264.5,169C 272.583,167.401 280.583,166.234 288.5,165.5 Z"/></g>
<g><path style="opacity:1" fill="#fdfdfd" d="M 885.5,165.5 C 900.504,165.333 915.504,165.5 930.5,166C 941.823,166.164 952.49,168.831 962.5,174C 969.589,178.42 974.423,184.587 977,192.5C 977.667,200.833 977.667,209.167 977,217.5C 974.946,226.125 970.113,232.625 962.5,237C 977.837,242.979 984.837,254.312 983.5,271C 983.733,291.426 974.066,304.426 954.5,310C 948.608,311.645 942.608,312.645 936.5,313C 910.167,313.667 883.833,313.667 857.5,313C 855.671,312.727 854.171,311.893 853,310.5C 852.333,264.833 852.333,219.167 853,173.5C 855.469,171.348 858.302,169.848 861.5,169C 869.601,167.501 877.601,166.334 885.5,165.5 Z"/></g>
<g><path style="opacity:1" fill="#fcfcfc" d="M 1299.5,165.5 C 1321.2,164.284 1342.53,166.451 1363.5,172C 1367.35,173.328 1370.52,175.495 1373,178.5C 1373.64,190.251 1370.97,201.251 1365,211.5C 1362.75,215.126 1359.58,216.293 1355.5,215C 1344.42,209.518 1332.76,207.518 1320.5,209C 1316.07,211.549 1315.41,214.882 1318.5,219C 1327.74,222.582 1337.08,225.916 1346.5,229C 1374.97,242.74 1383.14,264.24 1371,293.5C 1361.34,306.752 1348.18,313.918 1331.5,315C 1308,317.34 1285,315.007 1262.5,308C 1258.73,306.698 1255.56,304.531 1253,301.5C 1251.85,289.761 1253.51,278.427 1258,267.5C 1258.95,265.43 1260.45,263.93 1262.5,263C 1274.42,266.304 1286.42,269.637 1298.5,273C 1303.17,273.667 1307.83,273.667 1312.5,273C 1317.12,271.923 1318.62,269.09 1317,264.5C 1316.5,264 1316,263.5 1315.5,263C 1305.51,259.003 1295.51,255.003 1285.5,251C 1262.53,240.906 1253.37,223.406 1258,198.5C 1261.13,184.7 1269.3,175.2 1282.5,170C 1288.18,168 1293.84,166.5 1299.5,165.5 Z"/></g>
<g><path style="opacity:1" fill="#fdfdfd" d="M 1580.5,165.5 C 1604.02,162.636 1625.68,167.47 1645.5,180C 1657.85,192.54 1664.35,207.706 1665,225.5C 1669.95,289.547 1640.45,319.38 1576.5,315C 1540.99,310.487 1522.49,290.321 1521,254.5C 1516.9,231.016 1521.23,209.349 1534,189.5C 1546.62,175.775 1562.12,167.775 1580.5,165.5 Z M 1592.5,214.5 C 1589.67,231.863 1589.84,249.196 1593,266.5C 1595.16,248.988 1594.99,231.655 1592.5,214.5 Z"/></g>
<g><path style="opacity:1" fill="#fcfcfc" d="M 1476.5,167.5 C 1485.33,166.92 1494,167.753 1502.5,170C 1504.38,171.543 1505.88,173.376 1507,175.5C 1507.67,220.167 1507.67,264.833 1507,309.5C 1502.09,311.679 1496.93,312.846 1491.5,313C 1478.83,313.667 1466.17,313.667 1453.5,313C 1452.07,312.535 1450.9,311.701 1450,310.5C 1449.33,266.5 1449.33,222.5 1450,178.5C 1457.98,172.569 1466.81,168.902 1476.5,167.5 Z"/></g>
<g><path style="opacity:1" fill="#fdfdfd" d="M 462.5,167.5 C 473.888,167.117 485.221,167.617 496.5,169C 498.305,169.972 499.972,171.139 501.5,172.5C 515.21,216.13 528.21,259.963 540.5,304C 540.833,306.667 539.833,308.667 537.5,310C 534.27,311.308 530.936,312.308 527.5,313C 514.458,313.877 501.458,313.544 488.5,312C 484.873,311.436 481.707,309.936 479,307.5C 477.561,302.264 476.728,296.931 476.5,291.5C 470.167,291.5 463.833,291.5 457.5,291.5C 457.683,297.401 456.683,303.067 454.5,308.5C 451.331,311.051 447.664,312.551 443.5,313C 431.124,313.87 418.791,313.536 406.5,312C 402.615,311.261 398.948,309.927 395.5,308C 393.993,306.527 393.326,304.693 393.5,302.5C 395.152,293.711 397.318,285.044 400,276.5C 410.671,242.489 421.337,208.489 432,174.5C 433.319,172.513 435.152,171.346 437.5,171C 445.945,169.572 454.278,168.405 462.5,167.5 Z"/></g>
<g><path style="opacity:1" fill="#fdfdfd" d="M 578.5,167.5 C 585.175,167.334 591.842,167.5 598.5,168C 601.562,169.061 604.062,170.894 606,173.5C 613.197,192.089 620.197,210.756 627,229.5C 627.027,212.076 627.694,194.742 629,177.5C 642.641,169.14 657.475,165.973 673.5,168C 679.1,168.541 682.934,171.374 685,176.5C 685.83,220.738 685.663,264.904 684.5,309C 678.672,310.981 672.672,312.314 666.5,313C 655.167,313.667 643.833,313.667 632.5,313C 631.167,312.333 629.833,311.667 628.5,311C 622.002,294.172 615.502,277.339 609,260.5C 608.825,276.741 608.325,292.907 607.5,309C 604.043,310.743 600.377,311.743 596.5,312C 582.864,313.478 569.198,313.812 555.5,313C 553.998,312.417 552.665,311.584 551.5,310.5C 550.339,266.875 550.172,223.208 551,179.5C 553.24,176.598 556.073,174.431 559.5,173C 565.828,170.673 572.162,168.84 578.5,167.5 Z"/></g>
<g><path style="opacity:1" fill="#fdfdfd" d="M 778.5,292.5 C 772.021,291.509 765.354,291.176 758.5,291.5C 758.5,293.167 758.5,294.833 758.5,296.5C 760.06,306.1 756.06,311.6 746.5,313C 735.5,313.667 724.5,313.667 713.5,313C 707.868,312.259 702.535,310.593 697.5,308C 695.876,306.883 694.876,305.383 694.5,303.5C 706.959,259.956 720.126,216.623 734,173.5C 735.648,172.283 737.481,171.45 739.5,171C 759.835,167.079 780.169,166.746 800.5,170C 801.667,171.167 802.833,172.333 804,173.5C 816.536,214.774 828.869,256.107 841,297.5C 844.427,307.104 840.927,312.271 830.5,313C 817.125,313.881 803.791,313.548 790.5,312C 786.363,311.349 782.863,309.515 780,306.5C 779.006,301.882 778.506,297.215 778.5,292.5 Z"/></g>
<g><path style="opacity:1" fill="#fcfcfc" d="M 1008.5,167.5 C 1040.17,167.333 1071.84,167.5 1103.5,168C 1104.72,169.648 1105.55,171.481 1106,173.5C 1106.67,180.833 1106.67,188.167 1106,195.5C 1105.71,201.038 1104.21,206.204 1101.5,211C 1085.8,211.527 1070.14,211.027 1054.5,209.5C 1054.5,213.5 1054.5,217.5 1054.5,221.5C 1068.5,221.333 1082.5,221.5 1096.5,222C 1097.7,222.903 1098.53,224.069 1099,225.5C 1099.85,234.886 1099.52,244.219 1098,253.5C 1097.12,256.102 1095.62,258.269 1093.5,260C 1080.5,260.5 1067.5,260.667 1054.5,260.5C 1054.18,264.555 1054.51,268.555 1055.5,272.5C 1072.11,270.464 1088.78,269.797 1105.5,270.5C 1107.9,275.493 1108.9,280.826 1108.5,286.5C 1108.64,295.728 1106.97,304.561 1103.5,313C 1069.5,313.667 1035.5,313.667 1001.5,313C 999.714,312.215 998.214,311.049 997,309.5C 996.333,264.833 996.333,220.167 997,175.5C 997.273,173.671 998.107,172.171 999.5,171C 1002.46,169.396 1005.46,168.229 1008.5,167.5 Z"/></g>
<g><path style="opacity:1" fill="#fdfdfd" d="M 1125.5,167.5 C 1163.5,167.333 1201.5,167.5 1239.5,168C 1241.6,170.042 1242.77,172.542 1243,175.5C 1243.82,186.539 1243.49,197.539 1242,208.5C 1241.52,212.467 1240.18,216.134 1238,219.5C 1228.58,220.485 1219.08,220.818 1209.5,220.5C 1209.67,250.169 1209.5,279.835 1209,309.5C 1197.82,312.893 1186.32,314.227 1174.5,313.5C 1168.17,313.333 1161.83,313.167 1155.5,313C 1154.07,312.535 1152.9,311.701 1152,310.5C 1151.5,280.502 1151.33,250.502 1151.5,220.5C 1141.48,220.832 1131.48,220.499 1121.5,219.5C 1116.17,203.502 1116.34,187.502 1122,171.5C 1123.38,170.295 1124.54,168.962 1125.5,167.5 Z"/></g>
<g><path style="opacity:1" fill="#000000" d="M 168.5,169.5 C 171.5,169.5 174.5,169.5 177.5,169.5C 177.5,172.5 177.5,175.5 177.5,178.5C 177.5,175.5 177.5,172.5 177.5,169.5C 174.5,169.5 171.5,169.5 168.5,169.5 Z"/></g>
<g><path style="opacity:1" fill="#000000" d="M 215.5,169.5 C 215.5,172.5 215.5,175.5 215.5,178.5C 212.5,178.5 209.5,178.5 206.5,178.5C 206.5,175.5 206.5,172.5 206.5,169.5C 209.5,169.5 212.5,169.5 215.5,169.5 Z"/></g>
<g><path style="opacity:1" fill="#928b5b" d="M 168.5,169.5 C 168.5,172.5 168.5,175.5 168.5,178.5C 171.5,178.5 174.5,178.5 177.5,178.5C 174.375,179.479 171.042,179.813 167.5,179.5C 167.187,175.958 167.521,172.625 168.5,169.5 Z"/></g>
<g><path style="opacity:1" fill="#d0c998" d="M 215.5,169.5 C 216.479,172.625 216.813,175.958 216.5,179.5C 212.958,179.813 209.625,179.479 206.5,178.5C 209.5,178.5 212.5,178.5 215.5,178.5C 215.5,175.5 215.5,172.5 215.5,169.5 Z"/></g>
<g><path style="opacity:0.985" fill="#0f0c02" d="M 81.5,188.5 C 75.1667,188.5 68.8333,188.5 62.5,188.5C 62.5,185.167 62.5,181.833 62.5,178.5C 68.8333,178.5 75.1667,178.5 81.5,178.5C 81.5,181.833 81.5,185.167 81.5,188.5 Z"/></g>
<g><path style="opacity:0.995" fill="#120f06" d="M 62.5,188.5 C 62.5,198.167 62.5,207.833 62.5,217.5C 59.1667,217.5 55.8333,217.5 52.5,217.5C 52.5,207.833 52.5,198.167 52.5,188.5C 55.8333,188.5 59.1667,188.5 62.5,188.5 Z"/></g>
<g><path style="opacity:0.999" fill="#fdfcfa" d="M 62.5,188.5 C 68.8333,188.5 75.1667,188.5 81.5,188.5C 81.5,191.5 81.5,194.5 81.5,197.5C 84.8333,197.5 88.1667,197.5 91.5,197.5C 91.5,200.833 91.5,204.167 91.5,207.5C 88.1667,207.5 84.8333,207.5 81.5,207.5C 81.5,210.833 81.5,214.167 81.5,217.5C 75.1667,217.5 68.8333,217.5 62.5,217.5C 62.5,207.833 62.5,198.167 62.5,188.5 Z"/></g>
<g><path style="opacity:1" fill="#cfcc29" d="M 158.5,188.5 C 158.5,191.5 158.5,194.5 158.5,197.5C 158.5,197.833 158.5,198.167 158.5,198.5C 155.167,198.5 151.833,198.5 148.5,198.5C 148.5,195.167 148.5,191.833 148.5,188.5C 151.833,188.5 155.167,188.5 158.5,188.5 Z"/></g>
<g><path style="opacity:1" fill="#000000" d="M 158.5,188.5 C 167.833,188.5 177.167,188.5 186.5,188.5C 186.5,191.5 186.5,194.5 186.5,197.5C 177.167,197.5 167.833,197.5 158.5,197.5C 158.5,194.5 158.5,191.5 158.5,188.5 Z"/></g>
<g><path style="opacity:1" fill="#fcfa37" d="M 186.5,188.5 C 186.833,188.5 187.167,188.5 187.5,188.5C 190.5,188.5 193.5,188.5 196.5,188.5C 196.5,191.833 196.5,195.167 196.5,198.5C 202.833,198.5 209.167,198.5 215.5,198.5C 215.5,201.5 215.5,204.5 215.5,207.5C 199.5,207.5 183.5,207.5 167.5,207.5C 167.5,204.5 167.5,201.5 167.5,198.5C 174.022,198.823 180.355,198.49 186.5,197.5C 186.5,194.5 186.5,191.5 186.5,188.5 Z"/></g>
<g><path style="opacity:1" fill="#010101" d="M 312.5,196.5 C 322.381,195.547 327.381,200.047 327.5,210C 328.003,220.665 323.003,225.165 312.5,223.5C 312.5,214.5 312.5,205.5 312.5,196.5 Z"/></g>
<g><path style="opacity:1" fill="#030303" d="M 910.5,196.5 C 920.807,195.474 925.474,200.141 924.5,210.5C 925.28,220.721 920.613,225.054 910.5,223.5C 910.5,214.5 910.5,205.5 910.5,196.5 Z"/></g>
<g><path style="opacity:1" fill="#b1a91d" d="M 196.5,188.5 C 196.833,188.5 197.167,188.5 197.5,188.5C 197.5,191.5 197.5,194.5 197.5,197.5C 203.833,197.5 210.167,197.5 216.5,197.5C 216.813,201.042 216.479,204.375 215.5,207.5C 215.5,204.5 215.5,201.5 215.5,198.5C 209.167,198.5 202.833,198.5 196.5,198.5C 196.5,195.167 196.5,191.833 196.5,188.5 Z"/></g>
<g><path style="opacity:1" fill="#9d9b1d" d="M 158.5,197.5 C 167.833,197.5 177.167,197.5 186.5,197.5C 180.355,198.49 174.022,198.823 167.5,198.5C 167.5,201.5 167.5,204.5 167.5,207.5C 164.5,207.5 161.5,207.5 158.5,207.5C 158.5,204.5 158.5,201.5 158.5,198.5C 158.5,198.167 158.5,197.833 158.5,197.5 Z"/></g>
<g><path style="opacity:0.959" fill="#020202" d="M 1590.5,198.5 C 1595.38,198.175 1598.88,200.175 1601,204.5C 1603.94,215.804 1605.1,227.304 1604.5,239C 1605.05,251.673 1603.89,264.173 1601,276.5C 1598.65,282.095 1594.48,283.928 1588.5,282C 1585.77,279.374 1583.94,276.207 1583,272.5C 1579.4,250.066 1579.74,227.732 1584,205.5C 1585.05,201.96 1587.21,199.626 1590.5,198.5 Z M 1592.5,214.5 C 1589.67,231.863 1589.84,249.196 1593,266.5C 1595.16,248.988 1594.99,231.655 1592.5,214.5 Z"/></g>
<g><path style="opacity:1" fill="#fb131a" d="M 158.5,207.5 C 161.5,207.5 164.5,207.5 167.5,207.5C 167.5,210.5 167.5,213.5 167.5,216.5C 164.5,216.5 161.5,216.5 158.5,216.5C 158.5,213.5 158.5,210.5 158.5,207.5 Z"/></g>
<g><path style="opacity:1" fill="#777777" d="M 469.5,216.5 C 468.167,216.5 466.833,216.5 465.5,216.5C 465.768,218.099 465.434,219.432 464.5,220.5C 464.5,218.833 464.5,217.167 464.5,215.5C 466.415,215.216 468.081,215.549 469.5,216.5 Z"/></g>
<g><path style="opacity:1" fill="#4f3108" d="M 167.5,207.5 C 183.5,207.5 199.5,207.5 215.5,207.5C 200.009,208.496 184.342,208.83 168.5,208.5C 168.5,211.167 168.5,213.833 168.5,216.5C 184.342,216.17 200.009,216.504 215.5,217.5C 199.833,217.5 184.167,217.5 168.5,217.5C 168.5,220.5 168.5,223.5 168.5,226.5C 168.167,226.5 167.833,226.5 167.5,226.5C 167.5,223.5 167.5,220.5 167.5,217.5C 164.5,217.5 161.5,217.5 158.5,217.5C 158.5,217.167 158.5,216.833 158.5,216.5C 161.5,216.5 164.5,216.5 167.5,216.5C 167.5,213.5 167.5,210.5 167.5,207.5 Z"/></g>
<g><path style="opacity:1" fill="#111111" d="M 469.5,216.5 C 470.5,228.5 471.5,240.5 472.5,252.5C 468.833,252.5 465.167,252.5 461.5,252.5C 462.503,241.825 463.503,231.158 464.5,220.5C 465.434,219.432 465.768,218.099 465.5,216.5C 466.833,216.5 468.167,216.5 469.5,216.5 Z"/></g>
<g><path style="opacity:1" fill="#101010" d="M 766.5,215.5 C 768.167,215.5 769.833,215.5 771.5,215.5C 772.443,227.817 773.11,240.151 773.5,252.5C 770.167,252.5 766.833,252.5 763.5,252.5C 765.161,240.23 766.161,227.897 766.5,215.5 Z"/></g>
<g><path style="opacity:1" fill="#d0cd2a" d="M 158.5,216.5 C 158.5,216.833 158.5,217.167 158.5,217.5C 161.5,217.5 164.5,217.5 167.5,217.5C 167.5,220.5 167.5,223.5 167.5,226.5C 167.833,226.5 168.167,226.5 168.5,226.5C 168.5,229.833 168.5,233.167 168.5,236.5C 167.523,233.713 167.19,230.713 167.5,227.5C 164.5,227.5 161.5,227.5 158.5,227.5C 158.5,233.833 158.5,240.167 158.5,246.5C 161.5,246.5 164.5,246.5 167.5,246.5C 167.5,256.167 167.5,265.833 167.5,275.5C 170.833,275.5 174.167,275.5 177.5,275.5C 177.5,281.833 177.5,288.167 177.5,294.5C 180.5,294.5 183.5,294.5 186.5,294.5C 186.5,297.5 186.5,300.5 186.5,303.5C 189.833,303.5 193.167,303.5 196.5,303.5C 196.5,306.5 196.5,309.5 196.5,312.5C 202.833,312.5 209.167,312.5 215.5,312.5C 215.5,287.167 215.5,261.833 215.5,236.5C 216.498,261.995 216.831,287.661 216.5,313.5C 210.167,313.5 203.833,313.5 197.5,313.5C 197.665,316.518 197.498,319.518 197,322.5C 187.841,326.16 184.341,323.16 186.5,313.5C 183.5,313.5 180.5,313.5 177.5,313.5C 177.5,310.167 177.5,306.833 177.5,303.5C 174.167,303.5 170.833,303.5 167.5,303.5C 167.5,297.167 167.5,290.833 167.5,284.5C 164.5,284.5 161.5,284.5 158.5,284.5C 158.5,274.833 158.5,265.167 158.5,255.5C 155.167,255.5 151.833,255.5 148.5,255.5C 148.5,242.5 148.5,229.5 148.5,216.5C 151.833,216.5 155.167,216.5 158.5,216.5 Z"/></g>
<g><path style="opacity:1" fill="#000000" d="M 158.5,217.5 C 161.5,217.5 164.5,217.5 167.5,217.5C 167.5,220.5 167.5,223.5 167.5,226.5C 164.5,226.5 161.5,226.5 158.5,226.5C 158.5,223.5 158.5,220.5 158.5,217.5 Z"/></g>
<g><path style="opacity:1" fill="#fa0e1a" d="M 215.5,217.5 C 215.5,220.5 215.5,223.5 215.5,226.5C 212.5,226.5 209.5,226.5 206.5,226.5C 206.5,229.833 206.5,233.167 206.5,236.5C 196.833,236.5 187.167,236.5 177.5,236.5C 177.5,233.167 177.5,229.833 177.5,226.5C 174.5,226.5 171.5,226.5 168.5,226.5C 168.5,223.5 168.5,220.5 168.5,217.5C 184.167,217.5 199.833,217.5 215.5,217.5 Z"/></g>
<g><path style="opacity:0.173" fill="#ae990b" d="M 62.5,226.5 C 72.1667,226.5 81.8333,226.5 91.5,226.5C 91.5,229.833 91.5,233.167 91.5,236.5C 90.5233,233.713 90.19,230.713 90.5,227.5C 80.985,227.827 71.6517,227.494 62.5,226.5 Z"/></g>
<g><path style="opacity:1" fill="#fdfb37" d="M 168.5,236.5 C 171.5,236.5 174.5,236.5 177.5,236.5C 177.5,239.5 177.5,242.5 177.5,245.5C 187.167,245.5 196.833,245.5 206.5,245.5C 206.5,242.5 206.5,239.5 206.5,236.5C 209.5,236.5 212.5,236.5 215.5,236.5C 215.5,261.833 215.5,287.167 215.5,312.5C 209.167,312.5 202.833,312.5 196.5,312.5C 196.5,309.5 196.5,306.5 196.5,303.5C 193.167,303.5 189.833,303.5 186.5,303.5C 186.5,300.5 186.5,297.5 186.5,294.5C 183.5,294.5 180.5,294.5 177.5,294.5C 177.5,288.167 177.5,281.833 177.5,275.5C 174.167,275.5 170.833,275.5 167.5,275.5C 167.5,265.833 167.5,256.167 167.5,246.5C 164.5,246.5 161.5,246.5 158.5,246.5C 158.5,240.167 158.5,233.833 158.5,227.5C 161.5,227.5 164.5,227.5 167.5,227.5C 167.19,230.713 167.523,233.713 168.5,236.5 Z"/></g>
<g><path style="opacity:1" fill="#110c01" d="M 168.5,226.5 C 171.5,226.5 174.5,226.5 177.5,226.5C 177.5,229.833 177.5,233.167 177.5,236.5C 174.5,236.5 171.5,236.5 168.5,236.5C 168.5,233.167 168.5,229.833 168.5,226.5 Z"/></g>
<g><path style="opacity:1" fill="#050400" d="M 177.5,236.5 C 187.167,236.5 196.833,236.5 206.5,236.5C 206.5,239.5 206.5,242.5 206.5,245.5C 196.833,245.5 187.167,245.5 177.5,245.5C 177.5,242.5 177.5,239.5 177.5,236.5 Z"/></g>
<g><path style="opacity:0.369" fill="#6d6007" d="M 100.5,236.5 C 101.477,239.287 101.81,242.287 101.5,245.5C 104.713,245.19 107.713,245.523 110.5,246.5C 107.167,246.5 103.833,246.5 100.5,246.5C 100.5,243.167 100.5,239.833 100.5,236.5 Z"/></g>
<g><path style="opacity:1" fill="#020202" d="M 312.5,255.5 C 322.401,254.568 327.401,259.068 327.5,269C 328.003,279.665 323.003,284.165 312.5,282.5C 312.5,273.5 312.5,264.5 312.5,255.5 Z"/></g>
<g><path style="opacity:1" fill="#010101" d="M 910.5,255.5 C 920.807,254.474 925.474,259.141 924.5,269.5C 925.002,279.33 920.335,283.663 910.5,282.5C 910.5,273.5 910.5,264.5 910.5,255.5 Z"/></g>
<g><path style="opacity:1" fill="#2c2906" d="M 148.5,255.5 C 151.833,255.5 155.167,255.5 158.5,255.5C 158.5,265.167 158.5,274.833 158.5,284.5C 157.506,275.348 157.173,266.015 157.5,256.5C 154.287,256.81 151.287,256.477 148.5,255.5 Z"/></g>
<g><path style="opacity:0.569" fill="#554b05" d="M 148.5,265.5 C 149.494,274.652 149.827,283.985 149.5,293.5C 152.713,293.19 155.713,293.523 158.5,294.5C 155.167,294.5 151.833,294.5 148.5,294.5C 148.5,284.833 148.5,275.167 148.5,265.5 Z"/></g>
<g><path style="opacity:1" fill="#fafafa" d="M 1405.5,273.5 C 1414.51,272.398 1422.67,274.398 1430,279.5C 1434.63,289.474 1434.63,299.474 1430,309.5C 1427.13,312.463 1423.63,314.296 1419.5,315C 1394.54,318.602 1385.04,308.102 1391,283.5C 1391.79,281.413 1392.96,279.579 1394.5,278C 1398.05,275.879 1401.72,274.379 1405.5,273.5 Z"/></g>
<g><path style="opacity:1" fill="#6a6a6a" d="M 778.5,292.5 C 772.167,292.5 765.833,292.5 759.5,292.5C 759.768,294.099 759.434,295.432 758.5,296.5C 758.5,294.833 758.5,293.167 758.5,291.5C 765.354,291.176 772.021,291.509 778.5,292.5 Z"/></g>
<g><path style="opacity:0.369" fill="#7b6c07" d="M 167.5,313.5 C 168.494,322.986 168.827,332.652 168.5,342.5C 165.167,342.5 161.833,342.5 158.5,342.5C 161.287,341.523 164.287,341.19 167.5,341.5C 167.5,332.167 167.5,322.833 167.5,313.5 Z"/></g>
<g><path style="opacity:0.569" fill="#726508" d="M 225.5,341.5 C 228.833,341.5 232.167,341.5 235.5,341.5C 235.5,347.833 235.5,354.167 235.5,360.5C 245.015,360.173 254.348,360.506 263.5,361.5C 253.833,361.5 244.167,361.5 234.5,361.5C 234.5,355.167 234.5,348.833 234.5,342.5C 231.287,342.81 228.287,342.477 225.5,341.5 Z"/></g>
<g><path style="opacity:0.569" fill="#60550d" d="M 139.5,361.5 C 139.5,364.5 139.5,367.5 139.5,370.5C 139.5,370.833 139.5,371.167 139.5,371.5C 139.5,374.5 139.5,377.5 139.5,380.5C 136.167,380.5 132.833,380.5 129.5,380.5C 132.287,379.523 135.287,379.19 138.5,379.5C 138.5,376.833 138.5,374.167 138.5,371.5C 132.5,371.5 126.5,371.5 120.5,371.5C 120.5,380.833 120.5,390.167 120.5,399.5C 119.506,390.014 119.173,380.348 119.5,370.5C 125.833,370.5 132.167,370.5 138.5,370.5C 138.19,367.287 138.523,364.287 139.5,361.5 Z"/></g>
<g><path style="opacity:1" fill="#9d935b" d="M 168.5,351.5 C 168.5,357.833 168.5,364.167 168.5,370.5C 168.5,370.833 168.5,371.167 168.5,371.5C 168.5,374.5 168.5,377.5 168.5,380.5C 167.523,377.713 167.19,374.713 167.5,371.5C 158.167,371.5 148.833,371.5 139.5,371.5C 139.5,371.167 139.5,370.833 139.5,370.5C 148.833,370.5 158.167,370.5 167.5,370.5C 167.177,363.978 167.51,357.645 168.5,351.5 Z"/></g>
<g><path style="opacity:0.988" fill="#000000" d="M 129.5,380.5 C 129.5,383.5 129.5,386.5 129.5,389.5C 145.325,390.496 161.325,390.83 177.5,390.5C 177.5,393.5 177.5,396.5 177.5,399.5C 158.5,399.5 139.5,399.5 120.5,399.5C 120.5,390.167 120.5,380.833 120.5,371.5C 126.5,371.5 132.5,371.5 138.5,371.5C 138.5,374.167 138.5,376.833 138.5,379.5C 135.287,379.19 132.287,379.523 129.5,380.5 Z"/></g>
<g><path style="opacity:1" fill="#fefefe" d="M 139.5,371.5 C 148.833,371.5 158.167,371.5 167.5,371.5C 167.19,374.713 167.523,377.713 168.5,380.5C 171.5,380.5 174.5,380.5 177.5,380.5C 177.5,383.5 177.5,386.5 177.5,389.5C 161.5,389.5 145.5,389.5 129.5,389.5C 129.5,386.5 129.5,383.5 129.5,380.5C 132.833,380.5 136.167,380.5 139.5,380.5C 139.5,377.5 139.5,374.5 139.5,371.5 Z"/></g>
<g><path style="opacity:1" fill="#040300" d="M 168.5,371.5 C 174.5,371.5 180.5,371.5 186.5,371.5C 186.5,377.5 186.5,383.5 186.5,389.5C 183.5,389.5 180.5,389.5 177.5,389.5C 177.5,386.5 177.5,383.5 177.5,380.5C 174.5,380.5 171.5,380.5 168.5,380.5C 168.5,377.5 168.5,374.5 168.5,371.5 Z"/></g>
<g><path style="opacity:0.369" fill="#897c31" d="M 225.5,370.5 C 222.713,371.477 219.713,371.81 216.5,371.5C 216.5,377.5 216.5,383.5 216.5,389.5C 219.5,389.5 222.5,389.5 225.5,389.5C 241.5,389.5 257.5,389.5 273.5,389.5C 257.675,390.496 241.675,390.83 225.5,390.5C 222.167,390.5 218.833,390.5 215.5,390.5C 215.5,383.833 215.5,377.167 215.5,370.5C 218.833,370.5 222.167,370.5 225.5,370.5 Z"/></g>
<g><path style="opacity:1" fill="#fefefe" d="M 235.5,371.5 C 244.833,371.5 254.167,371.5 263.5,371.5C 263.5,374.5 263.5,377.5 263.5,380.5C 266.833,380.5 270.167,380.5 273.5,380.5C 273.5,383.5 273.5,386.5 273.5,389.5C 257.5,389.5 241.5,389.5 225.5,389.5C 225.5,386.5 225.5,383.5 225.5,380.5C 228.833,380.5 232.167,380.5 235.5,380.5C 235.5,377.5 235.5,374.5 235.5,371.5 Z"/></g>
<g><path style="opacity:1" fill="#9a915b" d="M 263.5,361.5 C 264.477,364.287 264.81,367.287 264.5,370.5C 264.5,370.833 264.5,371.167 264.5,371.5C 264.5,374.167 264.5,376.833 264.5,379.5C 267.713,379.19 270.713,379.523 273.5,380.5C 270.167,380.5 266.833,380.5 263.5,380.5C 263.5,377.5 263.5,374.5 263.5,371.5C 254.167,371.5 244.833,371.5 235.5,371.5C 244.652,370.506 253.985,370.173 263.5,370.5C 263.5,367.5 263.5,364.5 263.5,361.5 Z"/></g>
<g><path style="opacity:0.989" fill="#000000" d="M 264.5,371.5 C 270.5,371.5 276.5,371.5 282.5,371.5C 282.5,380.833 282.5,390.167 282.5,399.5C 263.5,399.5 244.5,399.5 225.5,399.5C 225.5,396.5 225.5,393.5 225.5,390.5C 241.675,390.83 257.675,390.496 273.5,389.5C 273.5,386.5 273.5,383.5 273.5,380.5C 270.713,379.523 267.713,379.19 264.5,379.5C 264.5,376.833 264.5,374.167 264.5,371.5 Z"/></g>
<g><path style="opacity:0.471" fill="#5d5206" d="M 264.5,371.5 C 264.5,371.167 264.5,370.833 264.5,370.5C 270.833,370.5 277.167,370.5 283.5,370.5C 283.827,380.348 283.494,390.014 282.5,399.5C 282.5,390.167 282.5,380.833 282.5,371.5C 276.5,371.5 270.5,371.5 264.5,371.5 Z"/></g>
<g><path style="opacity:0.991" fill="#62591f" d="M 168.5,371.5 C 168.5,371.167 168.5,370.833 168.5,370.5C 174.833,370.5 181.167,370.5 187.5,370.5C 187.5,377.167 187.5,383.833 187.5,390.5C 184.167,390.5 180.833,390.5 177.5,390.5C 161.325,390.83 145.325,390.496 129.5,389.5C 145.5,389.5 161.5,389.5 177.5,389.5C 180.5,389.5 183.5,389.5 186.5,389.5C 186.5,383.5 186.5,377.5 186.5,371.5C 180.5,371.5 174.5,371.5 168.5,371.5 Z"/></g>
</svg>
