<?xml version="1.0" encoding="UTF-8"?>
<!DOCTYPE svg PUBLIC "-//W3C//DTD SVG 1.1//EN" "http://www.w3.org/Graphics/SVG/1.1/DTD/svg11.dtd">
<svg xmlns="http://www.w3.org/2000/svg" version="1.1" width="1732px" height="500px" style="shape-rendering:geometricPrecision; text-rendering:geometricPrecision; image-rendering:optimizeQuality; fill-rule:evenodd; clip-rule:evenodd" xmlns:xlink="http://www.w3.org/1999/xlink">
<g><path style="opacity:0.702" fill="#030303" d="M 1165.5,219.5 C 1166.66,211.344 1166.82,203.01 1166,194.5C 1165.67,196.167 1165.33,197.833 1165,199.5C 1163.63,197.304 1161.8,196.97 1159.5,198.5C 1155.07,196.428 1150.4,195.428 1145.5,195.5C 1146.1,202.289 1145.43,208.789 1143.5,215C 1144.1,216.062 1144.43,217.228 1144.5,218.5C 1142.96,224.967 1139.96,230.633 1135.5,235.5C 1131.94,238.358 1128.6,241.358 1125.5,244.5C 1131.05,250.075 1134.55,256.742 1136,264.5C 1139.58,283.705 1135.75,301.038 1124.5,316.5C 1113.96,328.181 1101.12,336.514 1086,341.5C 1075.04,343.135 1064.04,344.468 1053,345.5C 1041.97,344.384 1030.97,343.051 1020,341.5C 1012.23,338.866 1005.06,335.199 998.5,330.5C 995.551,326.214 992.218,322.214 988.5,318.5C 985.941,315.661 984.441,312.327 984,308.5C 982.542,307.253 981.042,307.253 979.5,308.5C 976.536,311.801 973.536,315.134 970.5,318.5C 963.686,322.397 956.853,326.397 950,330.5C 939.484,333.977 928.984,337.643 918.5,341.5C 917.311,341.244 916.144,340.911 915,340.5C 909.677,342.177 904.177,343.011 898.5,343C 874.185,345.032 850.519,342.698 827.5,336C 821.107,332.764 814.607,329.931 808,327.5C 805.383,327.127 803.55,328.127 802.5,330.5C 799.352,331.576 796.352,332.909 793.5,334.5C 783.786,335.6 774.12,336.933 764.5,338.5C 755.032,337.001 745.532,335.668 736,334.5C 729.093,331.711 722.593,328.377 716.5,324.5C 715.956,326.58 715.122,328.58 714,330.5C 709.643,334.519 704.976,338.186 700,341.5C 693.406,343.194 686.739,344.527 680,345.5C 673.667,344.167 667.333,344.167 661,345.5C 654.179,344.29 647.346,343.123 640.5,342C 638.047,341.273 635.714,340.273 633.5,339C 629.552,336.769 626.052,333.936 623,330.5C 620.423,325.639 617.089,321.306 613,317.5C 607.433,327.887 598.933,334.887 587.5,338.5C 568.202,342.387 549.202,341.22 530.5,335C 526.662,331.494 522.828,327.994 519,324.5C 516.554,326.142 514.721,328.308 513.5,331C 509.87,332.84 506.537,335.006 503.5,337.5C 499.398,338.526 495.398,339.859 491.5,341.5C 480.5,342.833 469.5,342.833 458.5,341.5C 452.16,340.221 446.16,338.054 440.5,335C 437.496,331.496 434.162,328.329 430.5,325.5C 429.754,324.264 429.421,322.93 429.5,321.5C 425.249,321.291 422.583,323.291 421.5,327.5C 417.293,330.58 412.627,332.914 407.5,334.5C 397.7,335.552 388.033,336.885 378.5,338.5C 369.291,336.92 359.958,335.586 350.5,334.5C 348.309,333.257 345.976,332.424 343.5,332C 340.38,330.379 337.714,328.212 335.5,325.5C 333.955,324.548 332.288,324.215 330.5,324.5C 330.549,328.26 328.882,330.926 325.5,332.5C 324.614,333.325 324.281,334.325 324.5,335.5C 321.886,335.277 320.219,336.444 319.5,339C 317.5,340 315.5,341 313.5,342C 293.328,345.962 273.162,345.795 253,341.5C 247.782,337.652 242.449,333.985 237,330.5C 233.873,324.466 230.54,318.466 227,312.5C 226.439,311.978 225.772,311.645 225,311.5C 218.983,317.294 212.149,322.294 204.5,326.5C 170.666,343.347 134.833,348.014 97,340.5C 95.8558,340.911 94.6891,341.244 93.5,341.5C 80.284,338.627 67.9507,333.793 56.5,327C 55.0381,324.37 53.3715,321.87 51.5,319.5C 50.4898,314.074 49.1565,308.741 47.5,303.5C 47.7028,301.792 48.5362,300.459 50,299.5C 50.9031,295.967 50.5697,292.633 49,289.5C 48.6667,278.167 48.3333,266.833 48,255.5C 47.6667,266.167 47.3333,276.833 47,287.5C 46.3333,242.167 46.3333,196.833 47,151.5C 47.3333,160.5 47.6667,169.5 48,178.5C 48.2904,160.13 49.1238,141.797 50.5,123.5C 51.2422,119.78 52.4089,116.114 54,112.5C 54.5,111.333 55.3333,110.5 56.5,110C 55.0705,108.12 55.4038,106.62 57.5,105.5C 58.6956,105.846 58.6956,106.346 57.5,107C 58.1667,107.667 58.8333,107.667 59.5,107C 62.4905,105.035 65.1572,102.868 67.5,100.5C 90.8256,90.7319 115.826,86.8986 142.5,89C 151.033,91.2556 159.7,92.7556 168.5,93.5C 165.058,92.2521 161.392,91.4188 157.5,91C 181.177,92.6592 201.51,101.493 218.5,117.5C 224.764,125.75 229.431,134.917 232.5,145C 232.355,146.226 232.022,147.393 231.5,148.5C 233.095,151.865 234.429,155.365 235.5,159C 236.167,161 236.833,161 237.5,159C 236.67,157.535 236.504,156.035 237,154.5C 238.087,156.932 238.587,156.598 238.5,153.5C 240.743,152.495 241.076,150.995 239.5,149C 239.944,147.238 240.444,147.405 241,149.5C 241.483,148.552 241.649,147.552 241.5,146.5C 242.289,146.217 242.956,145.717 243.5,145C 242.446,143.612 242.28,142.112 243,140.5C 243.333,141.167 243.667,141.833 244,142.5C 244.973,140.608 245.64,138.608 246,136.5C 246.654,137.696 247.154,137.696 247.5,136.5C 246.572,135.232 246.405,133.899 247,132.5C 247.626,134.991 248.459,134.991 249.5,132.5C 250.662,129.506 252.329,126.84 254.5,124.5C 254.376,123.893 254.043,123.56 253.5,123.5C 253.329,120.203 253.995,119.869 255.5,122.5C 256.107,122.376 256.44,122.043 256.5,121.5C 257.404,120.791 257.737,119.791 257.5,118.5C 258.239,118.631 258.906,118.464 259.5,118C 258.115,116.035 258.282,114.202 260,112.5C 260.691,114.891 261.691,114.891 263,112.5C 263.492,111.451 263.326,110.451 262.5,109.5C 262.879,107.787 263.879,106.787 265.5,106.5C 264.031,108.105 264.365,108.605 266.5,108C 269.561,104.601 272.894,101.601 276.5,99C 275.833,98.6667 275.167,98.3333 274.5,98C 275.078,96.583 276.078,95.7496 277.5,95.5C 276.939,98.1867 277.606,98.1867 279.5,95.5C 282.097,95.2792 282.097,94.7792 279.5,94C 286.578,91.5001 293.578,88.8335 300.5,86C 310.596,84.2336 320.763,83.067 331,82.5C 338.767,83.9189 346.6,84.9189 354.5,85.5C 355.552,87.256 357.219,87.9227 359.5,87.5C 359.47,86.5028 359.97,85.8361 361,85.5C 372.447,87.805 382.947,92.1384 392.5,98.5C 397.604,103.061 402.27,108.061 406.5,113.5C 411.77,123.311 416.436,133.311 420.5,143.5C 419.481,145.54 419.481,147.54 420.5,149.5C 422.433,144.926 422.933,140.259 422,135.5C 422.743,137.645 423.576,137.811 424.5,136C 423.67,134.535 423.504,133.035 424,131.5C 424.333,132.167 424.667,132.833 425,133.5C 425.655,131.372 426.489,129.372 427.5,127.5C 428.737,126.035 429.737,124.368 430.5,122.5C 431.906,122.027 432.573,121.027 432.5,119.5C 434.897,117.441 436.897,115.108 438.5,112.5C 443.976,108.856 449.309,105.023 454.5,101C 467.892,95.1952 481.726,94.0286 496,97.5C 499.104,97.1493 498.937,96.6493 495.5,96C 503.597,96.355 510.93,98.855 517.5,103.5C 519.396,104.466 521.396,104.799 523.5,104.5C 523.167,105.167 522.833,105.833 522.5,106.5C 523.833,106.5 524.5,105.833 524.5,104.5C 526.262,103.738 527.262,102.404 527.5,100.5C 530.396,99.602 532.729,97.9353 534.5,95.5C 550.556,87.052 567.723,86.3853 586,93.5C 586.5,93.3333 587,93.1667 587.5,93C 585.608,92.0266 583.608,91.3599 581.5,91C 580.304,90.3457 580.304,89.8457 581.5,89.5C 590.409,90.3548 598.409,93.3548 605.5,98.5C 612.092,105.013 616.759,112.846 619.5,122C 619.904,125.511 620.904,128.845 622.5,132C 621.826,138.148 622.993,143.981 626,149.5C 627.786,148.213 627.953,146.713 626.5,145C 627,143.5 627.5,142 628,140.5C 628.535,142.271 629.369,142.604 630.5,141.5C 631.717,138.103 632.717,134.77 633.5,131.5C 633.351,132.552 633.517,133.552 634,134.5C 634.703,132.22 635.869,130.22 637.5,128.5C 636.572,127.232 636.405,125.899 637,124.5C 637.333,125.167 637.667,125.833 638,126.5C 638.662,125.016 639.496,123.683 640.5,122.5C 641.833,121.833 641.833,121.167 640.5,120.5C 641.965,117.453 643.965,114.786 646.5,112.5C 646.833,115.167 647.167,115.167 647.5,112.5C 650.217,111.322 650.55,110.322 648.5,109.5C 649.119,106.405 650.119,106.071 651.5,108.5C 652.919,107.995 653.585,106.995 653.5,105.5C 654.833,104.833 655.833,103.833 656.5,102.5C 658.01,101.164 659.677,99.9973 661.5,99C 660.833,98.6667 660.167,98.3333 659.5,98C 661.058,97.79 662.391,97.29 663.5,96.5C 665.377,95.0618 667.377,93.7285 669.5,92.5C 694.571,81.4302 720.238,80.0968 746.5,88.5C 747.167,88.3333 747.833,88.1667 748.5,88C 746.956,87.7104 745.623,87.0437 744.5,86C 748.523,85.9464 752.523,86.4464 756.5,87.5C 770.309,92.257 781.643,100.257 790.5,111.5C 794.709,117.18 798.209,123.18 801,129.5C 801.333,134.833 801.667,140.167 802,145.5C 802.089,137.905 802.922,130.405 804.5,123C 804.039,120.801 803.873,118.634 804,116.5C 804.333,117.167 804.667,117.833 805,118.5C 805.794,115.529 806.461,112.529 807,109.5C 809.192,108.601 811.358,107.601 813.5,106.5C 814.298,106.043 814.631,105.376 814.5,104.5C 816.153,104.34 817.486,103.674 818.5,102.5C 820.891,100.864 823.558,99.6969 826.5,99C 826.167,98.6667 825.833,98.3333 825.5,98C 847.836,90.1115 870.836,87.1115 894.5,89C 903.326,91.0626 912.326,92.5626 921.5,93.5C 921.389,94.1174 921.056,94.6174 920.5,95C 924.446,96.3244 928.446,96.9911 932.5,97C 929.21,96.2751 926.21,95.1084 923.5,93.5C 942.326,95.9196 958.159,103.92 971,117.5C 974.384,122.535 977.717,127.535 981,132.5C 981.333,131.5 981.667,130.5 982,129.5C 982.494,131.134 982.66,132.801 982.5,134.5C 983.391,130.851 984.391,127.184 985.5,123.5C 986.245,121.329 986.412,118.995 986,116.5C 986.308,117.308 986.808,117.975 987.5,118.5C 988.608,115.164 990.274,112.164 992.5,109.5C 992.376,108.893 992.043,108.56 991.5,108.5C 991.329,105.203 991.995,104.869 993.5,107.5C 994.086,107.291 994.586,106.957 995,106.5C 995,105.167 995,103.833 995,102.5C 995.718,103.451 996.551,103.617 997.5,103C 998.878,101.287 1000.54,99.9533 1002.5,99C 1002.17,98.6667 1001.83,98.3333 1001.5,98C 1008.76,96.1753 1016.09,94.6753 1023.5,93.5C 1038.6,92.9452 1053.6,91.4452 1068.5,89C 1078.17,88.3333 1087.83,88.3333 1097.5,89C 1102.79,90.0584 1107.95,91.5584 1113,93.5C 1113.5,93.3333 1114,93.1667 1114.5,93C 1112.38,92.1853 1110.38,91.1853 1108.5,90C 1111.51,89.7991 1114.51,90.1324 1117.5,91C 1120.6,92.9804 1123.94,94.4804 1127.5,95.5C 1130.98,100.071 1134.31,104.071 1137.5,107.5C 1143.68,103.908 1150.02,100.574 1156.5,97.5C 1191.45,87.0532 1226.79,85.7199 1262.5,93.5C 1261.74,92.7321 1260.74,92.2321 1259.5,92C 1268.43,92.9001 1277.1,95.0668 1285.5,98.5C 1291.11,100.819 1296.78,102.986 1302.5,105C 1305.28,106.851 1307.95,108.684 1310.5,110.5C 1321.33,102.184 1332.33,94.0176 1343.5,86C 1352.39,81.7883 1361.73,80.455 1371.5,82C 1404.01,89.825 1436.51,97.9916 1469,106.5C 1478.98,107.878 1488.82,109.878 1498.5,112.5C 1515.25,119.135 1522.08,131.468 1519,149.5C 1516.99,155.87 1513.65,161.536 1509,166.5C 1502.85,171.805 1496.68,176.972 1490.5,182C 1485.4,184.478 1480.4,187.145 1475.5,190C 1476.42,190.374 1477.25,190.874 1478,191.5C 1480.43,197.119 1483.76,202.119 1488,206.5C 1490.79,212.204 1493.96,217.704 1497.5,223C 1497.17,223.333 1496.83,223.667 1496.5,224C 1503.11,235.627 1503.11,247.293 1496.5,259C 1496.83,259.333 1497.17,259.667 1497.5,260C 1495.81,262.69 1493.47,264.69 1490.5,266C 1490.96,266.414 1491.29,266.914 1491.5,267.5C 1489.1,268.085 1487.1,269.252 1485.5,271C 1494.44,286.125 1493.27,300.292 1482,313.5C 1469.14,324.708 1455.47,334.708 1441,343.5C 1433.74,346.246 1426.24,347.079 1418.5,346C 1375.31,334.694 1331.31,323.861 1286.5,313.5C 1282.06,312.524 1278.56,310.191 1276,306.5C 1274.82,316.923 1270.65,326.256 1263.5,334.5C 1258.19,339.411 1251.86,342.244 1244.5,343C 1233.83,343.667 1223.17,343.667 1212.5,343C 1187.62,341.429 1171.95,328.762 1165.5,305C 1164.82,299.278 1163.82,293.611 1162.5,288C 1162.62,281.119 1163.12,280.952 1164,287.5C 1164.27,285.899 1164.77,284.399 1165.5,283C 1165.91,281.197 1165.41,279.364 1164,277.5C 1163.09,263.838 1162.76,250.171 1163,236.5C 1163.17,242.528 1163.67,248.528 1164.5,254.5C 1165.5,242.852 1165.83,231.186 1165.5,219.5 Z M 359.5,87.5 C 361.989,87.2978 364.323,87.7978 366.5,89C 363.942,89.2753 361.608,88.7753 359.5,87.5 Z M 369.5,91.5 C 366.664,91.7978 366.164,91.1311 368,89.5C 368.717,90.0442 369.217,90.7109 369.5,91.5 Z M 752.5,89.5 C 753.833,89.5 754.5,90.1667 754.5,91.5C 754.5,90.1667 753.833,89.5 752.5,89.5 Z M 168.5,93.5 C 171.923,94.3634 175.256,95.5301 178.5,97C 174.812,96.8326 171.145,96.1659 167.5,95C 168.056,94.6174 168.389,94.1174 168.5,93.5 Z M 921.5,93.5 C 922.167,93.5 922.833,93.5 923.5,93.5C 926.21,95.1084 929.21,96.2751 932.5,97C 928.446,96.9911 924.446,96.3244 920.5,95C 921.056,94.6174 921.389,94.1174 921.5,93.5 Z M 1262.5,93.5 C 1266.38,94.9711 1270.38,96.1378 1274.5,97C 1270.09,97.151 1265.75,96.4843 1261.5,95C 1262.06,94.6174 1262.39,94.1174 1262.5,93.5 Z M 277.5,95.5 C 278.167,95.5 278.833,95.5 279.5,95.5C 277.606,98.1867 276.939,98.1867 277.5,95.5 Z M 503.5,100.5 C 501.692,100.509 500.025,100.009 498.5,99C 500.535,98.4014 502.201,98.9014 503.5,100.5 Z M 593.5,99.5 C 594.497,98.2875 595.497,98.4542 596.5,100C 595.423,100.47 594.423,100.303 593.5,99.5 Z M 184.5,100.5 C 186.337,100.639 186.67,101.306 185.5,102.5C 184.702,102.043 184.369,101.376 184.5,100.5 Z M 503.5,100.5 C 504.5,100.833 505.167,101.5 505.5,102.5C 504.167,102.5 503.5,101.833 503.5,100.5 Z M 937.5,100.5 C 938.833,100.5 939.5,101.167 939.5,102.5C 938.5,102.167 937.833,101.5 937.5,100.5 Z M 1281.5,100.5 C 1283.48,100.157 1284.82,100.824 1285.5,102.5C 1283.62,102.771 1282.29,102.104 1281.5,100.5 Z M 1285.5,102.5 C 1287.65,102.372 1289.65,102.872 1291.5,104C 1289.23,104.405 1287.23,103.905 1285.5,102.5 Z M 523.5,104.5 C 523.833,104.5 524.167,104.5 524.5,104.5C 524.5,105.833 523.833,106.5 522.5,106.5C 522.833,105.833 523.167,105.167 523.5,104.5 Z M 521.5,108.5 C 521.483,110.028 520.816,110.528 519.5,110C 520.044,109.283 520.711,108.783 521.5,108.5 Z M 648.5,109.5 C 650.55,110.322 650.217,111.322 647.5,112.5C 647.557,111.391 647.89,110.391 648.5,109.5 Z M 1310.5,110.5 C 1309.49,111.872 1308.49,113.205 1307.5,114.5C 1307.09,112.027 1308.09,110.694 1310.5,110.5 Z M 432.5,119.5 C 432.573,121.027 431.906,122.027 430.5,122.5C 430.5,121.833 430.5,121.167 430.5,120.5C 431.167,120.167 431.833,119.833 432.5,119.5 Z M 982.5,134.5 C 982.664,137.187 982.497,139.854 982,142.5C 980.51,139.77 980.676,137.103 982.5,134.5 Z M 623.5,153.5 C 624.776,154.386 624.776,155.386 623.5,156.5C 622.438,155.575 622.438,154.575 623.5,153.5 Z M 234.5,161.5 C 235.653,164.48 235.32,167.48 233.5,170.5C 233.436,169.635 233.103,168.635 232.5,167.5C 234.086,165.827 234.753,163.827 234.5,161.5 Z M 1292.5,191.5 C 1294.34,191.639 1294.67,192.306 1293.5,193.5C 1292.7,193.043 1292.37,192.376 1292.5,191.5 Z M 1279.5,252.5 C 1282.14,247.896 1282.14,243.229 1279.5,238.5C 1280,236.529 1280.33,234.529 1280.5,232.5C 1278.71,221.832 1277.05,211.166 1275.5,200.5C 1280.24,200.468 1284.74,199.468 1289,197.5C 1290.77,198.233 1292.6,198.567 1294.5,198.5C 1294.34,197.127 1294.51,195.793 1295,194.5C 1300.21,206.714 1306.71,218.214 1314.5,229C 1308.91,231.648 1303.91,234.981 1299.5,239C 1296.5,238.906 1294.5,240.239 1293.5,243C 1289,246.325 1284.33,249.492 1279.5,252.5 Z M 225.5,198.5 C 226.16,199.964 226.493,201.631 226.5,203.5C 225.945,209.162 225.445,214.828 225,220.5C 224.628,213.16 224.795,205.827 225.5,198.5 Z M 1279.5,252.5 C 1279.48,254.028 1278.82,254.528 1277.5,254C 1278.04,253.283 1278.71,252.783 1279.5,252.5 Z M 50.5,300.5 C 51.6368,303.32 52.1368,306.32 52,309.5C 50.7114,306.649 50.2114,303.649 50.5,300.5 Z"/></g>
<g><path style="opacity:0.004" fill="#000000" d="M 354.5,85.5 C 352.708,84.6909 350.708,84.1909 348.5,84C 350.902,83.1859 353.235,83.3526 355.5,84.5C 355.376,85.1067 355.043,85.44 354.5,85.5 Z"/></g>
<g><path style="opacity:0.004" fill="#000000" d="M 734.5,84.5 C 735.946,83.3871 737.613,83.2204 739.5,84C 737.866,84.4935 736.199,84.6602 734.5,84.5 Z"/></g>
<g><path style="opacity:0.004" fill="#000000" d="M 740.5,84.5 C 741.833,85.1667 741.833,85.1667 740.5,84.5 Z"/></g>
<g><path style="opacity:0.004" fill="#000000" d="M 1099.5,87.5 C 1100.83,88.1667 1100.83,88.1667 1099.5,87.5 Z"/></g>
<g><path style="opacity:0.004" fill="#000000" d="M 669.5,91.5 C 669.897,90.475 670.563,90.3083 671.5,91C 670.906,91.4643 670.239,91.631 669.5,91.5 Z"/></g>
<g><path style="opacity:0.004" fill="#000000" d="M 923.5,93.5 C 922.833,93.5 922.167,93.5 921.5,93.5C 918.058,92.2521 914.392,91.4188 910.5,91C 913.855,90.4541 917.188,90.6208 920.5,91.5C 922.03,91.6399 923.03,92.3065 923.5,93.5 Z"/></g>
<g><path style="opacity:0.004" fill="#000000" d="M 1252.5,91.5 C 1253.95,90.3871 1255.61,90.2204 1257.5,91C 1255.87,91.4935 1254.2,91.6602 1252.5,91.5 Z"/></g>
<g><path style="opacity:0.004" fill="#000000" d="M 282.5,91.5 C 283.833,92.1667 283.833,92.1667 282.5,91.5 Z"/></g>
<g><path style="opacity:0.004" fill="#000000" d="M 669.5,91.5 C 669.5,91.8333 669.5,92.1667 669.5,92.5C 668.83,92.0187 668.83,91.6853 669.5,91.5 Z"/></g>
<g><path style="opacity:0.004" fill="#000000" d="M 534.5,95.5 C 533.833,94.1667 533.833,94.1667 534.5,95.5 Z"/></g>
<g><path style="opacity:0.004" fill="#000000" d="M 663.5,96.5 C 661.025,96.2533 661.025,95.5866 663.5,94.5C 664.463,94.9698 664.463,95.6365 663.5,96.5 Z"/></g>
<g><path style="opacity:0.004" fill="#000000" d="M 530.5,96.5 C 530.897,95.475 531.563,95.3083 532.5,96C 531.906,96.4643 531.239,96.631 530.5,96.5 Z"/></g>
<g><path style="opacity:0.004" fill="#000000" d="M 827.5,95.5 C 828.833,96.1667 828.833,96.1667 827.5,95.5 Z"/></g>
<g><path style="opacity:1" fill="#fce32d" d="M 1397.5,101.5 C 1399.91,102.768 1402.57,103.435 1405.5,103.5C 1414.44,105.755 1423.44,107.755 1432.5,109.5C 1434.51,110.924 1436.85,111.59 1439.5,111.5C 1450.77,114.149 1462.1,116.815 1473.5,119.5C 1475.51,120.924 1477.85,121.59 1480.5,121.5C 1486.06,122.919 1491.72,124.419 1497.5,126C 1506.06,129.848 1508.9,136.348 1506,145.5C 1504.6,149.792 1502.1,153.292 1498.5,156C 1492.12,161.385 1485.45,166.385 1478.5,171C 1470.16,176.092 1461.16,177.759 1451.5,176C 1443.43,173.814 1435.43,171.981 1427.5,170.5C 1425.49,169.076 1423.15,168.41 1420.5,168.5C 1410.87,166.01 1401.21,163.677 1391.5,161.5C 1389.09,160.232 1386.43,159.565 1383.5,159.5C 1383.17,159.5 1382.83,159.5 1382.5,159.5C 1379.5,157.723 1376.16,156.723 1372.5,156.5C 1354.39,153.7 1336.73,149.2 1319.5,143C 1314.8,138.078 1313.3,132.245 1315,125.5C 1318.13,121.367 1321.63,117.534 1325.5,114C 1333.5,108.333 1341.5,102.667 1349.5,97C 1353.4,95.6445 1357.4,94.8111 1361.5,94.5C 1373.62,96.3234 1385.62,98.6567 1397.5,101.5 Z"/></g>
<g><path style="opacity:1" fill="#fdfdfd" d="M 407.5,207.5 C 407.624,212.049 408.291,216.382 409.5,220.5C 411.995,246.697 410.495,272.697 405,298.5C 401.166,307.352 394.333,312.186 384.5,313C 374.679,314.115 365.012,313.448 355.5,311C 352.217,309.439 349.383,307.273 347,304.5C 344.831,300.999 342.664,297.499 340.5,294C 338.994,288.943 338.327,283.776 338.5,278.5C 330.16,278.691 321.826,279.024 313.5,279.5C 314.141,315.197 297.141,328.364 262.5,319C 251.513,313.187 244.179,304.354 240.5,292.5C 237.135,281.422 235.802,270.089 236.5,258.5C 235.781,222.277 241.614,187.277 254,153.5C 261.366,136.139 271.866,120.972 285.5,108C 297.845,99.2362 311.679,95.4029 327,96.5C 360.138,95.6685 382.471,110.669 394,141.5C 400.118,163.215 404.618,185.215 407.5,207.5 Z"/></g>
<g><path style="opacity:0.004" fill="#000000" d="M 529.5,97.5 C 530.833,98.1667 530.833,98.1667 529.5,97.5 Z"/></g>
<g><path style="opacity:1" fill="#fdfdfd" d="M 709.5,278.5 C 705.846,278.942 702.179,279.276 698.5,279.5C 698.5,285.167 698.5,290.833 698.5,296.5C 690.665,318.992 674.999,326.826 651.5,320C 636.013,314.219 627.346,303.053 625.5,286.5C 624.531,278.034 623.864,269.534 623.5,261C 624.413,244.174 625.079,227.341 625.5,210.5C 627.945,171.791 642.278,138.291 668.5,110C 681.251,99.64 695.917,95.14 712.5,96.5C 746.816,95.8131 769.483,111.646 780.5,144C 785.101,162.556 789.268,181.056 793,199.5C 796.943,232.618 796.276,265.618 791,298.5C 784.071,310.545 773.571,315.545 759.5,313.5C 745.028,315.099 734.361,309.599 727.5,297C 724.762,291.113 723.429,284.946 723.5,278.5C 718.833,278.5 714.167,278.5 709.5,278.5 Z"/></g>
<g><path style="opacity:0.004" fill="#000000" d="M 68.5,98.5 C 69.8333,99.1667 69.8333,99.1667 68.5,98.5 Z"/></g>
<g><path style="opacity:0.004" fill="#000000" d="M 272.5,98.5 C 273.833,99.1667 273.833,99.1667 272.5,98.5 Z"/></g>
<g><path style="opacity:0.004" fill="#000000" d="M 527.5,98.5 C 528.833,99.1667 528.833,99.1667 527.5,98.5 Z"/></g>
<g><path style="opacity:0.004" fill="#000000" d="M 1149.5,98.5 C 1150.83,99.1667 1150.83,99.1667 1149.5,98.5 Z"/></g>
<g><path style="opacity:0.004" fill="#000000" d="M 67.5,100.5 C 66.8333,99.1667 66.8333,99.1667 67.5,100.5 Z"/></g>
<g><path style="opacity:0.004" fill="#000000" d="M 452.5,99.5 C 453.833,100.167 453.833,100.167 452.5,99.5 Z"/></g>
<g><path style="opacity:0.004" fill="#000000" d="M 527.5,99.5 C 527.5,99.8333 527.5,100.167 527.5,100.5C 526.83,100.019 526.83,99.6853 527.5,99.5 Z"/></g>
<g><path style="opacity:0.004" fill="#000000" d="M 656.5,99.5 C 657.833,100.167 657.833,100.167 656.5,99.5 Z"/></g>
<g><path style="opacity:0.004" fill="#000000" d="M 997.5,99.5 C 998.833,100.167 998.833,100.167 997.5,99.5 Z"/></g>
<g><path style="opacity:0.004" fill="#000000" d="M 1146.5,99.5 C 1147.83,100.167 1147.83,100.167 1146.5,99.5 Z"/></g>
<g><path style="opacity:0.004" fill="#000000" d="M 656.5,100.5 C 656.5,101.167 656.5,101.833 656.5,102.5C 652.551,103.224 652.551,102.558 656.5,100.5 Z"/></g>
<g><path style="opacity:0.004" fill="#000000" d="M 269.5,101.5 C 270.833,102.167 270.833,102.167 269.5,101.5 Z"/></g>
<g><path style="opacity:0.004" fill="#000000" d="M 449.5,102.5 C 449.897,101.475 450.563,101.308 451.5,102C 450.906,102.464 450.239,102.631 449.5,102.5 Z"/></g>
<g><path style="opacity:0.004" fill="#000000" d="M 524.5,101.5 C 525.833,102.167 525.833,102.167 524.5,101.5 Z"/></g>
<g><path style="opacity:0.004" fill="#000000" d="M 818.5,102.5 C 817.761,102.631 817.094,102.464 816.5,102C 817.437,101.308 818.103,101.475 818.5,102.5 Z"/></g>
<g><path style="opacity:0.004" fill="#000000" d="M 1143.5,101.5 C 1144.83,102.167 1144.83,102.167 1143.5,101.5 Z"/></g>
<g><path style="opacity:1" fill="#fbfef6" d="M 1358.5,100.5 C 1364.99,99.6323 1367.49,102.299 1366,108.5C 1359.88,114.78 1352.88,116.447 1345,113.5C 1344.19,108.94 1346.03,105.774 1350.5,104C 1353.4,103.125 1356.07,101.958 1358.5,100.5 Z"/></g>
<g><path style="opacity:1" fill="#5e6719" d="M 1397.5,101.5 C 1400.5,101.294 1403.16,101.96 1405.5,103.5C 1402.57,103.435 1399.91,102.768 1397.5,101.5 Z"/></g>
<g><path style="opacity:0.004" fill="#000000" d="M 269.5,102.5 C 268.833,103.167 268.833,103.167 269.5,102.5 Z"/></g>
<g><path style="opacity:1" fill="#b9b9b9" d="M 582.5,107.5 C 579.199,107.136 576.199,105.969 573.5,104C 564.806,103.289 556.139,103.456 547.5,104.5C 549.476,102.989 551.809,102.156 554.5,102C 564.731,100.118 574.064,101.951 582.5,107.5 Z"/></g>
<g><path style="opacity:0.004" fill="#000000" d="M 814.5,104.5 C 813.227,103.923 813.227,103.257 814.5,102.5C 815.463,102.97 815.463,103.637 814.5,104.5 Z"/></g>
<g><path style="opacity:1" fill="#b6b6b6" d="M 902.5,103.5 C 886.833,103.5 871.167,103.5 855.5,103.5C 871.175,100.932 886.841,100.932 902.5,103.5 Z"/></g>
<g><path style="opacity:1" fill="#fdfdfd" d="M 1077.5,101.5 C 1087.96,100.404 1097.96,101.904 1107.5,106C 1110.59,108.076 1112.42,110.909 1113,114.5C 1115.39,129.114 1109.89,139.614 1096.5,146C 1088.12,147.845 1079.79,149.011 1071.5,149.5C 1070.78,149.918 1070.28,150.584 1070,151.5C 1069.5,158.492 1069.33,165.492 1069.5,172.5C 1068.56,175.792 1070.06,177.792 1074,178.5C 1077.26,177.12 1080.42,175.62 1083.5,174C 1085.47,173.505 1087.47,173.338 1089.5,173.5C 1094.83,173.833 1100.17,174.167 1105.5,174.5C 1121.79,180.331 1126.29,191.331 1119,207.5C 1111.05,221.057 1099.22,227.724 1083.5,227.5C 1081.05,226.527 1078.39,226.194 1075.5,226.5C 1075.5,230.167 1075.5,233.833 1075.5,237.5C 1071.92,250.92 1076.92,255.586 1090.5,251.5C 1096.36,251.843 1101.7,253.677 1106.5,257C 1108.79,258.777 1110.46,260.944 1111.5,263.5C 1111.5,269.167 1111.5,274.833 1111.5,280.5C 1106.82,291.851 1099.49,301.185 1089.5,308.5C 1070.82,320.465 1050.49,323.965 1028.5,319C 1010.37,312.861 999.201,300.361 995,281.5C 993.586,273.19 992.42,264.857 991.5,256.5C 990.934,246.349 990.267,236.349 989.5,226.5C 989.907,215.169 990.241,203.836 990.5,192.5C 991.309,190.708 991.809,188.708 992,186.5C 992.5,179.842 992.666,173.175 992.5,166.5C 993.485,155.906 994.985,145.24 997,134.5C 998.475,124.382 1002.98,115.882 1010.5,109C 1012.47,108.505 1014.47,108.338 1016.5,108.5C 1024.09,108.332 1031.42,107.332 1038.5,105.5C 1040.5,105.5 1042.5,105.5 1044.5,105.5C 1055.75,105.117 1066.75,103.784 1077.5,101.5 Z"/></g>
<g><path style="opacity:1" fill="#b6b6b6" d="M 1239.5,103.5 C 1221.81,103.237 1204.14,103.57 1186.5,104.5C 1186.92,103.778 1187.58,103.278 1188.5,103C 1205.68,100.865 1222.68,101.032 1239.5,103.5 Z"/></g>
<g><path style="opacity:1" fill="#5f5f5f" d="M 102.5,103.5 C 100.343,104.407 98.0098,105.073 95.5,105.5C 95.6107,104.883 95.944,104.383 96.5,104C 98.4727,103.505 100.473,103.338 102.5,103.5 Z"/></g>
<g><path style="opacity:1" fill="#fcfcfc" d="M 204.5,139.5 C 204.755,141.967 205.755,143.967 207.5,145.5C 207.557,146.609 207.89,147.609 208.5,148.5C 209.49,156.477 209.657,164.477 209,172.5C 208.144,174.868 207.31,177.202 206.5,179.5C 204.392,184.179 201.392,188.345 197.5,192C 191.923,195.764 186.256,199.264 180.5,202.5C 211.388,212.601 223.388,233.601 216.5,265.5C 215.019,269.074 213.686,272.74 212.5,276.5C 205.115,290.711 193.949,301.044 179,307.5C 170.551,310.871 162.051,314.038 153.5,317C 127.819,321.771 102.652,319.937 78,311.5C 66.5037,306.751 61.5037,298.084 63,285.5C 60.5465,231.333 61.2131,177.333 65,123.5C 65.3333,121.833 65.6667,120.167 66,118.5C 74.6299,111.349 84.4633,107.016 95.5,105.5C 98.0098,105.073 100.343,104.407 102.5,103.5C 134.438,97.0101 163.772,102.843 190.5,121C 196.521,126.24 201.188,132.407 204.5,139.5 Z"/></g>
<g><path style="opacity:1" fill="#fcfcfc" d="M 582.5,107.5 C 587.182,111.02 591.016,115.353 594,120.5C 597.012,128.244 598.845,136.244 599.5,144.5C 598.868,152.573 599.535,160.24 601.5,167.5C 604.264,199.184 604.098,230.851 601,262.5C 599.027,278.394 593.694,293.061 585,306.5C 574.665,316.341 562.498,319.341 548.5,315.5C 546.898,313.926 544.898,313.259 542.5,313.5C 540.265,312.772 538.432,311.439 537,309.5C 523.045,287.649 511.879,264.316 503.5,239.5C 502.406,237.641 501.573,235.641 501,233.5C 500.322,235.598 500.489,237.598 501.5,239.5C 503.559,254.059 504.059,268.726 503,283.5C 500.262,308.585 486.429,320.085 461.5,318C 450.016,314.349 442.349,306.849 438.5,295.5C 436.358,289.317 434.358,283.317 432.5,277.5C 428.526,236.672 428.859,195.838 433.5,155C 436.303,135.385 446.303,120.718 463.5,111C 473.54,107.745 483.54,107.745 493.5,111C 506.323,121.143 515.323,133.976 520.5,149.5C 520.755,151.967 521.755,153.967 523.5,155.5C 523.5,155.833 523.5,156.167 523.5,156.5C 523.755,158.967 524.755,160.967 526.5,162.5C 528.456,167.41 530.122,172.41 531.5,177.5C 531.956,180.644 532.956,183.644 534.5,186.5C 534.833,186 535.167,185.5 535.5,185C 534.984,182.331 534.317,179.831 533.5,177.5C 532.833,172.5 532.167,167.5 531.5,162.5C 531.362,155.637 530.696,148.97 529.5,142.5C 526.457,128.128 530.457,116.295 541.5,107C 543.407,105.878 545.407,105.045 547.5,104.5C 556.139,103.456 564.806,103.289 573.5,104C 576.199,105.969 579.199,107.136 582.5,107.5 Z M 521.5,108.5 C 520.711,108.783 520.044,109.283 519.5,110C 520.816,110.528 521.483,110.028 521.5,108.5 Z"/></g>
<g><path style="opacity:1" fill="#fdfdfd" d="M 855.5,103.5 C 871.167,103.5 886.833,103.5 902.5,103.5C 921.155,106.815 937.322,115.148 951,128.5C 962.35,142.93 965.85,159.097 961.5,177C 958.608,182.56 954.941,187.56 950.5,192C 945.299,195.432 939.966,198.599 934.5,201.5C 952.932,208.099 965.098,220.766 971,239.5C 971.82,246.014 971.653,252.347 970.5,258.5C 969.629,261.003 968.963,263.67 968.5,266.5C 965.551,279.203 958.884,289.703 948.5,298C 932.261,307.789 914.927,314.789 896.5,319C 877.17,320.663 858.17,319.33 839.5,315C 832.08,312.325 825.413,308.492 819.5,303.5C 818.604,298.353 817.604,293.353 816.5,288.5C 815.567,241.176 815.234,193.842 815.5,146.5C 816.369,144.283 816.702,141.95 816.5,139.5C 818.101,132.722 819.101,125.722 819.5,118.5C 825.528,113.657 832.195,109.824 839.5,107C 844.954,105.745 850.287,104.578 855.5,103.5 Z"/></g>
<g><path style="opacity:1" fill="#fdfdfd" d="M 1239.5,103.5 C 1244.92,104.172 1250.42,105.172 1256,106.5C 1263.58,109.873 1271.42,112.539 1279.5,114.5C 1290.79,118.948 1297.96,126.948 1301,138.5C 1301.67,144.167 1301.67,149.833 1301,155.5C 1299.33,159.5 1297.67,163.5 1296,167.5C 1294.07,169.213 1291.91,170.547 1289.5,171.5C 1282.87,173.045 1276.2,174.378 1269.5,175.5C 1267.47,175.338 1265.47,175.505 1263.5,176C 1262.94,176.383 1262.61,176.883 1262.5,177.5C 1258.39,177.518 1254.39,178.185 1250.5,179.5C 1249.94,180.939 1249.6,182.439 1249.5,184C 1251.09,189.05 1251.76,194.216 1251.5,199.5C 1251.74,204.694 1252.41,209.694 1253.5,214.5C 1253.33,218.182 1253.5,221.848 1254,225.5C 1254.23,226.737 1254.73,227.737 1255.5,228.5C 1255.22,230.415 1255.55,232.081 1256.5,233.5C 1256.83,246.167 1257.17,258.833 1257.5,271.5C 1257.18,285.822 1253.01,298.822 1245,310.5C 1242.14,314.211 1238.64,316.877 1234.5,318.5C 1226.17,318.5 1217.83,318.5 1209.5,318.5C 1191.78,314.138 1181.62,302.805 1179,284.5C 1178.05,278.54 1177.55,272.54 1177.5,266.5C 1178.72,245.174 1179.72,223.84 1180.5,202.5C 1181.29,201.391 1181.79,200.058 1182,198.5C 1182.5,194.179 1182.67,189.846 1182.5,185.5C 1182.5,184.833 1182.5,184.167 1182.5,183.5C 1183.53,181.039 1184.2,178.373 1184.5,175.5C 1179.5,175.5 1174.5,175.5 1169.5,175.5C 1144.21,172.275 1132.71,157.941 1135,132.5C 1135.61,128.619 1137.27,125.286 1140,122.5C 1153.54,111.703 1169.04,105.703 1186.5,104.5C 1204.14,103.57 1221.81,103.237 1239.5,103.5 Z"/></g>
<g><path style="opacity:0.004" fill="#000000" d="M 266.5,104.5 C 267.833,105.167 267.833,105.167 266.5,104.5 Z"/></g>
<g><path style="opacity:0.004" fill="#000000" d="M 445.5,104.5 C 446.833,105.167 446.833,105.167 445.5,104.5 Z"/></g>
<g><path style="opacity:0.004" fill="#000000" d="M 653.5,105.5 C 652.833,104.167 652.833,104.167 653.5,105.5 Z"/></g>
<g><path style="opacity:0.004" fill="#000000" d="M 811.5,104.5 C 812.833,105.167 812.833,105.167 811.5,104.5 Z"/></g>
<g><path style="opacity:1" fill="#989898" d="M 1077.5,101.5 C 1066.75,103.784 1055.75,105.117 1044.5,105.5C 1045.61,104.71 1046.94,104.21 1048.5,104C 1058.16,103.024 1067.83,102.191 1077.5,101.5 Z"/></g>
<g><path style="opacity:0.004" fill="#000000" d="M 266.5,105.5 C 265.833,106.167 265.833,106.167 266.5,105.5 Z"/></g>
<g><path style="opacity:0.004" fill="#000000" d="M 443.5,106.5 C 443.842,105.662 444.508,105.328 445.5,105.5C 445.158,106.338 444.492,106.672 443.5,106.5 Z"/></g>
<g><path style="opacity:0.004" fill="#000000" d="M 811.5,105.5 C 810.833,106.167 810.833,106.167 811.5,105.5 Z"/></g>
<g><path style="opacity:0.004" fill="#000000" d="M 443.5,106.5 C 442.833,107.167 442.833,107.167 443.5,106.5 Z"/></g>
<g><path style="opacity:1" fill="#9f9f9f" d="M 1038.5,105.5 C 1031.42,107.332 1024.09,108.332 1016.5,108.5C 1023.58,106.668 1030.91,105.668 1038.5,105.5 Z"/></g>
<g><path style="opacity:0.004" fill="#000000" d="M 440.5,108.5 C 441.833,109.167 441.833,109.167 440.5,108.5 Z"/></g>
<g><path style="opacity:0.004" fill="#000000" d="M 991.5,108.5 C 990.833,109.167 990.833,109.167 991.5,108.5 Z"/></g>
<g><path style="opacity:0.004" fill="#000000" d="M 440.5,109.5 C 439.833,110.167 439.833,110.167 440.5,109.5 Z"/></g>
<g><path style="opacity:0.004" fill="#000000" d="M 648.5,109.5 C 647.89,110.391 647.557,111.391 647.5,112.5C 647.167,112.5 646.833,112.5 646.5,112.5C 646.285,110.821 646.952,109.821 648.5,109.5 Z"/></g>
<g><path style="opacity:0.004" fill="#000000" d="M 438.5,112.5 C 438.167,112.5 437.833,112.5 437.5,112.5C 437.833,109.833 438.167,109.833 438.5,112.5 Z"/></g>
<g><path style="opacity:1" fill="#566418" d="M 1432.5,109.5 C 1435.15,109.41 1437.49,110.076 1439.5,111.5C 1436.85,111.59 1434.51,110.924 1432.5,109.5 Z"/></g>
<g><path style="opacity:0.004" fill="#000000" d="M 437.5,112.5 C 436.833,113.167 436.833,113.167 437.5,112.5 Z"/></g>
<g><path style="opacity:0.004" fill="#000000" d="M 804.5,112.5 C 805.833,113.167 805.833,113.167 804.5,112.5 Z"/></g>
<g><path style="opacity:0.004" fill="#000000" d="M 436.5,113.5 C 435.833,114.167 435.833,114.167 436.5,113.5 Z"/></g>
<g><path style="opacity:0.004" fill="#000000" d="M 50.5,114.5 C 51.525,114.897 51.6917,115.563 51,116.5C 50.5357,115.906 50.369,115.239 50.5,114.5 Z"/></g>
<g><path style="opacity:0.004" fill="#000000" d="M 433.5,116.5 C 433.369,115.761 433.536,115.094 434,114.5C 434.692,115.437 434.525,116.103 433.5,116.5 Z"/></g>
<g><path style="opacity:1" fill="#fbfef6" d="M 1411.5,115.5 C 1415.38,115.109 1419.05,115.776 1422.5,117.5C 1423.58,118.365 1423.75,119.365 1423,120.5C 1419.93,121.617 1416.76,121.784 1413.5,121C 1411.84,119.556 1411.18,117.722 1411.5,115.5 Z"/></g>
<g><path style="opacity:0.004" fill="#000000" d="M 257.5,118.5 C 256.596,119.209 256.263,120.209 256.5,121.5C 255.156,119.815 255.323,118.148 257,116.5C 257.464,117.094 257.631,117.761 257.5,118.5 Z"/></g>
<g><path style="opacity:0.004" fill="#000000" d="M 433.5,116.5 C 432.833,117.167 432.833,117.167 433.5,116.5 Z"/></g>
<g><path style="opacity:0.004" fill="#000000" d="M 432.5,117.5 C 432.5,118.167 432.5,118.833 432.5,119.5C 431.833,119.833 431.167,120.167 430.5,120.5C 430.285,118.821 430.952,117.821 432.5,117.5 Z"/></g>
<g><path style="opacity:1" fill="#f9fef1" d="M 1335.5,116.5 C 1337.17,116.5 1338.83,116.5 1340.5,116.5C 1340.35,121.649 1337.68,123.982 1332.5,123.5C 1332.15,120.547 1333.15,118.213 1335.5,116.5 Z"/></g>
<g><path style="opacity:1" fill="#363e10" d="M 1473.5,119.5 C 1476.15,119.41 1478.49,120.076 1480.5,121.5C 1477.85,121.59 1475.51,120.924 1473.5,119.5 Z"/></g>
<g><path style="opacity:0.004" fill="#000000" d="M 50.5,123.5 C 49.4265,122.749 49.2599,121.749 50,120.5C 50.4828,121.448 50.6495,122.448 50.5,123.5 Z"/></g>
<g><path style="opacity:0.004" fill="#000000" d="M 640.5,120.5 C 640.5,121.167 640.5,121.833 640.5,122.5C 638.067,122.214 638.067,121.548 640.5,120.5 Z"/></g>
<g><path style="opacity:0.004" fill="#000000" d="M 985.5,123.5 C 984.427,122.749 984.26,121.749 985,120.5C 985.483,121.448 985.649,122.448 985.5,123.5 Z"/></g>
<g><path style="opacity:0.004" fill="#000000" d="M 253.5,123.5 C 252.833,124.167 252.833,124.167 253.5,123.5 Z"/></g>
<g><path style="opacity:0.004" fill="#000000" d="M 427.5,123.5 C 428.833,124.167 428.833,124.167 427.5,123.5 Z"/></g>
<g><path style="opacity:0.004" fill="#000000" d="M 801.5,123.5 C 802.525,123.897 802.692,124.563 802,125.5C 801.536,124.906 801.369,124.239 801.5,123.5 Z"/></g>
<g><path style="opacity:0.004" fill="#000000" d="M 427.5,124.5 C 427.5,125.5 427.5,126.5 427.5,127.5C 426.167,126.5 426.167,125.5 427.5,124.5 Z"/></g>
<g><path style="opacity:0.004" fill="#000000" d="M 424.5,127.5 C 425.525,127.897 425.692,128.563 425,129.5C 424.536,128.906 424.369,128.239 424.5,127.5 Z"/></g>
<g><path style="opacity:0.004" fill="#000000" d="M 633.5,131.5 C 633.369,130.761 633.536,130.094 634,129.5C 634.692,130.437 634.525,131.103 633.5,131.5 Z"/></g>
<g><path style="opacity:0.004" fill="#000000" d="M 47.5,131.5 C 48.5983,132.601 48.765,133.934 48,135.5C 47.51,134.207 47.3433,132.873 47.5,131.5 Z"/></g>
<g><path style="opacity:1" fill="#bdbdbd" d="M 819.5,118.5 C 819.101,125.722 818.101,132.722 816.5,139.5C 816.334,135.486 816.501,131.486 817,127.5C 817.057,124.149 817.891,121.149 819.5,118.5 Z"/></g>
<g><path style="opacity:0.004" fill="#000000" d="M 630.5,134.5 C 631.525,134.897 631.692,135.563 631,136.5C 630.536,135.906 630.369,135.239 630.5,134.5 Z"/></g>
<g><path style="opacity:0.004" fill="#000000" d="M 629.5,138.5 C 630.833,139.167 630.833,139.167 629.5,138.5 Z"/></g>
<g><path style="opacity:0.004" fill="#000000" d="M 420.5,143.5 C 420.343,142.127 420.51,140.793 421,139.5C 421.765,141.066 421.598,142.399 420.5,143.5 Z"/></g>
<g><path style="opacity:0.004" fill="#000000" d="M 241.5,146.5 C 240.427,145.749 240.26,144.749 241,143.5C 241.483,144.448 241.649,145.448 241.5,146.5 Z"/></g>
<g><path style="opacity:1" fill="#fafef3" d="M 1478.5,142.5 C 1482.93,142.859 1483.59,144.693 1480.5,148C 1479.21,148.49 1477.87,148.657 1476.5,148.5C 1476.25,146.142 1476.92,144.142 1478.5,142.5 Z"/></g>
<g><path style="opacity:1" fill="#818181" d="M 204.5,139.5 C 206.245,141.033 207.245,143.033 207.5,145.5C 205.755,143.967 204.755,141.967 204.5,139.5 Z"/></g>
<g><path style="opacity:0.004" fill="#000000" d="M 238.5,153.5 C 237.427,152.749 237.26,151.749 238,150.5C 238.483,151.448 238.649,152.448 238.5,153.5 Z"/></g>
<g><path style="opacity:1" fill="#070707" d="M 143.5,167.5 C 141.759,169.395 140.759,171.728 140.5,174.5C 138.555,177.484 136.889,180.651 135.5,184C 131.504,185.663 127.837,187.829 124.5,190.5C 124.167,190.167 123.833,189.833 123.5,189.5C 124.52,177.856 124.687,166.19 124,154.5C 124.5,154 125,153.5 125.5,153C 138.004,150.061 144.004,154.894 143.5,167.5 Z"/></g>
<g><path style="opacity:1" fill="#060606" d="M 881.5,188.5 C 880.417,188.539 879.417,188.873 878.5,189.5C 877.833,178.674 877.167,168.008 876.5,157.5C 876.33,156.178 876.663,155.011 877.5,154C 895.574,150.588 900.907,157.421 893.5,174.5C 892.019,177.617 890.352,180.617 888.5,183.5C 885.923,184.943 883.59,186.61 881.5,188.5 Z"/></g>
<g><path style="opacity:1" fill="#8f8f8f" d="M 520.5,149.5 C 522.245,151.033 523.245,153.033 523.5,155.5C 521.755,153.967 520.755,151.967 520.5,149.5 Z"/></g>
<g><path style="opacity:1" fill="#0c0c0c" d="M 328.5,155.5 C 328.073,161.114 328.74,166.447 330.5,171.5C 330.181,176.363 330.514,181.03 331.5,185.5C 331.5,197.833 331.5,210.167 331.5,222.5C 328.311,222.858 325.311,223.525 322.5,224.5C 319.956,224.896 317.789,224.229 316,222.5C 315.333,216.5 315.333,210.5 316,204.5C 318.464,188.18 320.798,171.847 323,155.5C 325.206,153.189 327.039,153.189 328.5,155.5 Z"/></g>
<g><path style="opacity:1" fill="#090909" d="M 715.5,168.5 C 715.108,178.06 715.775,187.393 717.5,196.5C 717.5,203.833 717.5,211.167 717.5,218.5C 716.566,219.568 716.232,220.901 716.5,222.5C 711.881,223.314 707.214,223.647 702.5,223.5C 701.258,212.605 701.592,201.605 703.5,190.5C 704.268,189.737 704.768,188.737 705,187.5C 705.498,184.183 705.665,180.85 705.5,177.5C 706.563,173.361 707.23,169.028 707.5,164.5C 706.696,159.535 708.362,155.869 712.5,153.5C 713.971,154.381 714.804,155.714 715,157.5C 715.499,161.152 715.665,164.818 715.5,168.5 Z"/></g>
<g><path style="opacity:1" fill="#909090" d="M 529.5,142.5 C 530.696,148.97 531.362,155.637 531.5,162.5C 529.961,156.063 529.294,149.396 529.5,142.5 Z"/></g>
<g><path style="opacity:1" fill="#9c9d23" d="M 1372.5,156.5 C 1376.16,156.723 1379.5,157.723 1382.5,159.5C 1378.84,159.277 1375.5,158.277 1372.5,156.5 Z"/></g>
<g><path style="opacity:1" fill="#4c4c4c" d="M 328.5,155.5 C 329.458,160.658 330.125,165.991 330.5,171.5C 328.74,166.447 328.073,161.114 328.5,155.5 Z"/></g>
<g><path style="opacity:1" fill="#737b1d" d="M 1383.5,159.5 C 1386.43,159.565 1389.09,160.232 1391.5,161.5C 1388.5,161.706 1385.84,161.04 1383.5,159.5 Z"/></g>
<g><path style="opacity:1" fill="#ababab" d="M 208.5,148.5 C 211.692,157.291 212.025,166.291 209.5,175.5C 208.828,177.16 207.828,178.493 206.5,179.5C 207.31,177.202 208.144,174.868 209,172.5C 209.657,164.477 209.49,156.477 208.5,148.5 Z"/></g>
<g><path style="opacity:1" fill="#797979" d="M 523.5,156.5 C 525.245,158.033 526.245,160.033 526.5,162.5C 524.755,160.967 523.755,158.967 523.5,156.5 Z"/></g>
<g><path style="opacity:1" fill="#fce22e" d="M 1400.5,239.5 C 1398.16,237.96 1395.5,237.294 1392.5,237.5C 1382.58,235.021 1372.58,232.855 1362.5,231C 1351.04,228.069 1339.71,224.736 1328.5,221C 1325.37,218.872 1322.54,216.372 1320,213.5C 1314.36,205.223 1309.53,196.557 1305.5,187.5C 1305.39,182.13 1305.73,176.797 1306.5,171.5C 1311.94,161.726 1320.27,158.226 1331.5,161C 1372.95,171.029 1414.28,181.363 1455.5,192C 1463.89,195.725 1470.39,201.559 1475,209.5C 1480.13,217.435 1484.47,225.768 1488,234.5C 1489.48,243.4 1486.65,250.566 1479.5,256C 1474.44,256.661 1469.44,256.328 1464.5,255C 1443.22,249.848 1421.89,244.682 1400.5,239.5 Z"/></g>
<g><path style="opacity:1" fill="#bbbbbb" d="M 599.5,144.5 C 600.584,151.983 601.251,159.65 601.5,167.5C 599.535,160.24 598.868,152.573 599.5,144.5 Z"/></g>
<g><path style="opacity:1" fill="#7f7f7f" d="M 876.5,157.5 C 877.167,168.008 877.833,178.674 878.5,189.5C 879.417,188.873 880.417,188.539 881.5,188.5C 880.365,190.213 878.698,190.88 876.5,190.5C 876.5,179.5 876.5,168.5 876.5,157.5 Z"/></g>
<g><path style="opacity:1" fill="#4c4c4c" d="M 1071.5,149.5 C 1070.93,157.312 1070.26,164.979 1069.5,172.5C 1069.33,165.492 1069.5,158.492 1070,151.5C 1070.28,150.584 1070.78,149.918 1071.5,149.5 Z"/></g>
<g><path style="opacity:1" fill="#fcfef7" d="M 1320.5,167.5 C 1329.62,166.6 1338.28,168.1 1346.5,172C 1349.37,175.051 1349.04,177.718 1345.5,180C 1339.07,181.022 1332.91,180.189 1327,177.5C 1325.2,178.956 1323.37,180.456 1321.5,182C 1314.69,181.56 1312.52,178.06 1315,171.5C 1316.5,169.531 1318.33,168.198 1320.5,167.5 Z"/></g>
<g><path style="opacity:1" fill="#909420" d="M 1420.5,168.5 C 1423.15,168.41 1425.49,169.076 1427.5,170.5C 1424.85,170.59 1422.51,169.924 1420.5,168.5 Z"/></g>
<g><path style="opacity:1" fill="#878787" d="M 707.5,164.5 C 707.23,169.028 706.563,173.361 705.5,177.5C 705.156,172.878 705.823,168.545 707.5,164.5 Z"/></g>
<g><path style="opacity:1" fill="#777777" d="M 143.5,167.5 C 143.241,170.272 142.241,172.605 140.5,174.5C 140.759,171.728 141.759,169.395 143.5,167.5 Z"/></g>
<g><path style="opacity:1" fill="#b4b4b4" d="M 1089.5,173.5 C 1094.91,172.143 1100.24,172.476 1105.5,174.5C 1100.17,174.167 1094.83,173.833 1089.5,173.5 Z"/></g>
<g><path style="opacity:1" fill="#757575" d="M 1169.5,175.5 C 1174.5,175.5 1179.5,175.5 1184.5,175.5C 1184.2,178.373 1183.53,181.039 1182.5,183.5C 1182.5,181.167 1182.5,178.833 1182.5,176.5C 1177.97,176.818 1173.63,176.485 1169.5,175.5 Z"/></g>
<g><path style="opacity:1" fill="#999999" d="M 1269.5,175.5 C 1267.4,176.612 1265.07,177.279 1262.5,177.5C 1262.61,176.883 1262.94,176.383 1263.5,176C 1265.47,175.505 1267.47,175.338 1269.5,175.5 Z"/></g>
<g><path style="opacity:1" fill="#fcfef5" d="M 1360.5,176.5 C 1369.18,176.893 1377.01,179.56 1384,184.5C 1384.67,185.5 1384.67,186.5 1384,187.5C 1377.21,189.978 1370.37,189.812 1363.5,187C 1357.21,184.644 1356.21,181.144 1360.5,176.5 Z"/></g>
<g><path style="opacity:1" fill="#8d8e20" d="M 1306.5,171.5 C 1305.73,176.797 1305.39,182.13 1305.5,187.5C 1304.35,183.019 1304.18,178.352 1305,173.5C 1305.28,172.584 1305.78,171.918 1306.5,171.5 Z"/></g>
<g><path style="opacity:1" fill="#747474" d="M 531.5,177.5 C 532.268,178.263 532.768,179.263 533,180.5C 533.483,179.552 533.649,178.552 533.5,177.5C 534.317,179.831 534.984,182.331 535.5,185C 535.167,185.5 534.833,186 534.5,186.5C 532.956,183.644 531.956,180.644 531.5,177.5 Z"/></g>
<g><path style="opacity:1" fill="#9d9d9d" d="M 992.5,166.5 C 992.666,173.175 992.5,179.842 992,186.5C 991.809,188.708 991.309,190.708 990.5,192.5C 990.689,183.648 991.355,174.981 992.5,166.5 Z"/></g>
<g><path style="opacity:1" fill="#4a4a4a" d="M 715.5,168.5 C 716.819,177.637 717.486,186.971 717.5,196.5C 715.775,187.393 715.108,178.06 715.5,168.5 Z"/></g>
<g><path style="opacity:1" fill="#4d4d4d" d="M 705.5,177.5 C 705.665,180.85 705.498,184.183 705,187.5C 704.768,188.737 704.268,189.737 703.5,190.5C 703.624,185.951 704.291,181.618 705.5,177.5 Z"/></g>
<g><path style="opacity:1" fill="#a3a3a3" d="M 1182.5,185.5 C 1182.67,189.846 1182.5,194.179 1182,198.5C 1181.79,200.058 1181.29,201.391 1180.5,202.5C 1180.6,196.627 1181.26,190.96 1182.5,185.5 Z"/></g>
<g><path style="opacity:1" fill="#fbfef2" d="M 1450.5,198.5 C 1456.2,199.476 1457.87,202.643 1455.5,208C 1451.26,208.877 1448.59,207.21 1447.5,203C 1448.31,201.357 1449.31,199.857 1450.5,198.5 Z"/></g>
<g><path style="opacity:0.004" fill="#000000" d="M 1165.5,219.5 C 1164.35,214.684 1164.18,209.684 1165,204.5C 1165.5,209.489 1165.67,214.489 1165.5,219.5 Z"/></g>
<g><path style="opacity:1" fill="#5e5e5e" d="M 1251.5,199.5 C 1252.27,200.263 1252.77,201.263 1253,202.5C 1253.5,206.486 1253.67,210.486 1253.5,214.5C 1252.41,209.694 1251.74,204.694 1251.5,199.5 Z"/></g>
<g><path style="opacity:1" fill="#757575" d="M 331.5,185.5 C 332.495,197.989 332.829,210.656 332.5,223.5C 329.214,224.207 325.881,224.54 322.5,224.5C 325.311,223.525 328.311,222.858 331.5,222.5C 331.5,210.167 331.5,197.833 331.5,185.5 Z"/></g>
<g><path style="opacity:1" fill="#707070" d="M 407.5,207.5 C 408.268,208.263 408.768,209.263 409,210.5C 409.498,213.817 409.665,217.15 409.5,220.5C 408.291,216.382 407.624,212.049 407.5,207.5 Z"/></g>
<g><path style="opacity:1" fill="#f9feec" d="M 1467.5,218.5 C 1472.6,219.426 1474.76,222.426 1474,227.5C 1473.31,228.357 1472.48,229.023 1471.5,229.5C 1466.32,226.877 1464.99,223.21 1467.5,218.5 Z"/></g>
<g><path style="opacity:1" fill="#575757" d="M 717.5,218.5 C 717.5,220.167 717.5,221.833 717.5,223.5C 712.355,224.691 707.355,224.691 702.5,223.5C 707.214,223.647 711.881,223.314 716.5,222.5C 716.232,220.901 716.566,219.568 717.5,218.5 Z"/></g>
<g><path style="opacity:1" fill="#9e9e9e" d="M 1253.5,214.5 C 1254.64,218.964 1255.31,223.63 1255.5,228.5C 1254.73,227.737 1254.23,226.737 1254,225.5C 1253.5,221.848 1253.33,218.182 1253.5,214.5 Z"/></g>
<g><path style="opacity:1" fill="#393939" d="M 989.5,226.5 C 990.267,236.349 990.934,246.349 991.5,256.5C 989.526,246.889 988.859,236.889 989.5,226.5 Z"/></g>
<g><path style="opacity:1" fill="#505050" d="M 1083.5,227.5 C 1081.17,227.5 1078.83,227.5 1076.5,227.5C 1076.81,231.042 1076.48,234.375 1075.5,237.5C 1075.5,233.833 1075.5,230.167 1075.5,226.5C 1078.39,226.194 1081.05,226.527 1083.5,227.5 Z"/></g>
<g><path style="opacity:1" fill="#040404" d="M 137.5,231.5 C 138.753,238.813 138.753,246.146 137.5,253.5C 135.638,257.482 132.971,260.982 129.5,264C 126.829,265.903 123.829,266.736 120.5,266.5C 120.177,259.978 120.51,253.645 121.5,247.5C 122.381,242.331 123.048,236.998 123.5,231.5C 125.679,230.074 128.179,229.408 131,229.5C 133.544,229.336 135.71,230.003 137.5,231.5 Z"/></g>
<g><path style="opacity:1" fill="#040404" d="M 891.5,233.5 C 892.344,237.099 892.677,240.766 892.5,244.5C 891.586,249.734 889.752,254.734 887,259.5C 884.751,262.371 881.918,264.371 878.5,265.5C 876.856,265.286 875.356,265.62 874,266.5C 873.501,261.845 873.334,257.179 873.5,252.5C 874.578,245.543 875.411,238.543 876,231.5C 879.933,229.522 884.1,229.022 888.5,230C 889.71,231.039 890.71,232.206 891.5,233.5 Z"/></g>
<g><path style="opacity:1" fill="#818181" d="M 503.5,239.5 C 502.833,239.5 502.167,239.5 501.5,239.5C 500.489,237.598 500.322,235.598 501,233.5C 501.573,235.641 502.406,237.641 503.5,239.5 Z"/></g>
<g><path style="opacity:1" fill="#636363" d="M 123.5,231.5 C 123.048,236.998 122.381,242.331 121.5,247.5C 121.334,242.489 121.501,237.489 122,232.5C 122.383,231.944 122.883,231.611 123.5,231.5 Z"/></g>
<g><path style="opacity:1" fill="#fce22d" d="M 1336.5,238.5 C 1338.51,239.924 1340.85,240.59 1343.5,240.5C 1366.03,246.466 1388.7,251.799 1411.5,256.5C 1413.51,257.924 1415.85,258.59 1418.5,258.5C 1435.53,262.508 1452.53,267.008 1469.5,272C 1479.09,279.228 1480.92,288.062 1475,298.5C 1463.83,309.499 1451.33,318.666 1437.5,326C 1431.91,327.289 1426.24,327.789 1420.5,327.5C 1418.49,326.076 1416.15,325.41 1413.5,325.5C 1388.13,319.405 1362.79,313.405 1337.5,307.5C 1334.09,305.926 1330.43,304.926 1326.5,304.5C 1323.67,304.037 1321,303.371 1318.5,302.5C 1313.55,300.11 1308.21,298.776 1302.5,298.5C 1300.14,298.326 1297.81,297.993 1295.5,297.5C 1293.9,295.926 1291.9,295.259 1289.5,295.5C 1280.05,292.185 1276.21,285.519 1278,275.5C 1279.3,272.853 1280.63,270.186 1282,267.5C 1293.72,257.726 1305.89,248.559 1318.5,240C 1324.47,237.502 1330.47,237.002 1336.5,238.5 Z"/></g>
<g><path style="opacity:1" fill="#8f9421" d="M 1392.5,237.5 C 1395.5,237.294 1398.16,237.96 1400.5,239.5C 1397.57,239.435 1394.91,238.768 1392.5,237.5 Z"/></g>
<g><path style="opacity:1" fill="#4a4a4a" d="M 137.5,231.5 C 139.86,233.911 140.86,236.911 140.5,240.5C 140.372,245.16 139.372,249.493 137.5,253.5C 138.753,246.146 138.753,238.813 137.5,231.5 Z"/></g>
<g><path style="opacity:1" fill="#6f6f6f" d="M 891.5,233.5 C 892.117,233.611 892.617,233.944 893,234.5C 893.808,238.027 893.641,241.36 892.5,244.5C 892.677,240.766 892.344,237.099 891.5,233.5 Z"/></g>
<g><path style="opacity:1" fill="#4e5917" d="M 1336.5,238.5 C 1339.23,238.171 1341.56,238.837 1343.5,240.5C 1340.85,240.59 1338.51,239.924 1336.5,238.5 Z"/></g>
<g><path style="opacity:1" fill="#fcfef7" d="M 1326.5,245.5 C 1328.99,245.298 1331.32,245.798 1333.5,247C 1334.55,248.388 1334.72,249.888 1334,251.5C 1327.13,258.415 1318.96,262.582 1309.5,264C 1307.6,262.192 1307.1,260.025 1308,257.5C 1313.36,252.081 1319.53,248.081 1326.5,245.5 Z"/></g>
<g><path style="opacity:1" fill="#cfcfcf" d="M 625.5,210.5 C 625.079,227.341 624.413,244.174 623.5,261C 623.864,269.534 624.531,278.034 625.5,286.5C 623.932,284.189 623.098,281.522 623,278.5C 621.97,255.609 622.804,232.942 625.5,210.5 Z"/></g>
<g><path style="opacity:1" fill="#7d7d7d" d="M 1256.5,233.5 C 1258.49,246.136 1258.82,258.802 1257.5,271.5C 1257.17,258.833 1256.83,246.167 1256.5,233.5 Z"/></g>
<g><path style="opacity:1" fill="#5c5c5c" d="M 873.5,252.5 C 873.334,257.179 873.501,261.845 874,266.5C 875.356,265.62 876.856,265.286 878.5,265.5C 876.786,266.738 874.786,267.405 872.5,267.5C 872.179,262.305 872.513,257.305 873.5,252.5 Z"/></g>
<g><path style="opacity:1" fill="#434c14" d="M 1411.5,256.5 C 1414.15,256.41 1416.49,257.076 1418.5,258.5C 1415.85,258.59 1413.51,257.924 1411.5,256.5 Z"/></g>
<g><path style="opacity:1" fill="#878787" d="M 970.5,258.5 C 970.663,260.857 970.497,263.19 970,265.5C 969.617,266.056 969.117,266.389 968.5,266.5C 968.963,263.67 969.629,261.003 970.5,258.5 Z"/></g>
<g><path style="opacity:1" fill="#f9fef1" d="M 1298.5,264.5 C 1299.83,264.5 1301.17,264.5 1302.5,264.5C 1302.83,268.002 1301.33,270.336 1298,271.5C 1296.5,271.333 1295.67,270.5 1295.5,269C 1295.96,267.06 1296.96,265.56 1298.5,264.5 Z"/></g>
<g><path style="opacity:1" fill="#666666" d="M 815.5,146.5 C 815.234,193.842 815.567,241.176 816.5,288.5C 816.5,290.833 816.5,293.167 816.5,295.5C 815.675,291.353 815.175,287.019 815,282.5C 814.169,236.998 814.335,191.665 815.5,146.5 Z"/></g>
<g><path style="opacity:1" fill="#a9a9a9" d="M 1111.5,263.5 C 1112.97,266.017 1113.64,268.85 1113.5,272C 1113.64,275.15 1112.97,277.983 1111.5,280.5C 1111.5,274.833 1111.5,269.167 1111.5,263.5 Z"/></g>
<g><path style="opacity:1" fill="#454545" d="M 216.5,265.5 C 216.831,269.885 215.498,273.552 212.5,276.5C 213.686,272.74 215.019,269.074 216.5,265.5 Z"/></g>
<g><path style="opacity:1" fill="#b4b4b4" d="M 432.5,277.5 C 434.358,283.317 436.358,289.317 438.5,295.5C 434.677,290.249 432.677,284.249 432.5,277.5 Z"/></g>
<g><path style="opacity:1" fill="#424242" d="M 709.5,278.5 C 709.389,279.117 709.056,279.617 708.5,280C 705.518,280.498 702.518,280.665 699.5,280.5C 699.821,286.026 699.488,291.36 698.5,296.5C 698.5,290.833 698.5,285.167 698.5,279.5C 702.179,279.276 705.846,278.942 709.5,278.5 Z"/></g>
<g><path style="opacity:1" fill="#a5a5a5" d="M 816.5,288.5 C 817.604,293.353 818.604,298.353 819.5,303.5C 818.883,303.389 818.383,303.056 818,302.5C 817.56,300.134 817.06,297.801 816.5,295.5C 816.5,293.167 816.5,290.833 816.5,288.5 Z"/></g>
<g><path style="opacity:1" fill="#6d751b" d="M 1289.5,295.5 C 1291.9,295.259 1293.9,295.926 1295.5,297.5C 1293.21,297.405 1291.21,296.738 1289.5,295.5 Z"/></g>
<g><path style="opacity:1" fill="#b2ae25" d="M 1302.5,298.5 C 1308.21,298.776 1313.55,300.11 1318.5,302.5C 1312.95,301.584 1307.62,300.25 1302.5,298.5 Z"/></g>
<g><path style="opacity:1" fill="#272e0f" d="M 1326.5,304.5 C 1330.43,304.926 1334.09,305.926 1337.5,307.5C 1334.63,307.549 1331.79,307.216 1329,306.5C 1327.62,306.316 1326.79,305.649 1326.5,304.5 Z"/></g>
<g><path style="opacity:1" fill="#8f8f8f" d="M 542.5,313.5 C 544.898,313.259 546.898,313.926 548.5,315.5C 546.102,315.741 544.102,315.074 542.5,313.5 Z"/></g>
<g><path style="opacity:1" fill="#b8b8b8" d="M 1209.5,318.5 C 1217.83,318.5 1226.17,318.5 1234.5,318.5C 1231.28,319.954 1227.78,320.621 1224,320.5C 1218.95,320.35 1214.12,319.684 1209.5,318.5 Z"/></g>
<g><path style="opacity:1" fill="#6a751b" d="M 1413.5,325.5 C 1416.15,325.41 1418.49,326.076 1420.5,327.5C 1417.85,327.59 1415.51,326.924 1413.5,325.5 Z"/></g>
</svg>
