<svg width="173" height="32" viewBox="0 0 173 32" fill="none" xmlns="http://www.w3.org/2000/svg">
<path d="M8.89988 1.735C15.1039 1.735 21.5719 3.352 21.5719 13.351C21.5719 23.383 15.1039 25 8.89988 25H0.319882V1.735H8.89988ZM8.89988 20.38C13.0249 20.38 16.2919 20.05 16.2919 13.351C16.2919 6.685 13.0249 6.355 8.89988 6.355H5.59988V20.38H8.89988ZM22.2275 16.453C22.2275 11.173 25.8245 8.005 31.0055 8.005C36.1865 8.005 39.8165 11.074 39.8165 16.123V17.773H27.1775C27.1775 19.687 28.5635 21.04 31.5665 21.04C33.4145 21.04 34.8005 20.38 35.1305 19.126H40.4105C40.0805 21.535 37.3415 25.33 31.5665 25.33C25.1645 25.33 22.2275 21.172 22.2275 16.453ZM27.1775 14.803H34.8665C34.8665 13.549 33.9425 12.295 31.0055 12.295C28.0685 12.295 27.1775 13.549 27.1775 14.803ZM60.6083 8.335H62.0603V12.955H60.9383C60.4433 12.955 59.8493 12.955 59.3873 13.252C59.5853 13.516 59.8493 14.275 59.8493 15.166C59.8493 18.301 56.9123 20.281 52.3253 21.832C56.1203 21.601 59.6513 22.591 59.6513 26.122C59.6513 31.039 53.8763 31.6 41.5013 31.6V26.98C52.2923 26.98 54.3383 26.815 54.3383 25C54.3383 22.558 48.3653 23.647 43.2503 24.505L42.6893 21.535C46.4843 21.139 49.9163 20.743 52.9523 20.017V18.697C46.8473 20.875 40.4123 19.984 40.4123 14.506C40.4123 10.117 44.5703 8.005 49.8173 8.005C52.3583 8.005 54.6683 8.5 56.4173 9.787C57.4073 8.5 59.1233 8.335 60.6083 8.335ZM50.1473 17.047C53.3153 17.047 54.5693 16.255 54.5693 14.836C54.5693 13.45 53.3153 12.625 50.1473 12.625C46.9793 12.625 45.6923 13.45 45.6923 14.836C45.6923 16.255 46.9793 17.047 50.1473 17.047ZM62.0776 16.453C62.0776 11.173 65.6746 8.005 70.8556 8.005C76.0366 8.005 79.6666 11.074 79.6666 16.123V17.773H67.0276C67.0276 19.687 68.4136 21.04 71.4166 21.04C73.2646 21.04 74.6506 20.38 74.9806 19.126H80.2606C79.9306 21.535 77.1916 25.33 71.4166 25.33C65.0146 25.33 62.0776 21.172 62.0776 16.453ZM67.0276 14.803H74.7166C74.7166 13.549 73.7926 12.295 70.8556 12.295C67.9186 12.295 67.0276 13.549 67.0276 14.803ZM91.5989 12.625C88.7279 12.625 86.8469 14.143 86.8469 18.829V25H81.5669V8.335H86.8469V10.348L85.8569 13.318H87.1769C87.8369 10.348 89.9159 8.005 93.4799 8.005C97.7369 8.005 100.311 10.843 100.311 15.991V25H95.0309V16.816C95.0309 13.78 94.1399 12.625 91.5989 12.625ZM111.291 1.735C117.165 1.735 121.653 2.857 121.653 9.886C121.653 16.948 117.165 18.07 111.291 18.07H108.222V25H102.942V1.735H111.291ZM111.621 13.45C114.756 13.45 116.373 13.12 116.373 9.886C116.373 6.685 114.756 6.355 111.621 6.355H108.222V13.45H111.621ZM121.007 25V20.38H125.627V5.167L121.667 5.365V0.745L128.036 0.513999C129.884 0.447999 130.907 1.438 130.907 3.286V20.38H135.527V25H121.007ZM136.203 20.446C136.203 17.575 137.919 15.892 142.869 15.199L148.116 14.473C148.116 13.12 147.06 12.295 144.783 12.295C142.671 12.295 141.483 13.186 141.483 14.704H136.533C136.533 10.48 140.13 8.005 144.783 8.005C149.37 8.005 153.396 10.216 153.396 15.694V20.38H155.805V25H152.142C150.558 25 149.667 24.109 149.667 22.525V22.195L150.492 20.215H149.172C148.545 22.987 146.928 25.33 142.275 25.33C137.094 25.33 136.203 22.162 136.203 20.446ZM141.483 19.456C141.483 20.413 142.407 20.71 143.298 20.71C146.202 20.71 148.116 19.489 148.116 17.443L143.859 18.037C142.275 18.268 141.483 18.499 141.483 19.456ZM167.031 8.335H173.004L165.381 24.01V29.158C165.381 31.006 164.358 31.996 162.543 31.93L154.392 31.699V27.079L160.101 27.178V24.01L152.478 8.335H158.418L162.081 17.509V20.149H163.401V17.509L167.031 8.335Z" fill="white"/>
</svg>
