<?xml version="1.0" standalone="no"?>
<!DOCTYPE svg PUBLIC "-//W3C//DTD SVG 20010904//EN"
 "http://www.w3.org/TR/2001/REC-SVG-20010904/DTD/svg10.dtd">
<svg version="1.0" xmlns="http://www.w3.org/2000/svg"
 width="600.000000pt" height="329.000000pt" viewBox="0 0 600.000000 329.000000"
 preserveAspectRatio="xMidYMid meet">

<g transform="translate(0.000000,329.000000) scale(0.100000,-0.100000)"
fill="#000000" stroke="none">
<path d="M3602 2284 c-12 -8 -30 -30 -40 -47 -15 -29 -17 -68 -17 -397 1 -399
13 -535 56 -593 l21 -28 -209 2 c-165 1 -215 -1 -243 -13 -47 -20 -107 -88
-119 -135 -5 -21 -11 -148 -13 -283 l-3 -245 28 -48 c30 -51 70 -82 127 -96
55 -14 1308 -44 1349 -32 49 15 98 56 123 104 20 38 23 62 29 277 7 270 2 311
-46 368 -60 70 -67 71 -417 82 -172 5 -361 10 -420 10 l-107 0 16 28 c15 26
18 27 102 27 76 0 92 3 132 27 262 154 347 709 140 915 -73 73 -188 94 -271
50 l-43 -22 -32 32 c-27 27 -41 33 -77 33 -24 0 -54 -7 -66 -16z m340 -121
c62 -67 90 -176 91 -353 0 -282 -82 -460 -225 -484 -31 -6 -39 -3 -58 21 -24
30 -24 -1 1 458 18 348 18 350 48 368 14 9 47 17 72 17 37 0 50 -5 71 -27z
m-390 -1163 c22 -6 46 -23 58 -39 24 -34 26 -93 5 -111 -14 -12 -14 -15 4 -34
45 -48 34 -133 -23 -167 -26 -16 -50 -19 -166 -19 -74 0 -141 4 -149 9 -11 7
-12 40 -6 182 4 96 9 177 12 182 6 11 223 8 265 -3z m406 -62 l3 -58 -71 0
c-45 0 -69 -4 -65 -10 3 -5 33 -10 65 -10 55 0 60 -2 66 -24 3 -13 4 -35 2
-47 -3 -22 -9 -24 -65 -27 -83 -4 -81 -22 1 -22 70 0 76 -5 76 -65 0 -57 -11
-61 -161 -55 l-134 5 -3 155 c-2 85 0 170 3 188 l6 33 137 -3 137 -3 3 -57z
m310 39 c8 -6 12 -28 10 -61 -3 -50 -4 -51 -36 -54 -18 -2 -35 -9 -37 -15 -3
-7 -8 -61 -12 -122 l-8 -110 -70 0 -70 0 0 120 0 120 -32 10 c-32 9 -33 10
-33 66 0 32 4 59 10 61 23 8 266 -5 278 -15z m181 -12 c13 -12 13 -30 0 -137
l-14 -123 -65 0 -65 0 -7 50 c-11 88 -9 210 5 224 16 17 126 7 146 -14z m-11
-311 c4 -45 -16 -57 -82 -49 l-56 7 0 40 0 39 68 -3 c67 -3 67 -3 70 -34z"/>
<path d="M3425 891 c-7 -13 17 -24 40 -19 9 1 16 8 16 13 0 14 -48 19 -56 6z"/>
<path d="M3422 768 c5 -15 67 -18 71 -3 1 6 -15 11 -37 13 -28 3 -37 0 -34
-10z"/>
<path d="M1913 2262 c-37 -6 -69 -55 -82 -124 -43 -233 -40 -793 4 -878 16
-31 64 -55 93 -46 25 8 40 66 49 187 6 86 8 91 32 101 14 5 33 16 42 24 14 13
18 12 33 -10 18 -29 61 -153 71 -209 7 -37 35 -67 63 -67 31 0 81 33 93 61 10
25 9 41 -5 91 -21 75 -57 147 -96 191 -16 19 -30 39 -30 45 0 6 16 34 35 63
63 96 114 269 129 435 6 59 4 75 -9 88 -42 41 -58 14 -75 -124 -32 -253 -114
-446 -220 -516 -22 -15 -42 -25 -44 -23 -1 2 3 65 11 139 7 74 14 221 16 326
2 174 0 194 -16 212 -22 24 -63 39 -94 34z"/>
<path d="M2725 2257 c-62 -28 -60 -16 -60 -411 0 -303 3 -376 18 -451 25 -132
35 -163 60 -180 27 -19 86 -19 113 0 18 12 32 12 80 3 172 -32 319 112 263
259 -21 57 -101 113 -182 128 -43 8 -48 20 -10 29 68 18 148 99 188 191 26 62
31 181 10 248 -21 68 -75 133 -129 158 -48 22 -121 24 -156 4 -22 -12 -27 -11
-46 6 -27 25 -109 34 -149 16z m303 -83 c75 -52 80 -236 11 -380 -34 -73 -106
-144 -145 -144 l-27 0 5 251 c4 248 5 252 27 270 29 23 98 25 129 3z m2 -643
c31 -22 58 -68 60 -101 6 -78 0 -102 -35 -137 -34 -34 -37 -35 -97 -31 -41 3
-65 10 -73 21 -13 18 -28 216 -18 242 3 9 15 21 27 26 30 13 107 2 136 -20z"/>
<path d="M2443 2226 l-28 -24 0 -294 c1 -281 16 -523 36 -559 22 -43 93 -29
103 20 20 97 46 759 32 814 -7 30 -58 67 -93 67 -12 0 -35 -11 -50 -24z"/>
<path d="M3333 2226 l-28 -24 0 -294 c1 -281 16 -523 36 -559 22 -43 93 -29
103 20 20 97 46 759 32 814 -7 30 -58 67 -93 67 -12 0 -35 -11 -50 -24z"/>
<path d="M4310 2232 c-29 -23 -38 -83 -39 -250 -1 -136 14 -423 29 -546 13
-108 47 -142 99 -98 17 14 22 35 31 127 16 179 33 595 27 660 -8 80 -13 91
-52 109 -43 21 -68 20 -95 -2z"/>
<path d="M1483 2175 c-100 -43 -192 -215 -193 -361 0 -90 19 -158 62 -214 21
-28 33 -48 26 -44 -7 4 -5 -2 5 -13 10 -11 50 -35 90 -52 121 -53 142 -65 145
-84 5 -25 -26 -46 -68 -47 -29 0 -44 8 -75 40 -27 28 -48 40 -67 40 -34 0 -52
-29 -39 -62 5 -13 9 -27 9 -32 1 -20 107 -60 157 -59 92 1 165 61 165 135 0
54 -22 87 -88 134 -94 66 -130 103 -159 162 -25 52 -28 67 -28 162 0 89 4 111
23 147 26 49 61 76 94 71 38 -5 48 -42 48 -190 0 -153 7 -184 45 -194 61 -15
108 77 109 211 0 97 -21 164 -67 213 -48 52 -126 67 -194 37z"/>
</g>
</svg>
