<svg xmlns="http://www.w3.org/2000/svg" viewBox="0 0 500 500"><style><![CDATA[.B{fill:#FC0D1B}.C{fill:#fff}.D{fill:#D4D22C}.E{fill:#9D9C1E}.F{fill:#FFFD38}]]></style><circle cx="250" cy="250" r="250" fill="#fbdd11"/><path d="M248.7 176.2h9.6V205h-9.6z"/><path class="B" d="M219.9 224.1h9.6v9.6h-9.6zm57.6 9.6v9.6h-9.6v9.6h-28.8v-9.6h-9.6v-9.6z"/><path d="M344.6 387.3V416h-57.5v-9.6H335v-9.6h-9.6v-9.5z"/><path class="C" d="M239.1 396.8v9.6h-48v-9.6h9.6v-9.5h28.8v9.5zm95.9 0v9.6h-47.9v-9.6h9.6v-9.5h28.7v9.5z"/><path d="M363.8 233.7v9.6H335v9.6h-9.6v9.6h-9.6v9.6h-28.7v86.4h9.6v19.2h28.7v9.6h-28.7v9.5h-9.6v9.6h-9.6v-19.1h9.6v-19.2h-9.6v-19.2h-38.4v19.2h-9.6v19.2h-28.8v-9.6h19.2v-19.2h9.6v-28.8h-9.6v-19.2h-9.6v-28.8h-9.6v-9.6h-28.8v-9.6h-9.6v-9.6h-9.6v-9.6h-28.8v-9.6h19.2v-9.6h9.6v-9.6h-9.6V205h19.2v38.3h9.6v9.6h9.6v9.6h19.2v-86.3h9.6v-28.8h9.6v-19.2h9.6V109h9.6v28.8h-9.6V157h-9.6v9.6h28.8v9.6h-28.8V205h-9.6v9.5h9.6v19.2h-9.6v38.4h9.6v28.8h9.6v19.2h9.6v9.6h9.6v9.6h9.6v-9.6h19.2v-76.8h-9.6v-9.6h9.6v-9.6h-48v-9.6h48v-9.6h-19.2V205h28.8v57.5h19.1v-9.6h9.6v-9.6h9.6V205h19.2v9.5H335v9.6h9.6v9.6zM248.7 387.3v19.1h-9.6v-9.6h-9.6v-9.5zm-9.6 19.1v9.6h-57.6v-28.7h19.2v9.5h-9.6v9.6zm28.8-220.6h9.6v9.6h-9.6zm19.2-9.6h9.6V205h-9.6z"/><path class="C" d="M219.9 176.2V205h28.8v-28.8h-28.8zm19.2 19.2h-9.6v-9.6h9.6v9.6zm19.2-19.2V205h28.8v-28.8h-28.8zm19.2 19.2h-9.6v-9.6h9.6v9.6z"/><path d="M229.5 185.8h9.6v9.6h-9.6zm-9.6 19.2h28.8v9.6h-28.8zm19.2-105.6h19.2v9.6h-19.2zm48 67.2v9.6h-28.8v-9.6h9.6v-19.2h-9.6V109h9.6v28.8h9.6v28.8zm-67.2 67.1h9.6v9.6h-9.6zm9.6 9.6h9.6v9.6h-9.6zm9.6 9.6h28.8v9.6h-28.8zm-115.2-57.5h19.2v9.6h-19.2zm-9.5 9.6h9.6v28.8h-9.6z"/><path class="C" d="M152.7 214.5v9.6h-9.6v9.6h-19.2V205h19.2v9.5z"/><path d="M344.6 195.4h19.2v9.6h-19.2zm19.2 9.6h9.6v28.8h-9.6z"/><path class="C" d="M363.8 205v28.7h-19.2v-9.6H335v-9.6h9.6V205z"/><path class="D" d="M248.7 128.2h9.6v9.6h-9.6zm-19.2 9.6h9.6V157h-9.6zm-9.6 19.2h9.6v9.6h-9.6zm-9.6 48h9.6v9.6h-9.6zm48 115.1v19.2h-9.6v-9.6h-9.6v-9.6h-9.6v-19.2h-9.6v-28.8h-9.6v-38.4h9.6v28.8h9.6v28.8h9.6v19.2h9.6v9.6z"/><path class="E" d="M258.3 109v19.2h-9.6v9.6h-9.6V109zm-38.4 105.5h9.6v9.6h-9.6z"/><path class="F" d="M277.5 214.5v9.6h-48v-9.6h19.2V205h9.6v9.5zm0 38.4v76.8h-19.2v-9.6h-9.6v-9.6h-9.6v-19.2h-9.6v-28.8h-9.6v-19.2h9.6v9.6h9.6v9.6h28.8v-9.6zm-9.6-105.5v19.2h-9.6v9.6h-9.6v-9.6h-19.2V157h9.6v-19.2h19.2v9.6z"/></svg>